# Blender v2.83.10 OBJ File: 'modularV2.blend'
# www.blender.org
mtllib 0bj65.mtl
g G-__556014
v -0.546238 0.052710 -0.548020
v -0.500595 0.000000 0.497622
v -0.546238 0.052710 0.497622
v -0.500595 0.000000 -0.502378
v 0.499405 0.091694 0.497622
v -0.000595 0.518750 -0.002378
v -0.000595 0.518750 0.497622
v 0.499405 0.000000 -0.502378
v 0.499405 0.000000 0.497622
v 0.499405 0.518750 -0.002378
v 0.499405 0.052710 -0.548020
vn -0.7560 -0.6546 0.0000
vn 0.6495 0.7604 0.0000
vn 1.0000 0.0000 -0.0000
vn 0.0000 -0.6546 -0.7560
vn 0.0000 0.7604 0.6495
vn 0.0000 0.7604 -0.6495
vn 0.0000 0.0000 1.0000
vn 0.0000 -1.0000 0.0000
vn -0.6495 0.7604 0.0000
g G-__556014_G-__556014_Roof
usemtl Roof
s off
f 1//1 2//1 3//1
f 2//1 1//1 4//1
f 5//2 6//2 7//2
g G-__556014_G-__556014_Brick
usemtl Brick
f 8//3 5//3 9//3
f 5//3 8//3 10//3
f 10//3 8//3 11//3
g G-__556014_G-__556014_Roof
usemtl Roof
f 1//4 8//4 4//4
f 8//4 1//4 11//4
f 5//5 10//5 6//5
f 1//6 6//6 11//6
f 11//6 6//6 10//6
g G-__556014_G-__556014_Brick
usemtl Brick
f 5//7 2//7 9//7
f 2//7 5//7 3//7
f 3//7 5//7 7//7
f 8//8 2//8 4//8
f 2//8 8//8 9//8
g G-__556014_G-__556014_Roof
usemtl Roof
f 1//9 3//9 6//9
f 6//9 3//9 7//9
