# Blender v2.83.10 OBJ File: 'modularV2.blend'
# www.blender.org
mtllib 0bj68.mtl
g G-__555942
v -0.448654 0.433863 0.498654
v -0.498654 -0.067122 -0.620114
v -0.498654 0.433863 0.448654
v 0.620114 -0.067122 0.498654
v -0.498654 -0.084887 0.498654
v -0.498654 0.433863 0.498654
v -0.498654 -0.084887 -0.501346
v -0.498654 -0.127330 -0.591892
v 0.591892 -0.127330 0.498654
v 0.501346 -0.084887 0.498654
vn 0.3907 0.8335 -0.3907
vn -1.0000 0.0000 0.0000
vn 0.0000 1.0000 0.0000
vn 0.6712 -0.3146 -0.6712
vn 0.0000 -1.0000 -0.0000
vn -0.0000 0.0000 1.0000
vn -0.3907 -0.8335 0.3907
g G-__555942_G-__555942_Roof
usemtl Roof
s off
f 1//1 2//1 3//1
f 2//1 1//1 4//1
g G-__555942_G-__555942_Brick
usemtl Brick
f 3//2 5//2 6//2
f 5//2 3//2 7//2
f 7//2 3//2 2//2
f 7//2 2//2 8//2
g G-__555942_G-__555942_Roof
usemtl Roof
f 1//3 3//3 6//3
f 9//4 2//4 4//4
f 2//4 9//4 8//4
g G-__555942_G-__555942_Brick
usemtl Brick
f 10//5 5//5 7//5
f 4//6 10//6 9//6
f 10//6 4//6 5//6
f 5//6 4//6 6//6
f 1//6 6//6 4//6
g G-__555942_G-__555942_Roof
usemtl Roof
f 8//7 10//7 7//7
f 10//7 8//7 9//7
