# Blender v2.83.10 OBJ File: 'modularV2.blend'
# www.blender.org
mtllib 0bj61.mtl
g G-__556149
v -0.500517 0.073437 0.502300
v -0.500517 0.000000 -0.497700
v -0.500517 0.000000 0.502300
v -0.500517 0.518750 -0.447700
v -0.500517 0.518750 -0.497700
v 0.499483 0.518750 0.502300
v 0.499483 0.000000 0.502300
v 0.449483 0.518750 0.502300
v 0.449483 0.518750 -0.447700
v 0.499483 0.518750 -0.497700
v 0.499483 0.000000 -0.497700
vn -1.0000 0.0000 0.0000
vn 0.0000 0.0000 1.0000
vn 0.0000 1.0000 0.0000
vn -0.4244 0.9055 0.0000
vn 1.0000 0.0000 0.0000
vn 0.0000 0.0000 -1.0000
vn 0.0000 -1.0000 0.0000
vn 0.0000 0.9055 0.4244
g G-__556149_G-__556149_Brick
usemtl Brick
s off
f 1//1 2//1 3//1
f 2//1 1//1 4//1
f 2//1 4//1 5//1
f 6//2 3//2 7//2
f 1//2 3//2 6//2
f 1//2 6//2 8//2
g G-__556149_G-__556149_Roof
usemtl Roof
f 6//3 9//3 8//3
f 4//3 10//3 5//3
f 10//3 4//3 9//3
f 10//3 9//3 6//3
f 9//4 1//4 8//4
g G-__556149_G-__556149_Brick
usemtl Brick
f 7//5 10//5 6//5
f 10//5 7//5 11//5
f 5//6 11//6 2//6
f 11//6 5//6 10//6
f 11//7 3//7 2//7
f 3//7 11//7 7//7
g G-__556149_G-__556149_Roof
usemtl Roof
f 1//8 9//8 4//8
