# Blender v2.83.10 OBJ File: 'modularV2.blend'
# www.blender.org
mtllib 0bj67.mtl
g G-__555951
v 0.501035 0.468750 0.500000
v -0.498965 0.000000 0.500000
v 0.501035 0.000000 0.500000
v 0.501035 0.468750 -0.500000
v 0.501035 0.000000 -0.500000
v -0.498965 0.000000 -0.500000
v -0.498965 0.518750 0.000000
v -0.498965 0.073438 0.500000
v -0.498965 0.073438 0.521374
v -0.498965 0.073437 -0.500000
v -0.498965 0.073437 -0.521374
v 0.451035 0.518750 0.500000
v 0.451035 0.518750 0.000000
v -0.460019 0.091694 0.500000
v -0.460019 0.091694 -0.500000
v 0.451035 0.518750 -0.500000
v 0.501035 0.518750 -0.500000
v 0.501035 0.518750 0.500000
vn 0.0000 0.0000 1.0000
vn 0.0000 0.0000 -1.0000
vn -1.0000 -0.0000 0.0000
vn -0.4244 0.9055 0.0000
vn 0.0000 -1.0000 0.0000
vn 0.4244 -0.9055 0.0000
vn -0.0000 0.7604 -0.6495
vn 1.0000 0.0000 0.0000
vn 0.0000 0.7604 0.6495
vn 0.0000 1.0000 0.0000
g G-__555951_G-__555951_Brick
usemtl Brick
s off
f 1//1 2//1 3//1
f 4//2 5//2 6//2
f 7//3 8//3 9//3
f 8//3 7//3 10//3
f 10//3 7//3 11//3
g G-__555951_G-__555951_Roof
usemtl Roof
f 12//4 13//4 14//4
f 10//2 4//2 6//2
f 4//2 10//2 15//2
f 4//2 15//2 16//2
f 4//2 16//2 17//2
f 1//1 8//1 2//1
f 8//1 1//1 14//1
f 14//1 1//1 12//1
f 12//1 1//1 18//1
g G-__555951_G-__555951_Brick
usemtl Brick
f 5//5 2//5 6//5
f 2//5 5//5 3//5
g G-__555951_G-__555951_Material
usemtl Material
f 8//4 15//4 10//4
f 15//4 8//4 14//4
f 15//4 14//4 13//4
g G-__555951_G-__555951_Roof
usemtl Roof
f 14//6 9//6 8//6
f 10//3 2//3 8//3
f 2//3 10//3 6//3
f 7//7 15//7 11//7
f 15//7 7//7 13//7
g G-__555951_G-__555951_Brick
usemtl Brick
f 5//8 1//8 3//8
f 1//8 5//8 18//8
f 18//8 5//8 17//8
f 17//1 5//1 4//1
g G-__555951_G-__555951_Roof
usemtl Roof
f 7//9 14//9 13//9
f 14//9 7//9 9//9
f 16//4 15//4 13//4
f 12//1 16//1 13//1
f 16//10 12//10 17//10
f 17//10 12//10 18//10
f 15//6 10//6 11//6
