# Blender v2.83.10 OBJ File: 'modularV2.blend'
# www.blender.org
mtllib 0bj69.mtl
g G-__555843
v -0.499392 0.433863 0.449392
v -0.499392 -0.084887 0.499392
v -0.499392 0.433863 0.499392
v -0.499392 -0.084887 -0.500608
v -0.499392 -0.067122 -0.619376
v -0.499392 -0.127330 -0.591154
v 0.500608 -0.084887 -0.500608
v 0.500608 -0.084887 0.499392
v 0.591154 -0.127330 -0.591154
v 0.619376 -0.067122 -0.619376
v -0.449392 0.433863 0.449392
v 0.591154 -0.127330 0.499392
v -0.449392 0.433863 0.499392
v 0.619376 -0.067122 0.499392
vn -1.0000 0.0000 0.0000
vn 0.0000 -1.0000 0.0000
vn 0.0000 -0.9055 0.4244
vn 0.0000 0.9055 -0.4244
vn -0.4244 -0.9055 0.0000
vn 0.4244 0.9055 0.0000
vn 0.0000 0.0000 1.0000
vn 0.0000 -0.4244 -0.9055
vn 0.0000 1.0000 0.0000
vn 0.9055 -0.4244 0.0000
g G-__555843_G-__555843_Brick
usemtl Brick
s off
f 1//1 2//1 3//1
f 2//1 1//1 4//1
f 4//1 1//1 5//1
f 4//1 5//1 6//1
f 7//2 2//2 4//2
f 2//2 7//2 8//2
g G-__555843_G-__555843_Roof
usemtl Roof
f 9//3 4//3 6//3
f 4//3 9//3 7//3
f 1//4 10//4 5//4
f 10//4 1//4 11//4
f 9//5 8//5 7//5
f 8//5 9//5 12//5
f 13//6 10//6 11//6
f 10//6 13//6 14//6
g G-__555843_G-__555843_Brick
usemtl Brick
f 14//7 8//7 12//7
f 8//7 14//7 2//7
f 2//7 14//7 3//7
f 3//7 14//7 13//7
g G-__555843_G-__555843_Roof
usemtl Roof
f 6//8 10//8 9//8
f 10//8 6//8 5//8
f 1//9 3//9 11//9
f 11//9 3//9 13//9
f 9//10 14//10 12//10
f 14//10 9//10 10//10
