# Blender v2.82 (sub 7) OBJ File: ''
# www.blender.org
mtllib roadStraightLong.mtl
o roadStraightLong
v -0.418347 -0.010000 1.000000
v -0.418347 -0.010000 -1.000000
v -0.500000 -0.010000 -1.000000
v -0.500000 -0.010000 1.000000
v 0.500000 -0.010000 1.000000
v 0.500000 -0.010000 -1.000000
v 0.418348 -0.010000 -1.000000
v 0.418348 -0.010000 1.000000
v -0.345135 0.010000 1.000000
v -0.345135 0.010000 -1.000000
v -0.418347 0.010000 -1.000000
v -0.418347 0.010000 1.000000
v -0.345135 0.000000 -1.000000
v -0.345135 -0.000000 1.000000
v 0.418348 0.010000 -1.000000
v 0.418348 0.010000 1.000000
v 0.345135 0.010000 -1.000000
v 0.345135 0.010000 1.000000
v 0.345135 0.000000 -1.000000
v 0.345135 -0.000000 1.000000
vt 36.155411 78.740158
vt 36.155411 0.000000
vt 39.370079 0.000000
vt 39.370079 78.740158
vt 0.000000 78.740158
vt 0.000000 0.000000
vt 3.214670 0.000000
vt 3.214670 78.740158
vt 36.155411 0.000000
vt 36.155411 78.740158
vt 33.273041 78.740158
vt 0.000000 0.393701
vt 0.000000 0.787402
vt -78.740158 0.787402
vt 78.740158 0.000000
vt 78.740158 0.787402
vt 0.000000 0.787402
vt 6.097044 -0.000000
vt 6.097044 78.740158
vt 3.214670 78.740158
vt 0.000000 0.787402
vt 0.000000 0.393701
vt 78.740158 0.393701
vt 33.273041 0.000000
vt -78.740158 0.393701
vt 0.000000 0.000000
vt 0.000000 0.000000
vt 0.000000 0.787402
vt -78.740158 0.787402
vt -78.740158 0.000000
vt 3.214670 -0.000000
vt 78.740158 0.787402
vt 6.097044 78.740158
vt 6.097044 0.000000
vt 33.273041 0.000000
vt 33.273041 78.740158
vn 0.0000 1.0000 0.0000
vn 1.0000 0.0000 0.0000
vn -1.0000 0.0000 0.0000
usemtl grass
s 1
f 1/1/1 2/2/1 3/3/1
f 3/3/1 4/4/1 1/1/1
f 5/5/1 6/6/1 7/7/1
f 7/7/1 8/8/1 5/5/1
usemtl grey
f 11/9/1 12/10/1 9/11/1
f 13/12/2 10/13/2 9/14/2
f 1/15/3 12/16/3 11/17/3
f 17/18/1 18/19/1 16/20/1
f 17/21/3 19/22/3 20/23/3
f 9/11/1 10/24/1 11/9/1
f 9/14/2 14/25/2 13/12/2
f 11/17/3 2/26/3 1/15/3
f 7/27/2 15/28/2 16/29/2
f 16/29/2 8/30/2 7/27/2
f 16/20/1 15/31/1 17/18/1
f 20/23/3 18/32/3 17/21/3
usemtl road
f 20/33/1 19/34/1 13/35/1
f 13/35/1 14/36/1 20/33/1
