# Blender v2.83.10 OBJ File: ''
# www.blender.org
mtllib building-house3.mtl
o house-small.2_Cube.008
v 1.999998 2.796422 -0.467277
v 1.899998 2.796422 -0.467277
v 1.899998 2.796422 0.096462
v 1.999998 2.796422 0.096462
v -0.871708 1.000861 1.899999
v -0.871708 2.142022 1.899999
v -2.227673 2.142022 1.900001
v -2.227673 1.000861 1.900001
v 2.125000 4.045906 -0.466719
v 2.125000 4.157720 -0.466719
v 2.125000 2.520598 2.154793
v 2.125000 2.438596 2.099092
v 2.124998 2.438596 -3.100624
v 2.124998 2.520599 -3.156327
v -2.724997 2.438596 2.099093
v -2.724997 2.520598 2.154798
v -2.724998 4.157720 -0.466719
v -2.724998 4.045906 -0.466719
v -2.725000 2.520599 -3.156325
v -2.725000 2.438596 -3.100622
v -2.227673 2.142022 2.000000
v -0.871708 2.142022 1.999999
v -0.499998 2.500001 1.999998
v -2.599997 2.500001 2.000000
v -0.871708 1.000861 1.999999
v -2.227673 1.000861 2.000000
v 1.999998 1.000002 -2.000001
v 3.999996 1.000002 -4.000000
v 1.999998 1.000002 -3.000000
v 4.000002 1.000001 3.999995
v 4.000000 0.000001 3.999996
v 3.999996 0.000002 -4.000000
v 0.300003 2.143448 1.999998
v 0.300003 2.143448 1.899999
v 0.300003 1.100002 1.899998
v 0.300003 1.100002 1.999998
v 3.999998 -0.999999 3.999997
v 3.999996 -0.999998 -3.999999
v -0.299997 1.100001 1.999998
v -0.299997 1.100001 1.899999
v -0.299997 2.143448 1.899999
v -0.299997 2.143448 1.999998
v 0.375002 0.000001 3.999997
v 0.000185 -0.999999 3.999998
v -0.374998 1.000001 1.999998
v -0.374996 1.000001 3.999998
v 1.999998 3.528740 -0.467277
v 1.899998 3.528740 -0.467277
v 0.375004 1.000001 3.999997
v 2.000000 1.000001 1.999997
v 0.375002 1.000001 1.999998
v -2.599997 1.000001 2.000000
v 1.592625 1.410861 1.999997
v 2.000000 2.500001 1.999997
v 1.592625 2.143448 1.999997
v 0.606764 1.410861 1.999998
v 0.606764 1.410861 1.899998
v 0.606764 2.143448 1.899998
v 0.606764 2.143448 1.999998
v 1.592625 2.143448 1.899998
v 1.592625 1.410861 1.899998
v -2.409657 1.411132 -2.999998
v -2.409657 1.411132 -2.899998
v -1.318132 1.411132 -2.899999
v -1.318132 1.411132 -2.999999
v -2.409657 2.143449 -2.999998
v -2.409657 2.143449 -2.899998
v 1.999998 1.411131 1.207835
v 1.999998 2.143448 1.207836
v 1.999998 1.411132 -2.781871
v 1.999998 1.411132 -2.218130
v 1.999998 2.143449 -2.218130
v 1.999998 2.500002 -3.000000
v 1.999998 2.143449 -2.781871
v -1.318132 2.143449 -2.899999
v -1.318132 2.143449 -2.999999
v 1.899998 1.411131 1.207835
v 1.899998 2.143448 1.207836
v 1.900000 2.143448 1.771576
v 1.900000 1.411131 1.771576
v 1.899998 1.411132 -2.781871
v 1.899998 2.143449 -2.781871
v 1.899998 2.143449 -2.218130
v 1.899998 1.411132 -2.218130
v 1.801868 1.000002 -3.000000
v 1.801868 2.143449 -3.000000
v 1.999998 2.143448 1.771576
v 1.999998 1.411131 1.771576
v 0.500383 1.000002 -2.899999
v 0.500383 2.143449 -2.899999
v 1.801868 2.143449 -2.900000
v 1.801868 1.000002 -2.900000
v 0.500383 2.143449 -3.000000
v 0.500383 1.000002 -3.000000
v -3.999996 1.000001 4.000001
v -3.999996 0.000001 4.000000
v -0.374632 0.000001 3.999998
v -0.374994 1.100001 2.000000
v -3.999998 1.000002 -3.999997
v -4.000000 0.000002 -3.999996
v -3.999996 -0.999999 3.999999
v -4.000000 -0.999998 -3.999996
v -0.199617 1.000002 -2.999999
v -0.199617 1.000002 -2.899999
v 0.401867 1.000002 -2.899999
v 0.401867 1.000002 -3.000000
v 1.999752 3.896832 -0.895330
v 1.999752 4.192512 -0.895330
v 1.577579 4.192512 -0.895330
v 1.577579 3.896832 -0.895330
v -2.599998 2.500002 -2.999998
v 0.524998 2.438596 -3.100624
v 0.500000 2.500002 -2.999999
v 0.375004 1.100001 2.000000
v -0.374994 1.100001 4.000000
v 0.375004 1.100001 4.000000
v 1.899998 3.528740 0.096462
v 1.999998 3.528740 0.096462
v -2.599998 3.526960 -0.196028
v -2.509998 3.526960 -0.196029
v -2.509998 2.791916 -0.196029
v -2.599998 2.791916 -0.196028
v -2.599998 1.000002 -2.999998
v -2.599998 4.045906 -0.466719
v 2.000000 4.045906 -0.466719
v -2.599998 2.791916 -0.763749
v -2.599998 3.526960 -0.763749
v -2.509998 3.526960 -0.763749
v -2.509998 2.791916 -0.763749
v 1.577579 3.648159 -1.303872
v 2.030991 4.192512 -0.865097
v 1.546339 4.192512 -0.865097
v 1.577579 4.192512 -1.303871
v 1.999750 4.192512 -1.303872
v 1.999750 3.648159 -1.303872
v 2.030991 4.337777 -0.865097
v 1.546339 4.337777 -0.865097
v 1.546339 4.192512 -1.334104
v 2.030991 4.192512 -1.334104
v 1.856386 4.337777 -1.034066
v 1.720945 4.337777 -1.034066
v 1.546339 4.337777 -1.334104
v 2.030991 4.337777 -1.334104
v 1.856386 3.660853 -1.034067
v 1.720945 3.660853 -1.034067
v 1.720945 4.337777 -1.165135
v 1.856386 4.337777 -1.165135
v 1.856386 3.660853 -1.165135
v 1.720945 3.660853 -1.165135
v -0.199617 2.143449 -2.999999
v -0.199617 2.143449 -2.899999
v 0.401867 2.143449 -2.899999
v 0.401867 2.143449 -3.000000
vt 0.927427 0.309925
vt 0.927427 0.307461
vt 0.963519 0.307461
vt 0.963519 0.309925
vt 0.111940 0.189856
vt 0.281579 0.189856
vt 0.281580 0.407490
vt 0.111940 0.407490
vt 0.446555 0.438671
vt 0.442362 0.442189
vt 0.542212 0.484048
vt 0.546405 0.480529
vt 0.391737 0.296204
vt 0.387544 0.299722
vt 0.421694 0.289012
vt 0.417501 0.292530
vt 0.441385 0.398132
vt 0.445578 0.394613
vt 0.572169 0.476856
vt 0.576362 0.473338
vt 0.903735 0.330287
vt 0.903735 0.327823
vt 0.990548 0.327823
vt 0.990548 0.330287
vt 0.809408 0.057077
vt 0.791549 0.035811
vt 0.892448 0.035811
vt 0.874559 0.057077
vt 0.906913 0.793313
vt 0.905106 0.793313
vt 0.905106 0.741506
vt 0.906913 0.741506
vt 0.762306 0.903033
vt 0.690002 0.979448
vt 0.726154 0.903033
vt 0.690002 0.597376
vt 0.690002 0.559169
vt 0.979217 0.559169
vt 0.979217 0.597376
vt 0.990548 0.354934
vt 0.990548 0.357398
vt 0.923743 0.357398
vt 0.923743 0.354934
vt 0.288518 0.521080
vt 0.288518 0.025292
vt 0.226544 0.025292
vt 0.226544 0.521080
vt 0.923743 0.354934
vt 0.923743 0.352469
vt 0.990548 0.352469
vt 0.990548 0.354934
vt 0.226544 0.296426
vt 0.164571 0.273197
vt 0.164571 0.521080
vt 0.906913 0.812291
vt 0.979217 0.812291
vt 0.990547 0.379580
vt 0.990547 0.382044
vt 0.943663 0.382045
vt 0.943663 0.379580
vt 0.979217 0.840947
vt 0.979217 0.979448
vt 0.906913 0.903033
vt 0.906913 0.840947
vt 0.922880 0.352469
vt 0.922880 0.350004
vt 0.990548 0.350004
vt 0.990548 0.352469
vt 0.892448 0.107947
vt 0.874559 0.107905
vt 0.691004 0.088188
vt 0.671431 0.107947
vt 0.671431 0.035811
vt 0.691004 0.052958
vt 0.990548 0.347540
vt 0.990548 0.350004
vt 0.922880 0.350004
vt 0.922880 0.347540
vt 0.943645 0.364792
vt 0.943645 0.362327
vt 0.990547 0.362327
vt 0.990547 0.364792
vt 0.990547 0.364792
vt 0.990547 0.367257
vt 0.943645 0.367257
vt 0.943645 0.364792
vt 0.877350 0.763869
vt 0.877350 0.802076
vt 0.746300 0.802076
vt 0.746300 0.763869
vt 0.990548 0.342610
vt 0.990548 0.345075
vt 0.920665 0.345075
vt 0.920665 0.342610
vt 0.990547 0.382045
vt 0.990547 0.384509
vt 0.943663 0.384509
vt 0.943663 0.382045
vt 0.281580 0.503855
vt 0.114105 0.503855
vt 0.114105 0.407554
vt 0.281580 0.407554
vt 0.797973 0.324505
vt 0.801174 0.324505
vt 0.801174 0.354081
vt 0.797973 0.354081
vt 0.722077 0.203596
vt 0.927451 0.183330
vt 0.722077 0.239693
vt 0.991473 0.183330
vt 0.977508 0.203596
vt 0.941416 0.203596
vt 0.829322 0.271880
vt 0.829322 0.307978
vt 0.941416 0.239693
vt 0.991473 0.257269
vt 0.977508 0.239693
vt 0.943663 0.374651
vt 0.943663 0.372186
vt 0.990547 0.372186
vt 0.990547 0.374651
vt 0.125780 0.867921
vt 0.025720 0.867887
vt 0.025694 0.944913
vt 0.125753 0.944947
vt 0.128084 0.706060
vt 0.025195 0.706060
vt 0.025195 0.785264
vt 0.128084 0.785264
vt 0.671431 0.107947
vt 0.680950 0.107947
vt 0.680950 0.162936
vt 0.671431 0.180083
vt 0.927427 0.312390
vt 0.927427 0.309925
vt 0.963519 0.309925
vt 0.963519 0.312390
vt 0.943663 0.372186
vt 0.943663 0.369721
vt 0.990547 0.369721
vt 0.990547 0.372186
vt 0.990547 0.367257
vt 0.990547 0.369721
vt 0.943663 0.369721
vt 0.943663 0.367257
vt 0.927427 0.302532
vt 0.927427 0.300067
vt 0.963519 0.300067
vt 0.963519 0.302532
vt 0.927427 0.304996
vt 0.927427 0.302532
vt 0.963519 0.302532
vt 0.963519 0.304996
vt 0.990547 0.374651
vt 0.990547 0.377115
vt 0.943663 0.377115
vt 0.943663 0.374651
vt 0.943663 0.386974
vt 0.943663 0.384509
vt 0.990547 0.384509
vt 0.990547 0.386974
vt 0.927427 0.314855
vt 0.927427 0.312390
vt 0.963519 0.312390
vt 0.963519 0.314855
vt 0.125780 0.790772
vt 0.025720 0.790738
vt 0.025693 0.867764
vt 0.125753 0.867799
vt 0.907223 0.332752
vt 0.907223 0.330287
vt 0.990548 0.330287
vt 0.990548 0.332752
vt 0.917341 0.342610
vt 0.917341 0.340146
vt 0.990548 0.340146
vt 0.990548 0.342610
vt 0.990548 0.335217
vt 0.990548 0.337681
vt 0.917341 0.337681
vt 0.917341 0.335217
vt 0.685985 0.203596
vt 0.671361 0.183330
vt 0.246510 0.869306
vt 0.246510 0.819937
vt 0.197141 0.819937
vt 0.197141 0.869306
vt 0.927430 0.359863
vt 0.927430 0.357398
vt 0.990547 0.357398
vt 0.990548 0.359863
vt 0.990548 0.359863
vt 0.927430 0.362327
vt 0.927430 0.359863
vt 0.746300 0.840283
vt 0.746300 0.802076
vt 0.877364 0.802076
vt 0.877350 0.840283
vt 0.785543 0.103138
vt 0.809408 0.107905
vt 0.785543 0.107947
vt 0.906913 0.727280
vt 0.979217 0.673790
vt 0.979217 0.635583
vt 0.690002 0.635583
vt 0.690002 0.597376
vt 0.979217 0.597376
vt 0.102597 0.025292
vt 0.040624 0.025292
vt 0.040624 0.521080
vt 0.102597 0.521080
vt 0.726154 0.818992
vt 0.727961 0.818992
vt 0.727961 0.841973
vt 0.726154 0.841973
vt 0.690002 0.673790
vt 0.690002 0.635583
vt 0.979217 0.635583
vt 0.979217 0.673790
vt 0.164571 0.521080
vt 0.164571 0.025292
vt 0.102597 0.025292
vt 0.102597 0.521080
vt 0.990547 0.386974
vt 0.990547 0.389438
vt 0.952134 0.389438
vt 0.952134 0.386974
vt 0.984749 0.180959
vt 0.920727 0.180941
vt 0.920727 0.143990
vt 0.984749 0.143990
vt 0.963519 0.314901
vt 0.963519 0.296616
vt 0.990548 0.296616
vt 0.990548 0.314901
vt 0.608090 0.265375
vt 0.613819 0.257858
vt 0.492363 0.257858
vt 0.493509 0.265375
vt 0.373199 0.257858
vt 0.378928 0.265376
vt 0.781939 0.103138
vt 0.781939 0.052958
vt 0.749507 0.103138
vt 0.749507 0.107947
vt 0.738372 0.088188
vt 0.797973 0.357778
vt 0.669928 0.357778
vt 0.669928 0.320808
vt 0.797973 0.320808
vt 0.911704 0.181873
vt 0.911704 0.053828
vt 0.916634 0.053828
vt 0.916634 0.181873
vt 0.903688 0.181891
vt 0.903688 0.053846
vt 0.908617 0.053845
vt 0.908617 0.181890
vt 0.990547 0.377115
vt 0.990547 0.379580
vt 0.943663 0.379580
vt 0.943663 0.377115
vt 0.927427 0.307461
vt 0.927427 0.304996
vt 0.963519 0.304996
vt 0.963519 0.307461
vt 0.943488 0.391410
vt 0.943488 0.389438
vt 0.990547 0.389438
vt 0.990547 0.391410
vt 0.726154 0.727280
vt 0.690002 0.673790
vt 0.125780 0.867921
vt 0.025720 0.867887
vt 0.025694 0.944913
vt 0.125753 0.944947
vt 0.608090 0.489281
vt 0.613819 0.492959
vt 0.613819 0.414653
vt 0.608090 0.414704
vt 0.793230 0.271880
vt 0.685985 0.239693
vt 0.829286 0.333470
vt 0.378928 0.414704
vt 0.373199 0.414653
vt 0.373199 0.492959
vt 0.378928 0.489281
vt 0.671361 0.257269
vt 0.793230 0.307978
vt 0.671361 0.421691
vt 0.829286 0.345489
vt 0.811956 0.371069
vt 0.671361 0.495629
vt 0.811956 0.407301
vt 0.991473 0.495629
vt 0.848303 0.407301
vt 0.848303 0.371069
vt 0.991473 0.421691
vt 0.196505 0.703810
vt 0.196505 0.776878
vt 0.252939 0.776878
vt 0.252939 0.703810
vt 0.958294 0.077545
vt 0.956322 0.077545
vt 0.956322 0.041198
vt 0.958294 0.041198
vt 0.958294 0.041198
vt 0.960266 0.041198
vt 0.960266 0.077545
vt 0.958294 0.077545
vt 0.943488 0.393382
vt 0.943488 0.391410
vt 0.990547 0.391410
vt 0.990547 0.393382
vt 0.396196 0.048181
vt 0.373199 0.022666
vt 0.373199 0.179461
vt 0.396196 0.153946
vt 0.738372 0.052958
vt 0.753111 0.052958
vt 0.922727 0.061275
vt 0.920727 0.059785
vt 0.951755 0.059785
vt 0.949755 0.061275
vt 0.960396 0.143990
vt 0.920727 0.143990
vt 0.920727 0.123180
vt 0.960396 0.123180
vt 0.920727 0.103042
vt 0.960396 0.103042
vt 0.960396 0.123180
vt 0.936647 0.123180
vt 0.944476 0.103042
vt 0.920727 0.103042
vt 0.920727 0.082904
vt 0.960396 0.082904
vt 0.942176 0.318352
vt 0.942176 0.314901
vt 0.973205 0.314901
vt 0.973205 0.318352
vt 0.949755 0.081413
vt 0.951755 0.082904
vt 0.920727 0.082904
vt 0.922727 0.081413
vt 0.951755 0.036667
vt 0.944912 0.041765
vt 0.927570 0.041765
vt 0.920727 0.036667
vt 0.942176 0.321802
vt 0.942176 0.318352
vt 0.973205 0.318352
vt 0.973205 0.321802
vt 0.963519 0.296616
vt 0.963519 0.300067
vt 0.933492 0.300067
vt 0.933492 0.296616
vt 0.973205 0.321802
vt 0.973205 0.325253
vt 0.943178 0.325253
vt 0.943178 0.321802
vt 0.990092 0.096861
vt 0.990092 0.140200
vt 0.976740 0.140200
vt 0.976740 0.096861
vt 0.920727 0.059785
vt 0.927570 0.054687
vt 0.944912 0.054687
vt 0.951755 0.059785
vt 0.990547 0.327823
vt 0.973205 0.327823
vt 0.973205 0.314901
vt 0.990548 0.314901
vt 0.976740 0.096861
vt 0.976740 0.140200
vt 0.963387 0.140200
vt 0.963387 0.096861
vt 0.990548 0.296616
vt 0.947209 0.296616
vt 0.947209 0.283695
vt 0.990548 0.283695
vt 0.990331 0.051094
vt 0.990331 0.094433
vt 0.977410 0.094433
vt 0.977410 0.051094
vt 0.991152 0.143990
vt 0.991152 0.180959
vt 0.226544 0.249969
vt 0.226544 0.025292
vt 0.164571 0.025292
vt 0.726154 0.895463
vt 0.726154 0.845737
vt 0.727961 0.845737
vt 0.727961 0.895463
vt 0.920665 0.347540
vt 0.920665 0.345075
vt 0.990548 0.345075
vt 0.990548 0.347540
vt 0.125780 0.790772
vt 0.025720 0.790738
vt 0.025693 0.867764
vt 0.125753 0.867799
vt 0.990548 0.332752
vt 0.990548 0.335217
vt 0.917341 0.335217
vt 0.917341 0.332752
vt 0.917341 0.340146
vt 0.917341 0.337681
vt 0.990548 0.337681
vt 0.990548 0.340146
vt 0.934696 0.327823
vt 0.934696 0.325358
vt 0.973205 0.325358
vt 0.973205 0.327823
vt 0.125780 0.790772
vt 0.025720 0.790738
vt 0.025693 0.867764
vt 0.125753 0.867799
vt 0.748216 0.162936
vt 0.743483 0.162936
vt 0.743483 0.107947
vt 0.748216 0.107947
vt 0.830858 0.162936
vt 0.777116 0.162936
vt 0.777116 0.107947
vt 0.830858 0.127718
vt 0.892448 0.180083
vt 0.883302 0.162936
vt 0.883302 0.127718
vt 0.892448 0.107947
vt 0.743501 0.180083
vt 0.513847 0.359454
vt 0.433456 0.271322
vt 0.429585 0.275192
vt 0.599729 0.445336
vt 0.603600 0.441466
vt 0.517717 0.355583
vt 0.493509 0.489281
vt 0.492363 0.492959
vt 0.753111 0.103138
vt 0.511597 0.364945
vt 0.515468 0.361074
vt 0.429585 0.275192
vt 0.425715 0.279062
vt 0.373199 0.257858
vt 0.494655 0.257858
vt 0.494655 0.179461
vt 0.471658 0.153946
vt 0.494655 0.022666
vt 0.471658 0.048181
vn 0.0000 1.0000 0.0000
vn 0.0000 -0.0000 1.0000
vn 1.0000 0.0000 -0.0000
vn -1.0000 -0.0000 0.0000
vn 0.0000 -1.0000 0.0000
vn 0.0005 1.0000 0.0002
vn -0.0014 1.0000 -0.0010
vn 0.0017 1.0000 0.0000
vn 0.0012 1.0000 0.0001
vn 0.0000 0.0000 -1.0000
vn -0.0011 1.0000 -0.0007
vn -0.0014 1.0000 -0.0009
vn 0.0000 -0.8536 0.5209
vn -0.0011 -0.8487 -0.5288
vn -0.0001 -0.8500 -0.5268
vn -0.0023 -0.8474 -0.5310
vn 0.0023 -0.8474 -0.5310
vn -0.0000 0.8542 -0.5199
vn -0.0000 -0.5619 -0.8272
vn -0.0000 -0.8500 -0.5267
vn 0.0000 -0.5619 0.8272
vn 0.0000 0.8482 0.5297
usemtl basecolors.006
s 1
f 1/1/1 2/2/1 3/3/1 4/4/1
f 5/5/2 6/6/2 7/7/2 8/8/2
f 9/9/3 10/10/3 11/11/3 12/12/3
f 13/13/3 14/14/3 10/10/3 9/9/3
f 15/15/4 16/16/4 17/17/4 18/18/4
f 18/18/4 17/17/4 19/19/4 20/20/4
f 21/21/5 7/22/5 6/23/5 22/24/5
f 22/25/2 23/26/2 24/27/2 21/28/2
f 25/29/6 5/30/1 8/31/1 26/32/7
f 27/33/1 28/34/1 29/35/1
f 30/36/3 31/37/3 32/38/3 28/39/3
f 33/40/4 34/41/4 35/42/4 36/43/4
f 37/44/3 38/45/3 32/46/3 31/47/3
f 39/48/3 40/49/3 41/50/3 42/51/3
f 31/47/2 43/52/2 44/53/2 37/54/2
f 45/55/8 25/29/6 46/56/9
f 47/57/2 48/58/2 2/59/2 1/60/2
f 49/61/1 30/62/1 50/63/1 51/64/1
f 26/65/3 8/66/3 7/67/3 21/68/3
f 21/28/2 24/27/2 52/69/2 26/70/2
f 53/71/2 50/72/2 54/73/2 55/74/2
f 22/75/4 6/76/4 5/77/4 25/78/4
f 56/79/3 57/80/3 58/81/3 59/82/3
f 55/83/4 60/84/4 61/85/4 53/86/4
f 49/87/2 43/88/2 31/89/2 30/90/2
f 62/91/1 63/92/1 64/93/1 65/94/1
f 66/95/3 67/96/3 63/97/3 62/98/3
f 35/99/2 34/100/2 41/101/2 40/102/2
f 36/103/1 35/104/1 40/105/1 39/106/1
f 68/107/3 27/108/3 69/109/3
f 29/110/3 70/111/3 71/112/3 27/108/3
f 1/113/3 69/109/3 27/108/3 71/112/3
f 47/114/3 1/113/3 71/112/3 72/115/3
f 73/116/3 74/117/3 70/111/3 29/110/3
f 65/118/4 64/119/4 75/120/4 76/121/4
f 77/122/3 78/123/3 79/124/3 80/125/3
f 81/126/3 82/127/3 83/128/3 84/129/3
f 29/130/10 85/131/10 86/132/10 73/133/10
f 72/134/5 83/135/5 82/136/5 74/137/5
f 71/138/10 84/139/10 83/140/10 72/141/10
f 74/142/2 82/143/2 81/144/2 70/145/2
f 70/146/1 81/147/1 84/148/1 71/149/1
f 87/150/5 79/151/5 78/152/5 69/153/5
f 88/154/10 80/155/10 79/156/10 87/157/10
f 69/158/2 78/159/2 77/160/2 68/161/2
f 68/162/1 77/163/1 80/164/1 88/165/1
f 89/166/10 90/167/10 91/168/10 92/169/10
f 86/170/5 91/171/5 90/172/5 93/173/5
f 85/174/4 92/175/4 91/176/4 86/177/4
f 93/178/3 90/179/3 89/180/3 94/181/3
f 27/108/3 68/107/3 88/182/3 50/183/3
f 61/184/2 60/185/2 58/186/2 57/187/2
f 53/188/1 61/189/1 57/190/1 56/191/1
f 59/192/5 58/81/5 60/193/5 55/194/5
f 95/195/2 96/196/2 97/197/2 46/198/2
f 98/199/2 25/200/2 45/201/2
f 52/202/11 95/203/12 26/32/7
f 50/63/1 30/62/1 28/34/1
f 95/204/4 99/205/4 100/206/4 96/207/4
f 101/208/4 96/209/4 100/210/4 102/211/4
f 50/63/1 28/34/1 27/33/1
f 103/212/1 104/213/1 105/214/1 106/215/1
f 28/216/10 32/217/10 100/218/10 99/219/10
f 38/220/10 102/221/10 100/222/10 32/223/10
f 42/224/5 41/225/5 34/226/5 33/227/5
f 46/228/2 97/229/2 43/230/2 49/231/2
f 107/232/2 108/233/2 109/234/2 110/235/2
f 111/236/13 20/237/13 112/238/13 113/239/13
f 113/239/13 112/238/13 13/240/13 73/241/13
f 39/242/2 42/243/2 23/26/2 98/199/2
f 23/26/2 22/25/2 25/200/2 98/199/2
f 50/72/2 53/71/2 114/244/2 51/245/2
f 56/246/2 114/244/2 53/71/2
f 98/247/1 115/248/1 39/106/1
f 36/103/1 116/249/1 114/250/1
f 39/106/1 115/248/1 116/249/1 36/103/1
f 114/251/3 116/252/3 49/253/3 51/254/3
f 45/255/4 46/256/4 115/257/4 98/258/4
f 4/259/10 3/260/10 117/261/10 118/262/10
f 118/263/5 117/264/5 48/265/5 47/266/5
f 119/267/10 120/268/10 121/269/10 122/270/10
f 95/203/12 52/202/11 123/271/1 99/272/1
f 2/273/3 48/274/3 117/275/3 3/276/3
f 24/277/14 15/278/15 18/279/16 124/280/16
f 124/280/13 18/279/13 20/237/13 111/236/13
f 69/109/3 1/113/3 4/281/3 87/282/3
f 72/115/3 74/117/3 125/283/3 47/114/3
f 125/284/17 9/285/17 12/286/17 54/287/17
f 73/241/13 13/240/13 9/285/13 125/284/13
f 73/116/3 125/283/3 74/117/3
f 88/182/3 87/282/3 54/288/3 50/183/3
f 87/282/3 4/281/3 54/288/3
f 4/281/3 118/289/3 54/288/3
f 54/288/3 118/289/3 125/283/3
f 118/289/3 47/114/3 125/283/3
f 24/290/4 124/291/4 119/292/4
f 52/293/4 24/290/4 119/292/4 122/294/4
f 123/295/4 52/293/4 122/294/4 126/296/4
f 123/295/4 126/296/4 127/297/4 111/298/4
f 119/292/4 124/291/4 127/297/4
f 124/291/4 111/298/4 127/297/4
f 121/299/4 120/300/4 128/301/4 129/302/4
f 122/303/1 121/304/1 129/305/1 126/306/1
f 127/307/5 128/308/5 120/309/5 119/310/5
f 126/311/2 129/312/2 128/313/2 127/314/2
f 130/315/18 19/316/18 17/317/18 110/318/18
f 56/246/2 59/319/2 33/320/2
f 108/321/5 131/322/5 132/323/5 109/324/5
f 130/325/10 133/326/10 134/327/10 135/328/10
f 135/329/3 134/330/3 108/331/3 107/332/3
f 110/333/4 109/334/4 133/335/4 130/336/4
f 131/337/2 136/338/2 137/339/2 132/340/2
f 133/341/5 138/342/5 139/343/5 134/344/5
f 134/344/5 139/343/5 131/322/5 108/321/5
f 109/324/5 132/323/5 138/342/5 133/341/5
f 136/345/1 140/346/1 141/347/1 137/348/1
f 138/349/10 142/350/10 143/351/10 139/352/10
f 139/353/3 143/354/3 136/355/3 131/356/3
f 132/357/4 137/358/4 142/359/4 138/360/4
f 140/361/10 144/362/10 145/363/10 141/364/10
f 142/365/1 146/366/1 147/367/1 143/368/1
f 143/368/1 147/367/1 140/346/1 136/345/1
f 137/348/1 141/347/1 146/366/1 142/365/1
f 145/369/1 144/370/1 148/371/1 149/372/1
f 146/373/2 149/374/2 148/375/2 147/376/2
f 147/377/4 148/378/4 144/379/4 140/380/4
f 141/381/3 145/382/3 149/383/3 146/384/3
f 46/228/2 49/231/2 116/385/2 115/386/2
f 43/52/2 97/387/2 44/53/2
f 97/387/2 96/388/2 101/389/2 44/53/2
f 28/34/1 85/390/1 29/35/1
f 26/32/7 95/203/12 46/56/9 25/29/6
f 94/391/1 89/392/1 92/393/1 85/390/1
f 76/394/5 75/395/5 67/396/5 66/397/5
f 63/398/10 67/399/10 75/400/10 64/401/10
f 150/402/3 151/403/3 104/404/3 103/405/3
f 106/406/4 105/407/4 152/408/4 153/409/4
f 153/410/5 152/411/5 151/412/5 150/413/5
f 104/414/10 151/415/10 152/416/10 105/417/10
f 153/418/10 93/419/10 94/420/10 106/421/10
f 85/390/1 28/34/1 94/391/1
f 76/422/10 150/423/10 103/424/10 65/425/10
f 111/426/10 66/427/10 62/428/10 123/429/10
f 62/428/10 65/425/10 103/424/10 123/429/10
f 123/271/1 103/212/1 99/272/1
f 28/34/1 99/272/1 103/212/1 106/215/1
f 28/34/1 106/215/1 94/391/1
f 153/418/10 113/430/10 93/419/10
f 93/419/10 113/430/10 73/133/10 86/132/10
f 153/418/10 150/423/10 113/430/10
f 66/427/10 111/426/10 76/422/10
f 113/430/10 150/423/10 76/422/10 111/426/10
f 33/320/2 54/73/2 23/26/2 42/243/2
f 55/74/2 54/73/2 59/319/2
f 112/431/19 14/432/19 13/433/19
f 20/434/19 19/435/19 14/436/19 112/431/19
f 54/437/20 12/438/20 15/278/15 24/277/14
f 33/320/2 59/319/2 54/73/2
f 36/439/2 114/244/2 56/246/2 33/320/2
f 12/440/21 11/441/21 16/442/21 15/443/21
f 16/444/22 11/445/22 10/446/22 17/317/22
f 107/447/18 10/446/18 14/448/18 135/449/18
f 135/449/18 14/448/18 19/316/18 130/315/18
f 110/318/18 17/317/18 10/446/18 107/447/18
