# Blender v2.83.10 OBJ File: ''
# www.blender.org
mtllib building-gasstationV3.mtl
o gas-station_Cube.047
v 2.999997 -0.999999 4.000000
v 3.999996 -0.999999 4.000000
v 3.999997 0.000001 4.000000
v 2.999997 0.000001 3.999999
v -1.999996 1.100003 -4.000000
v -1.999996 1.000002 -4.000000
v -2.999996 1.000002 -4.000000
v -2.999996 1.100003 -4.000000
v 3.000000 -0.999998 -3.999997
v 3.000000 0.000002 -3.999997
v 4.000000 0.000002 -3.999996
v 3.999999 -0.999998 -3.999997
v 1.999998 1.100001 3.999998
v 1.999998 1.000001 3.999998
v 2.999998 1.000001 3.999998
v 2.999998 1.100001 3.999998
v -3.000001 1.000001 3.999996
v -2.000001 1.000001 3.999996
v -2.000001 1.100001 3.999996
v -3.000001 1.100001 3.999996
v 2.000002 1.000002 -3.999997
v 2.000002 1.100003 -3.999997
v 3.000001 1.100003 -3.999996
v 3.000001 1.000002 -3.999996
v -3.999998 -0.999999 3.999997
v -2.999999 -0.999999 3.999998
v -3.000000 0.000001 3.999997
v -4.000000 0.000001 3.999996
v -2.000000 -0.999999 3.999998
v -2.000000 0.000001 3.999997
v -3.999998 -0.999998 -3.999998
v -3.999996 0.000002 -4.000000
v -2.999996 0.000002 -3.999999
v -2.999998 -0.999998 -3.999998
v -1.999997 0.000002 -3.999999
v -1.999998 -0.999998 -3.999998
v 4.000000 1.000002 -3.999996
v 3.999997 1.000001 3.999999
v -4.000001 1.000001 3.999995
v -3.999995 1.000002 -4.000001
v -0.000001 -0.999999 3.999999
v 1.999997 -0.999999 4.000000
v 1.999997 0.000001 3.999999
v -0.000002 0.000001 3.999998
v 0.000001 -0.999998 -3.999998
v 0.000002 0.000002 -3.999998
v 2.000001 0.000002 -3.999997
v 2.000000 -0.999998 -3.999997
v -0.000002 1.000001 3.999997
v 0.000003 1.000002 -3.999999
v -0.299999 1.100000 -0.749998
v -0.299998 1.100000 -2.700001
v -0.299998 0.999953 -2.700001
v -0.299999 0.999953 -0.749998
v -0.000002 1.099999 2.999999
v -0.300002 1.099999 2.699999
v -0.300002 0.999952 2.699999
v -0.000002 0.999952 2.999999
v 0.299999 1.099999 0.749997
v 0.299998 1.099999 2.699999
v 0.299998 0.999952 2.699999
v 0.299999 0.999952 0.749997
v 0.000002 1.100000 -3.000001
v 0.300002 1.100000 -2.700001
v 0.300002 0.999953 -2.700001
v 0.000002 0.999953 -3.000001
v -0.000002 3.063276 3.000000
v 0.000002 3.063277 -3.000000
v -2.351997 3.455278 -3.000002
v -2.352002 3.455277 2.999998
v -0.980000 2.956669 -1.799920
v -0.699999 2.910003 -1.799920
v -0.700002 2.910002 1.799918
v -0.980003 2.956668 1.799917
v 2.351997 3.455277 3.000001
v 2.399998 3.193335 3.000001
v 2.400002 3.193336 -2.999999
v 2.352002 3.455278 -2.999999
v -0.000002 2.793335 3.000000
v -2.399998 3.193336 -3.000002
v -2.400002 3.193335 2.999998
v 0.000002 2.793336 -3.000000
v 0.699999 2.910002 2.200081
v 0.980000 2.956668 2.200081
v 0.100001 1.499896 -1.050001
v 0.100001 1.499896 -0.749999
v 0.100001 1.100000 -0.749999
v 0.100002 1.100000 -1.250003
v 0.000002 2.389893 -2.200083
v -0.699998 2.910003 -2.200082
v 0.000001 2.389893 -1.799919
v 0.200003 1.100000 -2.200083
v 0.200003 2.179893 -2.200083
v 0.200003 2.179893 -1.799919
v 0.200003 1.100000 -1.799919
v -0.100000 1.499896 -0.749999
v -0.100000 1.499896 -1.050001
v -0.100000 1.100000 -0.749999
v -0.200000 1.100000 -1.799919
v -0.200000 2.179893 -1.799919
v -0.200000 2.179893 -2.200083
v -0.200000 1.100000 -2.200083
v 0.200000 2.179893 1.799918
v -0.200003 2.179893 1.799918
v -0.000001 2.389892 1.799918
v -0.100000 1.100000 -1.250003
v 0.100000 1.499895 1.250001
v -0.100002 1.499895 1.250001
v -0.100002 1.099999 1.250001
v 0.100000 1.099999 1.250001
v 0.100000 1.499895 0.949999
v -0.100001 1.499895 0.949999
v 0.100000 1.099999 0.749997
v -0.100001 1.099999 0.749997
v 0.700002 2.910003 -1.799919
v 0.700002 2.910003 -2.200082
v 0.200000 2.179892 2.200081
v -0.000002 2.389892 2.200080
v -0.200003 2.179892 2.200080
v 0.980003 2.956669 -2.200081
v 0.980003 2.956669 -1.799918
v -0.980000 2.956669 -2.200083
v -0.700002 2.910002 2.200080
v 0.200000 1.099999 1.799917
v 0.200000 1.099999 2.200081
v -0.200003 1.099999 2.200080
v -0.200003 1.099999 1.799917
v 0.699999 2.910002 1.799918
v 0.980000 2.956668 1.799919
v -0.980003 2.956668 2.200080
v 0.300000 0.999953 -0.749998
v -0.300000 0.999952 0.749997
v -0.300000 1.099999 0.749997
v 0.300000 1.100000 -0.749998
v -0.100000 1.799674 -1.250003
v 0.100002 1.799674 -1.250003
v -0.100001 1.799673 0.749997
v 0.100000 1.799673 0.749997
v 0.100001 1.799896 -1.050001
v -0.100000 1.799896 -1.050001
v 0.100000 1.799896 0.949999
v -0.100001 1.799896 0.949999
v -0.100000 1.999896 -0.749999
v 0.100001 1.999896 -0.749999
v 0.100002 1.999896 -1.250003
v -0.100000 1.999896 -1.250003
v -0.100000 1.799896 -0.749999
v 0.100001 1.799896 -0.749999
v -0.100002 1.799896 1.250001
v 0.100000 1.799896 1.250001
v 0.100000 1.999895 1.250001
v -0.100002 1.999895 1.250001
v 0.100000 1.999895 0.749997
v -0.100001 1.999895 0.749997
v 0.000000 3.063282 -0.000000
v -2.351999 3.455277 -0.000002
v -0.980001 2.956669 -0.000001
v -0.700001 2.910003 -0.000001
v 2.351999 3.455277 0.000002
v 2.400000 3.193336 0.000001
v -2.400000 3.193336 -0.000002
v 0.000000 2.793336 -0.000000
v 0.980001 2.956669 0.000000
v 0.700001 2.910003 -0.000000
vt 0.167602 0.070614
vt 0.167601 0.007235
vt 0.230981 0.007235
vt 0.230981 0.070614
vt 0.913108 0.407939
vt 0.919434 0.407939
vt 0.919434 0.478673
vt 0.913109 0.478673
vt 0.230981 0.450889
vt 0.294360 0.450889
vt 0.294360 0.514268
vt 0.230981 0.514268
vt 0.770391 0.478730
vt 0.764065 0.478730
vt 0.764065 0.407996
vt 0.770391 0.407996
vt 0.833651 0.478730
vt 0.833651 0.407996
vt 0.839977 0.407996
vt 0.839977 0.478730
vt 0.849570 0.478758
vt 0.843244 0.478758
vt 0.843244 0.408024
vt 0.849570 0.408024
vt 0.167601 0.514268
vt 0.167602 0.450889
vt 0.230981 0.450889
vt 0.230981 0.514268
vt 0.167602 0.387510
vt 0.230981 0.387510
vt 0.230981 0.007235
vt 0.294360 0.007235
vt 0.294360 0.070614
vt 0.230981 0.070614
vt 0.294360 0.133993
vt 0.230981 0.133993
vt 0.967892 0.709376
vt 0.967892 0.764742
vt 0.914741 0.764742
vt 0.914741 0.709376
vt 0.967892 0.654010
vt 0.914741 0.654010
vt 0.914741 0.598644
vt 0.967892 0.598644
vt 0.914741 0.598644
vt 0.914741 0.543278
vt 0.967892 0.543278
vt 0.967892 0.598644
vt 0.770391 0.478730
vt 0.770391 0.407996
vt 0.967892 0.654010
vt 0.967892 0.709376
vt 0.914741 0.709376
vt 0.914741 0.654010
vt 0.982695 0.407939
vt 0.982695 0.478673
vt 0.167602 0.260752
vt 0.167602 0.133993
vt 0.230981 0.133993
vt 0.230981 0.260752
vt 0.230981 0.260752
vt 0.294360 0.260752
vt 0.294360 0.387510
vt 0.230981 0.387510
vt 0.655419 0.140777
vt 0.592848 0.140777
vt 0.592848 0.046920
vt 0.655419 0.046920
vt 0.700805 0.478730
vt 0.700805 0.407996
vt 0.592655 0.328490
vt 0.592655 0.234633
vt 0.655226 0.234633
vt 0.655226 0.328490
vt 0.912830 0.408024
vt 0.912830 0.478758
vt 0.693482 0.152066
vt 0.693482 0.048035
vt 0.697693 0.048035
vt 0.697693 0.152066
vt 0.849663 0.384081
vt 0.849663 0.365103
vt 0.856740 0.365103
vt 0.856740 0.384081
vt 0.679095 0.152423
vt 0.679095 0.048392
vt 0.685063 0.048392
vt 0.685063 0.152423
vt 0.679095 0.352482
vt 0.679095 0.336477
vt 0.685063 0.336477
vt 0.685063 0.352482
vt 0.158736 0.163840
vt 0.291516 0.163840
vt 0.291516 0.279290
vt 0.158736 0.279290
vt 0.158737 0.445200
vt 0.158737 0.431456
vt 0.238401 0.431456
vt 0.238401 0.445200
vt 0.158736 0.019614
vt 0.158736 0.032686
vt 0.025957 0.032686
vt 0.025957 0.019614
vt 0.314125 0.390626
vt 0.326590 0.390626
vt 0.308119 0.514139
vt 0.296022 0.511669
vt 0.158736 0.045757
vt 0.158736 0.032686
vt 0.291516 0.032686
vt 0.291516 0.045757
vt 0.314124 0.143600
vt 0.326590 0.143600
vt 0.308118 0.267113
vt 0.296022 0.264643
vt 0.467706 0.422346
vt 0.467706 0.375418
vt 0.486477 0.361340
vt 0.592848 0.422346
vt 0.467706 0.046920
vt 0.467706 0.093848
vt 0.448935 0.107927
vt 0.342564 0.046920
vt 0.655419 0.234633
vt 0.592848 0.234633
vt 0.592655 0.422346
vt 0.655226 0.422346
vt 0.849663 0.403059
vt 0.856740 0.403059
vt 0.847025 0.383445
vt 0.847025 0.402423
vt 0.839948 0.402423
vt 0.839948 0.383445
vt 0.342564 0.422346
vt 0.448935 0.361340
vt 0.592848 0.046920
vt 0.486477 0.107927
vt 0.158736 0.048390
vt 0.291516 0.048390
vt 0.291516 0.279290
vt 0.291516 0.397096
vt 0.256112 0.362735
vt 0.256112 0.348991
vt 0.296022 0.269583
vt 0.308118 0.267113
vt 0.296022 0.022557
vt 0.308118 0.020087
vt 0.419979 0.648664
vt 0.419979 0.587609
vt 0.489350 0.587609
vt 0.489350 0.689367
vt 0.872937 0.292338
vt 0.899506 0.292338
vt 0.899506 0.309321
vt 0.872937 0.309321
vt 0.805144 0.049187
vt 0.871274 0.049187
vt 0.871274 0.076587
vt 0.805144 0.076587
vt 0.367938 0.913235
vt 0.367938 0.872532
vt 0.419979 0.872532
vt 0.419979 0.913235
vt 0.489350 0.872532
vt 0.489350 0.913235
vt 0.419979 0.913235
vt 0.419979 0.872532
vt 0.919123 0.105202
vt 0.872459 0.105202
vt 0.872459 0.077802
vt 0.919123 0.077802
vt 0.859507 0.193603
vt 0.859507 0.218908
vt 0.844652 0.206255
vt 0.558720 0.689367
vt 0.558720 0.750422
vt 0.489350 0.791125
vt 0.489350 0.689367
vt 0.419979 0.872532
vt 0.419979 0.831829
vt 0.489350 0.831829
vt 0.489350 0.872532
vt 0.367938 0.872532
vt 0.367938 0.831829
vt 0.419979 0.831829
vt 0.419979 0.872532
vt 0.558720 0.831829
vt 0.558720 0.892883
vt 0.489350 0.892883
vt 0.489350 0.791125
vt 0.558720 0.587609
vt 0.558720 0.648664
vt 0.489350 0.689367
vt 0.489350 0.587609
vt 0.846368 0.309321
vt 0.846368 0.292338
vt 0.899781 0.263229
vt 0.914635 0.275881
vt 0.899781 0.288533
vt 0.844652 0.340475
vt 0.807863 0.296193
vt 0.804562 0.278480
vt 0.859507 0.327823
vt 0.899781 0.129454
vt 0.954726 0.080111
vt 0.951425 0.097824
vt 0.914635 0.142106
vt 0.918843 0.049187
vt 0.918843 0.076587
vt 0.859507 0.353127
vt 0.804562 0.402470
vt 0.807863 0.384757
vt 0.951425 0.186388
vt 0.954726 0.204101
vt 0.899781 0.154758
vt 0.805048 0.105202
vt 0.805048 0.077802
vt 0.876963 0.247704
vt 0.850394 0.247704
vt 0.850394 0.230721
vt 0.876963 0.230721
vt 0.859559 0.382096
vt 0.907379 0.382096
vt 0.907379 0.401909
vt 0.859559 0.401909
vt 0.942049 0.382096
vt 0.908305 0.382096
vt 0.908305 0.362282
vt 0.942049 0.362282
vt 0.903533 0.230721
vt 0.903533 0.247704
vt 0.807863 0.161973
vt 0.804562 0.144261
vt 0.954726 0.213886
vt 0.951425 0.231599
vt 0.941776 0.382096
vt 0.941776 0.401909
vt 0.804562 0.268250
vt 0.807863 0.250538
vt 0.951425 0.320163
vt 0.954726 0.337876
vt 0.859559 0.382096
vt 0.859559 0.362282
vt 0.291516 0.514901
vt 0.256112 0.445200
vt 0.256112 0.431456
vt 0.025957 0.514901
vt 0.025957 0.397096
vt 0.061361 0.431456
vt 0.061361 0.445200
vt 0.079073 0.445200
vt 0.158736 0.514901
vt 0.079073 0.431456
vt 0.158736 0.397096
vt 0.025957 0.279290
vt 0.061361 0.348991
vt 0.061361 0.362735
vt 0.158737 0.348991
vt 0.238401 0.348991
vt 0.238401 0.362735
vt 0.158737 0.362735
vt 0.079073 0.348991
vt 0.158736 0.279290
vt 0.079073 0.362735
vt 0.823396 0.288533
vt 0.823396 0.263229
vt 0.962785 0.351256
vt 0.989156 0.351256
vt 0.995749 0.380732
vt 0.956192 0.380732
vt 0.823396 0.129454
vt 0.823396 0.154758
vt 0.969378 0.147835
vt 0.962785 0.115411
vt 0.989156 0.115411
vt 0.982563 0.147835
vt 0.982563 0.177316
vt 0.982563 0.265757
vt 0.969378 0.265757
vt 0.969378 0.177316
vt 0.935892 0.327823
vt 0.935892 0.353127
vt 0.989156 0.091817
vt 0.962785 0.091817
vt 0.956193 0.062342
vt 0.995749 0.062342
vt 0.969378 0.295238
vt 0.982563 0.295238
vt 0.989156 0.327662
vt 0.962785 0.327662
vt 0.935892 0.218908
vt 0.935892 0.193603
vt 0.975971 0.398420
vt 0.975971 0.044653
vt 0.689272 0.301800
vt 0.685063 0.301800
vt 0.685063 0.221776
vt 0.689272 0.221776
vt 0.592848 0.269829
vt 0.486477 0.269829
vt 0.486477 0.199437
vt 0.592848 0.199437
vt 0.673130 0.301800
vt 0.673130 0.221776
vt 0.679095 0.221776
vt 0.679095 0.301800
vt 0.167601 0.289800
vt 0.104222 0.289800
vt 0.104222 0.287159
vt 0.167601 0.287159
vt 0.800317 0.192185
vt 0.800317 0.258608
vt 0.750803 0.258608
vt 0.750803 0.192185
vt 0.808438 0.790118
vt 0.808438 0.787811
vt 0.861589 0.787811
vt 0.861589 0.790118
vt 0.861589 0.741673
vt 0.861589 0.739366
vt 0.914741 0.739366
vt 0.914741 0.741673
vt 0.342564 0.199437
vt 0.448935 0.199437
vt 0.448935 0.269829
vt 0.342564 0.269829
vt 0.693482 0.336120
vt 0.693482 0.232089
vt 0.697693 0.232089
vt 0.697693 0.336120
vt 0.702135 0.741673
vt 0.702135 0.739366
vt 0.755286 0.739366
vt 0.755286 0.741673
vt 0.689272 0.221776
vt 0.693482 0.221776
vt 0.693482 0.301800
vt 0.689272 0.301800
vt 0.040843 0.231703
vt 0.104222 0.231703
vt 0.104222 0.234343
vt 0.040843 0.234343
vt 0.667165 0.221776
vt 0.673130 0.221776
vt 0.673130 0.301800
vt 0.667165 0.301800
vt 0.750803 0.192185
vt 0.750803 0.258608
vt 0.701289 0.258608
vt 0.701289 0.192185
vt 0.808438 0.741673
vt 0.755286 0.741673
vt 0.755286 0.739366
vt 0.808438 0.739366
vt 0.679095 0.232446
vt 0.685063 0.232446
vt 0.995749 0.177316
vt 0.995749 0.265757
vt 0.956193 0.265757
vt 0.956193 0.177316
vt 0.489350 0.730071
vt 0.411297 0.730071
vt 0.411297 0.689367
vt 0.645456 0.892883
vt 0.645456 0.933586
vt 0.567403 0.933586
vt 0.567403 0.892883
vt 0.393959 0.648664
vt 0.584741 0.750422
vt 0.567403 0.791125
vt 0.437308 0.953938
vt 0.411288 0.953938
vt 0.411288 0.913235
vt 0.437308 0.913235
vt 0.567403 0.791125
vt 0.584741 0.831829
vt 0.584741 0.648664
vt 0.567403 0.689367
vt 0.437308 0.913235
vt 0.463329 0.913235
vt 0.463329 0.953938
vt 0.437308 0.953938
vt 0.025957 0.048390
vt 0.025957 0.163840
vt 0.025957 0.045757
vt 0.025957 0.032686
vt 0.291516 0.019614
vt 0.291516 0.032686
vt 0.025957 0.279290
vt 0.747516 0.831829
vt 0.747516 0.791125
vt 0.834252 0.791125
vt 0.834252 0.831829
vt 0.756199 0.689367
vt 0.756199 0.730071
vt 0.678146 0.730071
vt 0.678146 0.689367
vt 0.955664 0.750422
vt 0.955664 0.689367
vt 0.990358 0.689367
vt 0.990358 0.791125
vt 0.747516 0.770774
vt 0.695475 0.770774
vt 0.695475 0.730071
vt 0.747516 0.730071
vt 0.712840 0.913235
vt 0.678146 0.913235
vt 0.678146 0.872532
vt 0.712840 0.872532
vt 0.712841 0.587609
vt 0.712841 0.648664
vt 0.678146 0.587609
vt 0.712840 0.831829
vt 0.712840 0.872532
vt 0.678146 0.872532
vt 0.678146 0.831829
vt 0.955664 0.892883
vt 0.955664 0.831829
vt 0.990358 0.791125
vt 0.990358 0.892883
vt 0.747516 0.811477
vt 0.695475 0.811477
vt 0.695475 0.770774
vt 0.747516 0.770774
vt 0.747516 0.770774
vt 0.747516 0.730071
vt 0.834252 0.730071
vt 0.834252 0.770774
vt 0.912305 0.892883
vt 0.912305 0.933586
vt 0.834252 0.933586
vt 0.834252 0.892883
vt 0.955664 0.648664
vt 0.955664 0.587609
vt 0.990358 0.587609
vt 0.990358 0.689367
vt 0.738861 0.648664
vt 0.912305 0.791125
vt 0.912305 0.791125
vt 0.929643 0.831829
vt 0.912305 0.689367
vn -0.0000 0.0000 1.0000
vn 0.0000 0.0000 -1.0000
vn -1.0000 0.0000 -0.0000
vn -0.7071 0.0000 0.7071
vn 1.0000 0.0000 0.0000
vn 0.7071 0.0000 -0.7071
vn 0.1644 0.9864 0.0000
vn -0.1644 -0.9864 -0.0000
vn 0.9836 0.1802 0.0000
vn -0.9836 0.1802 -0.0000
vn -0.0000 1.0000 0.0000
vn 0.7071 0.0000 0.7071
vn -0.7071 0.0000 -0.7071
vn -0.1644 0.9864 0.0000
vn 0.1644 -0.9864 0.0000
vn 0.5964 0.8027 0.0000
vn -0.5964 0.8027 -0.0000
vn 0.7056 -0.7086 -0.0000
vn -0.7056 -0.7086 -0.0000
vn 0.0000 -1.0000 0.0000
usemtl basecolors
s 1
f 1/1/1 2/2/1 3/3/1 4/4/1
f 5/5/2 6/6/2 7/7/2 8/8/2
f 9/9/2 10/10/2 11/11/2 12/12/2
f 13/13/1 14/14/1 15/15/1 16/16/1
f 17/17/1 18/18/1 19/19/1 20/20/1
f 21/21/2 22/22/2 23/23/2 24/24/2
f 25/25/1 26/26/1 27/27/1 28/28/1
f 26/26/1 29/29/1 30/30/1 27/27/1
f 31/31/2 32/32/2 33/33/2 34/34/2
f 34/34/2 33/33/2 35/35/2 36/36/2
f 24/37/2 37/38/2 11/39/2 10/40/2
f 15/41/1 4/42/1 3/43/1 38/44/1
f 39/45/1 28/46/1 27/47/1 17/48/1
f 17/17/1 27/49/1 30/50/1 18/18/1
f 40/51/2 7/52/2 33/53/2 32/54/2
f 7/7/2 6/6/2 35/55/2 33/56/2
f 41/57/1 42/58/1 43/59/1 44/60/1
f 42/58/1 1/1/1 4/4/1 43/59/1
f 45/61/2 46/62/2 47/63/2 48/64/2
f 48/64/2 47/63/2 10/10/2 9/9/2
f 49/65/1 44/66/1 43/67/1 14/68/1
f 14/14/1 43/69/1 4/70/1 15/15/1
f 50/71/2 21/72/2 47/73/2 46/74/2
f 21/21/2 24/24/2 10/75/2 47/76/2
f 51/77/3 52/78/3 53/79/3 54/80/3
f 55/81/4 56/82/4 57/83/4 58/84/4
f 59/85/5 60/86/5 61/87/5 62/88/5
f 63/89/6 64/90/6 65/91/6 66/92/6
f 155/93/7 68/94/7 69/95/7 156/96/7
f 157/97/8 158/98/8 73/99/8 74/100/8
f 159/101/9 160/102/9 77/103/9 78/104/9
f 67/105/1 79/106/1 76/107/1 75/108/1
f 156/109/10 161/110/10 81/111/10 70/112/10
f 68/113/2 82/114/2 80/115/2 69/116/2
f 50/117/11 66/118/11 65/119/11 21/120/11
f 49/121/11 58/122/11 57/123/11 18/124/11
f 29/29/1 41/57/1 44/60/1 30/30/1
f 36/36/2 35/35/2 46/62/2 45/61/2
f 18/125/1 30/126/1 44/66/1 49/65/1
f 6/127/2 50/71/2 46/74/2 35/128/2
f 60/129/12 55/81/12 58/84/12 61/130/12
f 52/131/13 63/132/13 66/133/13 53/134/13
f 6/135/11 53/136/11 66/118/11 50/117/11
f 14/137/11 61/138/11 58/122/11 49/121/11
f 159/139/14 78/140/14 68/94/14 155/93/14
f 76/141/15 79/142/15 83/143/15 84/144/15
f 70/145/1 81/146/1 79/106/1 67/105/1
f 78/147/2 77/148/2 82/114/2 68/113/2
f 85/149/5 86/150/5 87/151/5 88/152/5
f 89/153/16 90/154/16 72/155/16 91/156/16
f 92/157/5 93/158/5 94/159/5 95/160/5
f 96/161/11 86/162/11 85/163/11 97/164/11
f 86/165/1 96/166/1 98/167/1 87/168/1
f 99/169/3 100/170/3 101/171/3 102/172/3
f 103/173/2 104/174/2 105/175/2
f 96/176/3 97/177/3 106/178/3 98/179/3
f 107/180/1 108/181/1 109/182/1 110/183/1
f 108/184/11 107/185/11 111/186/11 112/187/11
f 111/188/5 107/189/5 110/190/5 113/191/5
f 108/192/3 112/193/3 114/194/3 109/195/3
f 91/156/17 115/196/17 116/197/17 89/153/17
f 117/198/1 118/199/1 119/200/1
f 89/201/2 116/202/2 120/203/2 93/204/2
f 94/205/1 121/206/1 115/207/1 91/208/1
f 93/158/18 120/209/18 121/210/18 94/159/18
f 101/211/2 122/212/2 90/213/2 89/201/2
f 91/208/1 72/214/1 71/215/1 100/216/1
f 100/170/19 71/217/19 122/218/19 101/171/19
f 105/219/16 73/220/16 123/221/16 118/222/16
f 124/223/5 103/224/5 117/225/5 125/226/5
f 126/227/3 119/228/3 104/229/3 127/230/3
f 94/205/1 91/208/1 100/216/1
f 118/222/17 83/231/17 128/232/17 105/219/17
f 93/204/2 101/211/2 89/201/2
f 105/175/2 128/233/2 129/234/2 103/173/2
f 117/198/1 84/235/1 83/236/1 118/199/1
f 103/224/18 129/237/18 84/238/18 117/225/18
f 104/174/2 74/239/2 73/240/2 105/175/2
f 118/199/1 123/241/1 130/242/1 119/200/1
f 119/228/19 130/243/19 74/244/19 104/229/19
f 81/245/8 130/246/8 123/247/8 79/142/8
f 80/248/8 82/249/8 90/250/8 122/251/8
f 122/251/8 71/252/8 80/248/8
f 130/246/8 81/245/8 74/100/8
f 161/253/8 80/248/8 71/252/8 157/97/8
f 123/247/8 73/99/8 79/142/8
f 90/250/8 82/249/8 72/254/8
f 162/255/8 158/98/8 72/254/8 82/249/8
f 77/256/15 120/257/15 116/258/15 82/249/15
f 163/259/15 129/260/15 128/261/15 164/262/15
f 84/144/15 129/260/15 76/141/15
f 120/257/15 77/256/15 121/263/15
f 160/264/15 163/259/15 121/263/15 77/256/15
f 83/143/15 79/142/15 128/261/15
f 116/258/15 115/265/15 82/249/15
f 162/255/15 82/249/15 115/265/15 164/262/15
f 126/266/1 125/267/1 117/198/1 119/200/1
f 125/268/11 126/269/11 56/270/11 60/271/11
f 95/272/1 94/205/1 100/216/1 99/273/1
f 88/274/11 95/275/11 99/276/11 106/277/11
f 98/278/11 114/279/11 113/280/11 87/281/11
f 101/211/2 93/204/2 92/282/2 102/283/2
f 102/284/11 92/285/11 64/286/11 52/287/11
f 110/288/11 109/289/11 127/290/11 124/291/11
f 127/292/2 104/174/2 103/173/2 124/293/2
f 56/270/11 55/294/11 60/271/11
f 64/286/11 63/295/11 52/287/11
f 22/296/3 21/297/3 14/298/3 13/299/3
f 21/300/11 131/301/11 62/302/11 14/303/11
f 23/304/5 16/305/5 15/306/5 24/307/5
f 12/308/5 11/309/5 3/310/5 2/311/5
f 22/312/11 13/313/11 16/314/11 23/315/11
f 37/316/5 38/317/5 3/318/5 11/319/5
f 38/320/11 37/321/11 24/322/11 15/323/11
f 18/324/11 132/325/11 54/326/11 6/327/11
f 56/328/3 133/329/3 132/330/3 57/331/3
f 133/329/3 51/77/3 54/80/3 132/330/3
f 39/332/3 40/333/3 32/334/3 28/335/3
f 17/336/3 20/337/3 8/338/3 7/339/3
f 32/340/3 31/341/3 25/342/3 28/343/3
f 19/344/5 18/345/5 6/346/5 5/347/5
f 8/348/11 20/349/11 19/350/11 5/351/11
f 39/352/11 17/353/11 7/354/11 40/355/11
f 21/120/11 65/119/11 131/301/11
f 6/327/11 54/326/11 53/136/11
f 64/90/5 134/356/5 131/357/5 65/91/5
f 134/356/5 59/85/5 62/88/5 131/357/5
f 114/279/11 98/278/11 51/358/11 133/359/11
f 87/281/11 113/280/11 59/360/11 134/361/11
f 102/284/11 52/287/11 51/358/11 99/276/11
f 64/286/11 92/285/11 95/275/11 134/361/11
f 125/268/11 60/271/11 59/360/11 124/291/11
f 56/270/11 126/269/11 127/290/11 133/359/11
f 114/279/11 133/359/11 127/290/11 109/289/11
f 110/288/11 124/291/11 59/360/11 113/280/11
f 87/281/11 134/361/11 95/275/11 88/274/11
f 106/277/11 99/276/11 51/358/11 98/278/11
f 88/152/2 106/362/2 135/363/2 136/364/2
f 113/365/2 114/366/2 137/367/2 138/368/2
f 88/152/5 136/364/5 139/369/5 85/149/5
f 106/178/3 97/177/3 140/370/3 135/371/3
f 85/372/1 139/373/1 140/374/1 97/375/1
f 113/191/5 138/376/5 141/377/5 111/188/5
f 114/194/3 112/193/3 142/378/3 137/379/3
f 111/380/1 141/381/1 142/382/1 112/383/1
f 14/303/11 62/302/11 61/138/11
f 18/124/11 57/123/11 132/325/11
f 79/142/15 162/255/15 164/262/15 128/261/15
f 76/141/15 129/260/15 163/259/15 160/264/15
f 121/263/15 163/259/15 164/262/15 115/265/15
f 79/142/8 73/99/8 158/98/8 162/255/8
f 81/245/8 161/253/8 157/97/8 74/100/8
f 75/384/14 159/139/14 155/93/14 67/385/14
f 69/386/10 80/387/10 161/110/10 156/109/10
f 75/388/9 76/389/9 160/102/9 159/101/9
f 71/252/8 72/254/8 158/98/8 157/97/8
f 67/385/7 155/93/7 156/96/7 70/390/7
usemtl carmaterial_orange
f 143/391/11 144/392/11 145/393/11 146/394/11
f 136/395/2 135/396/2 146/397/2 145/398/2
f 140/399/3 147/400/3 143/401/3 146/402/3
f 147/403/20 140/404/20 139/405/20 148/406/20
f 147/407/1 148/408/1 144/409/1 143/410/1
f 148/411/5 139/412/5 145/398/5 144/413/5
f 149/414/1 150/415/1 151/416/1 152/417/1
f 150/418/5 141/419/5 153/420/5 151/421/5
f 149/422/20 142/423/20 141/424/20 150/425/20
f 152/426/11 151/427/11 153/428/11 154/429/11
f 138/430/2 137/431/2 154/432/2 153/433/2
f 142/434/3 149/435/3 152/436/3 154/437/3
f 136/395/5 145/398/5 139/438/5
f 135/439/3 140/399/3 146/402/3
f 138/440/5 153/420/5 141/441/5
f 137/442/3 142/434/3 154/437/3
