# Blender v2.83.10 OBJ File: ''
# www.blender.org
mtllib building-house1.mtl
o house-small
v -0.299818 2.143448 1.999998
v 0.300183 2.143448 1.999998
v 0.500183 2.500001 1.999999
v -0.499817 2.500001 1.999998
v -2.999813 2.794169 -0.762946
v -2.999813 2.794169 -0.197216
v -2.899814 2.794169 -0.197216
v -2.899813 2.794169 -0.762946
v 0.606945 1.410861 1.899999
v 1.592806 1.410861 1.900001
v 1.592806 2.143448 1.900001
v 0.606945 2.143448 1.899999
v -3.124815 4.045906 -0.466719
v -3.124816 2.438596 2.099091
v -3.124816 2.630033 2.214746
v -3.124815 4.297719 -0.466719
v -1.781683 1.411132 -3.000000
v -1.781683 2.143449 -3.000000
v -1.781683 2.143449 -2.900000
v -1.781683 1.411132 -2.900000
v -3.124812 2.438596 -3.100625
v -3.124812 2.623356 -3.212192
v 2.125182 2.438596 2.099093
v 2.125183 4.045906 -0.466719
v 2.125183 4.297719 -0.466719
v 2.125182 2.630033 2.214750
v 2.125185 2.438596 -3.100622
v 2.125185 2.623356 -3.212189
v 1.592806 2.143448 2.000000
v 0.606944 2.143448 1.999999
v 2.000182 2.500001 2.000000
v 0.606944 1.410861 1.999999
v 1.592806 1.410861 2.000000
v -2.999813 1.000002 -2.000002
v -2.999812 1.000002 -3.000001
v -3.999811 1.000002 -4.000000
v -3.999817 1.000001 3.999994
v -3.999811 0.000002 -4.000000
v -3.999815 0.000001 3.999996
v -0.299818 1.100002 1.999998
v -0.299818 1.100002 1.899998
v -0.299818 2.143448 1.899999
v -3.999814 -0.999999 3.999997
v -3.999811 -0.999998 -4.000000
v 0.300183 1.100001 1.999998
v 0.300183 2.143448 1.899999
v 0.300183 1.100001 1.899999
v 0.000000 -0.999999 3.999998
v -0.374817 0.000001 3.999997
v 0.375180 1.100001 2.000000
v -2.999813 3.527850 -0.762946
v -2.899813 3.527850 -0.762946
v -0.374818 1.000001 3.999997
v -0.374817 1.000001 1.999998
v -2.999816 1.000001 1.999996
v 2.000182 1.000001 2.000000
v -2.592440 1.410861 1.999996
v -2.592440 2.143448 1.999997
v -2.999816 2.500001 1.999997
v -0.606579 1.410861 1.999998
v -0.606579 2.143448 1.999998
v -0.606579 2.143448 1.899998
v -0.606579 1.410861 1.899998
v -2.592440 1.410861 1.899997
v -2.592440 2.143448 1.899997
v -1.217943 2.143449 -3.000000
v -1.217943 2.143449 -2.899999
v -1.999813 1.000002 -3.000000
v -2.781683 1.411132 -3.000001
v -2.217942 1.411132 -3.000000
v -2.999812 2.500002 -3.000000
v -2.781683 2.143449 -3.000001
v -1.999813 2.500002 -3.000000
v -2.217942 2.143449 -3.000000
v -2.999813 1.411132 -0.092165
v -2.999813 2.143449 -0.092165
v -2.999813 1.411132 -2.218131
v -2.999812 1.411132 -2.781872
v -2.999813 2.143449 -2.218131
v -2.999812 2.143449 -2.781872
v -0.499814 1.000002 -2.999999
v -2.899813 1.411132 -0.092165
v -2.899814 1.411132 0.471576
v -2.899814 2.143449 0.471576
v -2.899813 2.143449 -0.092165
v -2.899813 1.411132 -2.781872
v -2.899813 1.411132 -2.218131
v -2.899813 2.143449 -2.218131
v -2.899813 2.143449 -2.781872
v 2.000185 1.000002 -2.999998
v 4.000184 1.000002 -3.999997
v -2.999813 2.143449 0.471576
v -2.999813 1.411132 0.471576
v -2.217942 1.411132 -2.900000
v -2.781683 1.411132 -2.900001
v -2.781683 2.143449 -2.900001
v -2.217942 2.143449 -2.900000
v -1.217943 1.411132 -2.899999
v -1.217943 1.411132 -3.000000
v -0.524817 2.438596 2.099092
v -0.524817 2.630033 2.214748
v -0.524813 2.438596 -3.100624
v -0.524813 2.623356 -3.212190
v -0.524815 4.297719 -0.466719
v 4.000180 1.000001 4.000001
v 0.375181 1.000001 3.999998
v 0.374816 0.000001 3.999998
v 4.000181 0.000001 4.000000
v 0.375183 1.000001 1.999998
v -0.499814 2.500002 -2.999999
v 4.000185 0.000002 -3.999996
v 4.000182 -0.999999 3.999999
v 4.000185 -0.999998 -3.999996
v 2.000185 2.500002 -2.999998
v -0.023049 4.036831 -0.895329
v 0.399122 4.036831 -0.895329
v 0.399122 4.214143 -0.895329
v -0.023049 4.214143 -0.895329
v -0.374820 1.100001 2.000000
v 0.375180 1.100001 4.000000
v -0.374820 1.100001 4.000000
v -2.999813 3.527850 -0.197215
v -2.899814 3.527850 -0.197215
v 2.000183 3.527850 -0.197215
v 2.000183 2.794169 -0.197216
v 1.900183 2.794169 -0.197216
v 1.900184 3.527850 -0.197215
v 2.000183 4.045906 -0.466719
v -2.999814 4.045906 -0.466719
v 2.000184 2.794169 -0.762946
v 2.000184 3.527850 -0.762946
v 1.900185 2.794169 -0.762946
v 1.900185 3.527850 -0.762946
v 0.399122 3.788159 -1.303872
v -0.023049 3.788159 -1.303872
v 0.430362 4.214143 -0.865096
v -0.054290 4.214143 -0.865096
v -0.023049 4.214143 -1.303871
v 0.399122 4.214143 -1.303871
v 0.430362 4.337777 -0.865096
v -0.054290 4.337777 -0.865096
v -0.054289 4.214143 -1.334104
v 0.430363 4.214143 -1.334103
v 0.269254 4.337777 -1.021004
v 0.106819 4.337777 -1.021004
v -0.054289 4.337777 -1.334104
v 0.430363 4.337777 -1.334103
v 0.269254 3.660853 -1.021004
v 0.106819 3.660853 -1.021004
v 0.106819 4.337777 -1.178196
v 0.269254 4.337777 -1.178196
v 0.269254 3.660853 -1.178196
v 0.106819 3.660853 -1.178196
vt 0.945328 0.275729
vt 0.945328 0.300979
vt 0.931722 0.309396
vt 0.931722 0.267312
vt 0.820437 0.226010
vt 0.820437 0.243253
vt 0.819049 0.243253
vt 0.819049 0.226010
vt 0.196285 0.877968
vt 0.295022 0.877968
vt 0.295022 0.927337
vt 0.196285 0.927337
vt 0.446555 0.438671
vt 0.546405 0.480529
vt 0.542212 0.484048
vt 0.442362 0.442189
vt 0.806556 0.248421
vt 0.806556 0.226010
vt 0.807943 0.226010
vt 0.807943 0.248421
vt 0.391737 0.296204
vt 0.387544 0.299722
vt 0.421694 0.289012
vt 0.445578 0.394613
vt 0.441385 0.398132
vt 0.417501 0.292530
vt 0.576362 0.473338
vt 0.572169 0.476856
vt 0.887334 0.296776
vt 0.857163 0.296776
vt 0.857163 0.295389
vt 0.887334 0.295389
vt 0.945328 0.313889
vt 0.945328 0.355378
vt 0.931722 0.372522
vt 0.857163 0.296776
vt 0.887334 0.296776
vt 0.887334 0.298162
vt 0.857163 0.298162
vt 0.750360 0.729178
vt 0.711301 0.729178
vt 0.750360 0.691979
vt 0.828476 0.617582
vt 0.867535 0.617582
vt 0.867535 0.654781
vt 0.828476 0.654781
vt 0.887334 0.294001
vt 0.855401 0.294001
vt 0.855401 0.292614
vt 0.887334 0.292614
vt 0.288518 0.521080
vt 0.226544 0.521080
vt 0.226544 0.025292
vt 0.288518 0.025292
vt 0.855401 0.294001
vt 0.887334 0.294001
vt 0.887334 0.295389
vt 0.855401 0.295389
vt 0.164571 0.521080
vt 0.164571 0.273197
vt 0.226544 0.296426
vt 0.973283 0.313889
vt 0.985146 0.304135
vt 0.973283 0.355378
vt 0.806556 0.226010
vt 0.806556 0.248421
vt 0.805168 0.248421
vt 0.805168 0.226010
vt 0.945652 0.803575
vt 0.906594 0.803575
vt 0.906594 0.784976
vt 0.945652 0.784976
vt 0.796843 0.248430
vt 0.796843 0.226010
vt 0.798231 0.226010
vt 0.798231 0.248430
vt 0.988962 0.372522
vt 0.973283 0.179246
vt 0.945328 0.179246
vt 0.931722 0.162102
vt 0.988962 0.162102
vt 0.795456 0.248430
vt 0.795456 0.226010
vt 0.796843 0.226010
vt 0.796843 0.248430
vt 0.795456 0.226010
vt 0.795456 0.248430
vt 0.794068 0.248430
vt 0.794068 0.226010
vt 0.799618 0.226010
vt 0.799618 0.248430
vt 0.798231 0.248430
vt 0.798231 0.226010
vt 0.867535 0.543185
vt 0.887064 0.543185
vt 0.887064 0.580383
vt 0.867535 0.580383
vt 0.814888 0.243262
vt 0.814888 0.226010
vt 0.816275 0.226010
vt 0.816275 0.243262
vt 0.711301 0.784976
vt 0.672242 0.766376
vt 0.711301 0.766376
vt 0.739748 0.329062
vt 0.739748 0.371146
vt 0.724059 0.361967
vt 0.724059 0.338242
vt 0.682508 0.371146
vt 0.696114 0.361967
vt 0.682508 0.329062
vt 0.696114 0.338242
vt 0.186885 0.034313
vt 0.313594 0.034313
vt 0.313594 0.494079
vt 0.186885 0.494079
vt 0.890331 0.245578
vt 0.890331 0.228929
vt 0.891860 0.228928
vt 0.891860 0.245578
vt 0.858963 0.036082
vt 0.858963 0.083827
vt 0.735302 0.009278
vt 0.670485 0.009278
vt 0.721163 0.036082
vt 0.684623 0.036082
vt 0.815536 0.126399
vt 0.815536 0.174143
vt 0.721163 0.083827
vt 0.670485 0.107073
vt 0.684623 0.083827
vt 0.711301 0.803575
vt 0.672242 0.784976
vt 0.696114 0.319883
vt 0.724059 0.319883
vt 0.125780 0.867921
vt 0.125753 0.944947
vt 0.025694 0.944913
vt 0.025720 0.867887
vt 0.128084 0.706060
vt 0.128084 0.785264
vt 0.025195 0.785264
vt 0.025195 0.706060
vt 0.711301 0.840774
vt 0.672242 0.840774
vt 0.672242 0.822174
vt 0.711301 0.822174
vt 0.817662 0.226010
vt 0.817663 0.243257
vt 0.816275 0.243257
vt 0.816275 0.226010
vt 0.802393 0.248421
vt 0.802393 0.226010
vt 0.803781 0.226010
vt 0.803781 0.248421
vt 0.807943 0.248421
vt 0.807943 0.226010
vt 0.809331 0.226010
vt 0.809331 0.248421
vt 0.821824 0.226010
vt 0.821824 0.243253
vt 0.820437 0.243253
vt 0.820437 0.226010
vt 0.813501 0.243257
vt 0.813501 0.226010
vt 0.814888 0.226010
vt 0.814888 0.243257
vt 0.802393 0.226010
vt 0.802393 0.248421
vt 0.801006 0.248421
vt 0.801006 0.226010
vt 0.806556 0.226010
vt 0.806556 0.248421
vt 0.805168 0.248421
vt 0.805168 0.226010
vt 0.820437 0.226010
vt 0.820437 0.243253
vt 0.819049 0.243253
vt 0.819049 0.226010
vt 0.125780 0.790772
vt 0.125753 0.867799
vt 0.025693 0.867764
vt 0.025720 0.790738
vt 0.128084 0.547436
vt 0.128084 0.626640
vt 0.025195 0.626640
vt 0.025195 0.547436
vt 0.805168 0.226010
vt 0.805168 0.248421
vt 0.803781 0.248421
vt 0.803781 0.226010
vt 0.819049 0.226010
vt 0.819049 0.243262
vt 0.817663 0.243262
vt 0.817662 0.226010
vt 0.812105 0.243262
vt 0.812105 0.226010
vt 0.813492 0.226010
vt 0.813492 0.243262
vt 0.799618 0.248421
vt 0.799618 0.226010
vt 0.801006 0.226010
vt 0.801006 0.248421
vt 0.810718 0.226010
vt 0.810718 0.248421
vt 0.809331 0.248421
vt 0.809331 0.226010
vt 0.823211 0.226010
vt 0.823211 0.243262
vt 0.821824 0.243262
vt 0.821824 0.226010
vt 0.994571 0.009278
vt 0.895503 0.036082
vt 0.246510 0.869306
vt 0.197141 0.869306
vt 0.197141 0.819937
vt 0.246510 0.819937
vt 0.887334 0.287368
vt 0.826559 0.287368
vt 0.826559 0.285982
vt 0.887334 0.285982
vt 0.945328 0.262819
vt 0.595859 0.449206
vt 0.511597 0.364945
vt 0.515468 0.361074
vt 0.599729 0.445336
vt 0.513847 0.359454
vt 0.429585 0.275192
vt 0.433456 0.271322
vt 0.517717 0.355583
vt 0.494655 0.179461
vt 0.494655 0.022666
vt 0.613819 0.022666
vt 0.613819 0.179461
vt 0.494655 0.257858
vt 0.613819 0.257858
vt 0.887334 0.285982
vt 0.826559 0.285982
vt 0.826559 0.284595
vt 0.887334 0.284595
vt 0.789418 0.543185
vt 0.828477 0.543185
vt 0.828476 0.580383
vt 0.789418 0.580383
vt 0.945652 0.877972
vt 0.906594 0.877972
vt 0.906594 0.840774
vt 0.945652 0.840774
vt 0.739748 0.265936
vt 0.724059 0.296158
vt 0.988962 0.304136
vt 0.682508 0.265936
vt 0.696114 0.296158
vt 0.789418 0.729178
vt 0.789418 0.691979
vt 0.828477 0.691979
vt 0.867535 0.691979
vt 0.867535 0.654781
vt 0.906594 0.654781
vt 0.906594 0.691979
vt 0.102597 0.025292
vt 0.102597 0.521080
vt 0.040624 0.521080
vt 0.040624 0.025292
vt 0.739748 0.160726
vt 0.682508 0.160726
vt 0.848006 0.617582
vt 0.828476 0.617582
vt 0.828476 0.580383
vt 0.848006 0.580383
vt 0.164571 0.521080
vt 0.102597 0.521080
vt 0.102597 0.025292
vt 0.164571 0.025292
vt 0.812105 0.226010
vt 0.812105 0.244372
vt 0.810718 0.244372
vt 0.810718 0.226010
vt 0.861256 0.268472
vt 0.861256 0.247660
vt 0.891860 0.247660
vt 0.891860 0.268462
vt 0.599729 0.445336
vt 0.603600 0.441466
vt 0.493509 0.489281
vt 0.608090 0.489281
vt 0.613819 0.492959
vt 0.492363 0.492959
vt 0.749104 0.226044
vt 0.749104 0.216429
vt 0.758041 0.216429
vt 0.758041 0.226044
vt 0.608090 0.265375
vt 0.493509 0.265375
vt 0.492363 0.257858
vt 0.613819 0.257858
vt 0.378928 0.265376
vt 0.373199 0.257858
vt 0.985146 0.300979
vt 0.985146 0.275729
vt 0.985146 0.272572
vt 0.988962 0.272573
vt 0.973283 0.262819
vt 0.890331 0.226847
vt 0.829158 0.226847
vt 0.890331 0.247660
vt 0.829158 0.247660
vt 0.887334 0.279045
vt 0.887334 0.281820
vt 0.826127 0.281820
vt 0.826127 0.279045
vt 0.826127 0.284595
vt 0.826127 0.281820
vt 0.887334 0.281820
vt 0.887334 0.284595
vt 0.378928 0.489281
vt 0.373199 0.492959
vt 0.802393 0.226010
vt 0.802393 0.248421
vt 0.801006 0.248421
vt 0.801006 0.226010
vt 0.425715 0.279062
vt 0.429585 0.275192
vt 0.813501 0.243257
vt 0.813501 0.226010
vt 0.814888 0.226010
vt 0.814888 0.243257
vt 0.373199 0.257858
vt 0.373199 0.179461
vt 0.666610 0.314847
vt 0.666610 0.232856
vt 0.672741 0.232856
vt 0.672741 0.314847
vt 0.789418 0.952369
vt 0.750359 0.952369
vt 0.750359 0.915171
vt 0.789418 0.915171
vt 0.125780 0.867921
vt 0.125753 0.944947
vt 0.025694 0.944913
vt 0.025720 0.867887
vt 0.608090 0.414704
vt 0.613819 0.414653
vt 0.895503 0.083827
vt 0.852077 0.126398
vt 0.834685 0.207861
vt 0.378928 0.414704
vt 0.373199 0.414653
vt 0.994571 0.107073
vt 0.852077 0.174143
vt 0.980791 0.421464
vt 0.847579 0.352976
vt 0.831159 0.318367
vt 0.980791 0.521500
vt 0.847579 0.401996
vt 0.677489 0.521500
vt 0.813141 0.401996
vt 0.677489 0.421464
vt 0.813141 0.352976
vt 0.196505 0.703810
vt 0.252939 0.703810
vt 0.252939 0.776878
vt 0.196505 0.776878
vt 0.666610 0.523490
vt 0.666610 0.460163
vt 0.672741 0.460163
vt 0.672741 0.523490
vt 0.672741 0.396837
vt 0.672741 0.460163
vt 0.666610 0.460163
vt 0.666610 0.396837
vt 0.672741 0.314847
vt 0.666610 0.314847
vt 0.396196 0.048181
vt 0.396196 0.153946
vt 0.373199 0.022666
vt 0.471658 0.153946
vt 0.471658 0.048181
vt 0.769847 0.199953
vt 0.769847 0.209569
vt 0.769118 0.210280
vt 0.769118 0.199242
vt 0.759275 0.202316
vt 0.749104 0.202316
vt 0.749104 0.188203
vt 0.759275 0.188203
vt 0.769118 0.202316
vt 0.759275 0.196652
vt 0.759275 0.188203
vt 0.769118 0.188203
vt 0.758947 0.210765
vt 0.749104 0.216429
vt 0.749104 0.202316
vt 0.758947 0.202316
vt 0.760905 0.202316
vt 0.760905 0.213354
vt 0.759219 0.213354
vt 0.759219 0.202316
vt 0.779690 0.209569
vt 0.779690 0.199953
vt 0.780419 0.199242
vt 0.780419 0.210280
vt 0.769118 0.199242
vt 0.769118 0.188203
vt 0.771610 0.190637
vt 0.771610 0.196807
vt 0.762592 0.202316
vt 0.762592 0.213354
vt 0.760905 0.213354
vt 0.760905 0.202316
vt 0.777121 0.220963
vt 0.777121 0.210280
vt 0.778807 0.210280
vt 0.778807 0.220963
vt 0.775434 0.220963
vt 0.775434 0.210280
vt 0.777121 0.210280
vt 0.777121 0.220963
vt 0.786945 0.203621
vt 0.780419 0.203621
vt 0.780419 0.188203
vt 0.786945 0.188203
vt 0.780419 0.188203
vt 0.780419 0.199242
vt 0.777926 0.196807
vt 0.777926 0.190637
vt 0.762592 0.217734
vt 0.768908 0.217734
vt 0.768908 0.223904
vt 0.762592 0.223904
vt 0.769118 0.217734
vt 0.762592 0.217734
vt 0.762592 0.202316
vt 0.769118 0.202316
vt 0.780419 0.203621
vt 0.786734 0.203621
vt 0.786734 0.219039
vt 0.780419 0.219039
vt 0.769118 0.210280
vt 0.775434 0.210280
vt 0.775434 0.225699
vt 0.769118 0.225699
vt 0.887334 0.281820
vt 0.829158 0.247660
vt 0.826127 0.281820
vt 0.861256 0.268472
vt 0.226544 0.249969
vt 0.164571 0.025292
vt 0.226544 0.025292
vn -0.0000 -0.0000 1.0000
vn 0.0000 1.0000 0.0000
vn -1.0000 -0.0000 -0.0000
vn 1.0000 0.0000 0.0000
vn 0.0000 -1.0000 0.0000
vn 0.0000 -0.0000 -1.0000
vn -0.0000 -0.5171 0.8559
vn 0.0000 -0.5169 -0.8560
vn -0.0011 0.8541 -0.5201
vn -0.0009 0.8537 -0.5207
vn 0.0000 0.8538 -0.5207
vn -0.0000 0.8492 0.5281
vn 0.0000 -0.8500 -0.5267
vn -0.0000 -0.8536 0.5209
vn -0.0011 -0.8487 -0.5288
vn -0.0012 -0.8487 -0.5289
vn 0.0023 -0.8474 -0.5310
vn -0.0023 -0.8474 -0.5310
vn 0.0002 0.8537 -0.5208
vn 0.0002 0.8540 -0.5202
vn 0.0001 0.8541 -0.5201
vn -0.0007 0.8540 -0.5203
vn -0.0003 0.8536 -0.5209
usemtl basecolors.004
s 1
f 1/1/1 2/2/1 3/3/1 4/4/1
f 5/5/2 6/6/2 7/7/2 8/8/2
f 9/9/1 10/10/1 11/11/1 12/12/1
f 13/13/3 14/14/3 15/15/3 16/16/3
f 17/17/4 18/18/4 19/19/4 20/20/4
f 21/21/3 13/13/3 16/16/3 22/22/3
f 23/23/4 24/24/4 25/25/4 26/26/4
f 24/24/4 27/27/4 28/28/4 25/25/4
f 29/29/5 30/30/5 12/31/5 11/32/5
f 30/33/1 29/34/1 31/35/1 3/3/1
f 32/36/2 33/37/2 10/38/2 9/39/2
f 34/40/2 35/41/2 36/42/2
f 37/43/3 36/44/3 38/45/3 39/46/3
f 1/47/4 40/48/4 41/49/4 42/50/4
f 43/51/3 39/52/3 38/53/3 44/54/3
f 45/55/3 2/56/3 46/57/3 47/58/3
f 39/52/1 43/59/1 48/60/1 49/61/1
f 32/62/1 50/63/1 33/64/1
f 51/65/1 5/66/1 8/67/1 52/68/1
f 53/69/2 54/70/2 55/71/2 37/72/2
f 33/73/3 29/74/3 11/75/3 10/76/3
f 29/34/1 33/64/1 56/77/1 31/35/1
f 57/78/1 58/79/1 59/80/1 55/81/1
f 30/82/4 32/83/4 9/84/4 12/85/4
f 60/86/3 61/87/3 62/88/3 63/89/3
f 58/90/4 57/91/4 64/92/4 65/93/4
f 53/94/1 37/95/1 39/96/1 49/97/1
f 18/98/5 66/99/5 67/100/5 19/101/5
f 68/102/2 36/103/2 35/104/2
f 68/105/6 35/106/6 69/107/6 70/108/6
f 35/106/6 71/109/6 72/110/6 69/107/6
f 71/109/6 73/111/6 74/112/6 72/110/6
f 73/111/6 68/105/6 70/108/6 74/112/6
f 41/113/1 47/114/1 46/115/1 42/116/1
f 40/117/2 45/118/2 47/119/2 41/120/2
f 75/121/3 76/122/3 34/123/3
f 35/124/3 34/123/3 77/125/3 78/126/3
f 5/127/3 77/125/3 34/123/3 76/122/3
f 51/128/3 79/129/3 77/125/3 5/127/3
f 71/130/3 35/124/3 78/126/3 80/131/3
f 81/132/2 36/133/2 68/102/2
f 68/105/6 73/111/6 18/134/6 17/135/6
f 82/136/3 83/137/3 84/138/3 85/139/3
f 86/140/3 87/141/3 88/142/3 89/143/3
f 90/144/2 91/145/2 36/146/2 81/147/2
f 79/148/5 80/149/5 89/150/5 88/151/5
f 77/152/6 79/153/6 88/154/6 87/155/6
f 80/156/1 78/157/1 86/158/1 89/159/1
f 78/160/2 77/161/2 87/162/2 86/163/2
f 92/164/5 76/165/5 85/166/5 84/167/5
f 93/168/6 92/169/6 84/170/6 83/171/6
f 76/172/1 75/173/1 82/174/1 85/175/1
f 75/176/2 93/177/2 83/178/2 82/179/2
f 94/180/6 95/181/6 96/182/6 97/183/6
f 98/184/6 20/185/6 19/186/6 67/187/6
f 66/188/3 99/189/3 98/190/3 67/191/3
f 99/192/2 17/193/2 20/194/2 98/195/2
f 72/196/5 74/197/5 97/198/5 96/199/5
f 69/200/4 72/201/4 96/202/4 95/203/4
f 74/204/3 70/205/3 94/206/3 97/207/3
f 70/208/2 69/209/2 95/210/2 94/211/2
f 34/123/3 55/212/3 93/213/3 75/121/3
f 64/214/1 63/215/1 62/216/1 65/217/1
f 57/218/2 60/219/2 63/220/2 64/221/2
f 58/79/1 61/222/1 4/4/1 59/80/1
f 14/223/7 100/224/7 101/225/7 15/226/7
f 102/227/8 21/228/8 22/229/8 103/230/8
f 104/231/9 103/232/10 22/233/11 16/234/11
f 101/235/12 104/231/12 16/234/12 15/236/12
f 61/237/5 58/238/5 65/239/5 62/240/5
f 105/241/1 106/242/1 107/243/1 108/244/1
f 105/245/2 56/246/2 109/247/2 106/248/2
f 81/249/6 68/105/6 17/135/6 99/250/6
f 56/77/1 33/64/1 50/63/1 109/251/1
f 110/252/6 81/249/6 99/250/6 66/253/6
f 73/111/6 110/252/6 66/253/6 18/134/6
f 55/254/2 36/255/2 37/256/2
f 105/257/4 108/258/4 111/259/4 91/260/4
f 112/261/4 113/262/4 111/263/4 108/264/4
f 55/254/2 34/40/2 36/255/2
f 90/265/6 81/249/6 110/252/6 114/266/6
f 36/267/6 91/268/6 111/269/6 38/270/6
f 44/271/6 38/272/6 111/273/6 113/274/6
f 2/275/5 1/276/5 42/277/5 46/278/5
f 106/279/1 53/280/1 49/281/1 107/282/1
f 27/283/8 102/227/8 103/230/8 28/284/8
f 4/285/13 31/286/13 23/287/13 100/288/13
f 115/289/1 116/290/1 117/291/1 118/292/1
f 114/293/14 110/294/14 102/295/14 27/296/14
f 110/294/14 71/297/14 21/298/14 102/295/14
f 45/299/1 50/63/1 3/3/1 2/2/1
f 40/300/1 1/1/1 4/4/1 119/301/1
f 3/3/1 50/63/1 32/62/1 30/33/1
f 55/81/1 54/302/1 119/301/1 57/78/1
f 60/303/1 57/78/1 119/301/1
f 4/4/1 61/222/1 60/303/1 119/301/1
f 50/304/2 45/118/2 120/305/2
f 40/117/2 119/306/2 121/307/2
f 45/118/2 40/117/2 121/307/2 120/305/2
f 119/308/3 54/309/3 53/310/3 121/311/3
f 109/312/4 50/313/4 120/314/4 106/315/4
f 59/316/15 4/285/13 100/288/13 14/317/16
f 6/318/6 122/319/6 123/320/6 7/321/6
f 100/224/7 23/322/7 26/323/7 101/225/7
f 122/324/5 51/325/5 52/326/5 123/327/5
f 26/328/12 25/329/12 104/231/12 101/235/12
f 124/330/6 125/331/6 126/332/6 127/333/6
f 105/334/2 91/335/2 90/336/2 56/337/2
f 8/338/3 7/339/3 123/340/3 52/341/3
f 31/286/17 128/342/17 24/343/17 23/287/17
f 128/342/14 114/293/14 27/296/14 24/343/14
f 76/122/3 92/344/3 6/345/3 5/127/3
f 79/129/3 51/128/3 129/346/3 80/131/3
f 129/347/18 59/316/15 14/317/16 13/348/18
f 71/297/14 129/347/14 13/348/14 21/298/14
f 71/130/3 80/131/3 129/346/3
f 93/213/3 55/212/3 59/349/3 92/344/3
f 92/344/3 59/349/3 6/345/3
f 6/345/3 59/349/3 122/350/3
f 59/349/3 129/346/3 122/350/3
f 122/350/3 129/346/3 51/128/3
f 31/351/4 124/352/4 128/353/4
f 56/354/4 125/355/4 124/352/4 31/351/4
f 90/356/4 130/357/4 125/355/4 56/354/4
f 90/356/4 114/358/4 131/359/4 130/357/4
f 124/352/4 131/359/4 128/353/4
f 128/353/4 131/359/4 114/358/4
f 126/360/4 132/361/4 133/362/4 127/363/4
f 125/364/2 130/365/2 132/366/2 126/367/2
f 131/368/5 124/369/5 127/370/5 133/371/5
f 130/372/1 131/368/1 133/371/1 132/373/1
f 134/374/19 116/375/20 25/329/21 28/376/19
f 115/377/22 135/378/23 103/232/10 104/231/9
f 135/378/23 134/374/19 28/376/19 103/232/10
f 116/375/20 115/377/22 104/231/9 25/329/21
f 118/379/5 117/380/5 136/381/5 137/382/5
f 134/383/6 135/384/6 138/385/6 139/386/6
f 135/387/3 115/388/3 118/389/3 138/390/3
f 116/391/4 134/392/4 139/393/4 117/394/4
f 137/395/1 136/396/1 140/397/1 141/398/1
f 139/399/5 138/400/5 142/401/5 143/402/5
f 138/400/5 118/379/5 137/382/5 142/401/5
f 117/380/5 139/399/5 143/402/5 136/381/5
f 141/403/2 140/404/2 144/405/2 145/406/2
f 143/407/6 142/408/6 146/409/6 147/410/6
f 142/411/3 137/412/3 141/413/3 146/414/3
f 136/415/4 143/416/4 147/417/4 140/418/4
f 145/419/6 144/420/6 148/421/6 149/422/6
f 147/423/2 146/424/2 150/425/2 151/426/2
f 146/424/2 141/403/2 145/406/2 150/425/2
f 140/404/2 147/423/2 151/426/2 144/405/2
f 148/427/2 152/428/2 153/429/2 149/430/2
f 151/431/1 150/432/1 153/433/1 152/434/1
f 150/435/4 145/436/4 149/437/4 153/438/4
f 144/439/3 151/440/3 152/441/3 148/442/3
f 106/443/1 120/444/1 121/445/1 53/446/1
f 49/61/1 48/60/1 107/447/1
f 107/447/1 48/60/1 112/448/1 108/449/1
