# Blender v2.83.10 OBJ File: ''
# www.blender.org
mtllib building-house0.mtl
o house-country_Cube.026
v 3.203133 2.794169 -0.812965
v 3.103132 2.794169 -0.812965
v 3.103133 2.794169 -0.247235
v 3.203132 2.794169 -0.247235
v -0.300185 1.100001 2.499999
v -0.300185 1.100001 2.399999
v -0.300185 2.143448 2.399999
v -0.300185 2.143448 2.499999
v 3.203133 3.527850 -0.812965
v 3.103132 3.527850 -0.812965
v 1.394358 1.000861 1.105339
v 1.394358 1.000862 1.006411
v 1.394358 2.057794 1.006411
v 1.394358 2.057794 1.105339
v 2.999818 2.057794 1.105341
v 2.999819 2.057794 1.006414
v 2.999819 1.000862 1.006414
v 2.999818 1.000861 1.105341
v -2.461981 1.410861 2.499996
v -2.461981 1.410861 2.399997
v -2.461981 2.143448 2.399997
v -2.461981 2.143448 2.499996
v -0.605986 2.143448 2.499998
v -0.605986 2.143448 2.399998
v -0.605986 1.410861 2.399998
v -0.605986 1.410861 2.499998
v 0.749811 1.411159 -2.161613
v 0.749811 2.143449 -2.161613
v 1.849715 2.143449 -2.161613
v 1.849715 1.411159 -2.161613
v 1.849715 2.143449 -2.261614
v 0.749812 2.143449 -2.261614
v 0.299792 1.100002 2.399999
v 0.299792 2.143448 2.400000
v 1.849715 1.411159 -2.261614
v 0.489976 1.411130 1.702767
v 0.489976 2.143448 1.702767
v 0.489977 2.143448 2.300246
v 0.489977 1.411130 2.300246
v -2.658168 1.411132 -0.471176
v -2.658168 2.143449 -0.471176
v -2.658168 2.143449 -1.555847
v -2.658168 1.411132 -1.555847
v -2.758167 2.143449 -1.555848
v -2.758168 2.143449 -0.471176
v -2.758167 1.411132 -1.555848
v -2.758168 1.411132 -0.471176
v 0.589976 2.143448 2.300246
v 0.589977 2.143448 1.702767
v 0.589976 1.411130 2.300246
v 0.589977 1.411130 1.702767
v -1.200032 1.000002 -2.161615
v -2.459517 1.000002 -2.161617
v -2.459517 2.143449 -2.161617
v -1.200032 2.143449 -2.161615
v -2.459516 2.143449 -2.261617
v -1.200031 2.143449 -2.261616
v -2.459516 1.000002 -2.261617
v -1.200031 1.000002 -2.261616
v -0.458032 1.000002 -2.261615
v -1.101517 1.000002 -2.261616
v -1.101517 1.000002 -2.161616
v -0.458032 1.000002 -2.161615
v 0.299792 2.143448 2.499999
v 3.103133 3.527849 -0.247235
v 3.203132 3.527849 -0.247235
v 0.749812 1.411159 -2.261614
v -0.458032 2.143449 -2.261615
v -0.458032 2.143449 -2.161615
v -1.101517 2.143449 -2.261616
v -1.101517 2.143449 -2.161616
v 0.299792 1.100002 2.499999
v -0.804404 2.794168 2.499998
v -0.804404 2.794168 2.399996
v -1.370134 2.794168 2.399998
v -1.370135 2.794168 2.499997
v -0.804404 3.527849 2.499998
v -0.804404 3.527849 2.399996
v -1.370134 3.527849 2.399998
v -1.370135 3.527849 2.499997
v -2.917473 2.438596 -2.420003
v -3.044732 2.573030 -2.552724
v 3.407119 2.573030 -2.553060
v 3.407119 2.438596 -2.420111
v -2.758164 2.573121 -2.261615
v 3.203137 2.573121 -2.261612
v 0.747082 2.438595 2.699517
v 0.747083 2.438596 1.263794
v 0.869676 2.573030 1.396737
v 0.869675 2.573029 2.699517
v 0.589988 2.572424 1.106127
v 3.203133 2.573243 1.105276
v 3.407116 2.438596 1.263802
v 3.203136 4.001731 -0.578161
v 3.407117 4.001731 -0.578160
v 3.407117 4.199545 -0.578160
v 3.407116 2.573030 1.396746
v -1.087701 4.199545 -0.578164
v -0.489985 3.700177 0.024444
v -0.000179 3.700177 0.024445
v -1.087565 4.001731 2.500000
v 0.589975 2.572424 2.500002
v -1.087566 4.001731 2.699513
v -2.917478 2.438595 2.699513
v -2.758170 2.572839 2.500000
v -1.087566 4.199545 2.699513
v -3.044736 2.573029 2.699513
v -0.489984 3.700177 0.519096
v -2.758164 1.000001 -2.261616
v 0.589975 1.000000 2.500002
v 0.589988 1.000000 1.106127
v -2.758170 1.000000 2.499999
v 3.203133 1.000000 1.105275
v 3.203137 1.000001 -2.261613
v 3.999818 1.000001 4.000000
v 3.999816 0.000001 4.000001
v 3.999822 0.000002 -3.999994
v 3.999822 1.000002 -3.999994
v 3.999814 -0.999999 4.000003
v 3.999823 -0.999998 -3.999995
v 0.374817 0.000001 3.999998
v 0.000000 -0.999999 3.999999
v 0.374819 1.000001 3.999998
v -4.000180 1.000001 3.999997
v -4.000172 1.000002 -4.000002
v -4.000174 0.000002 -4.000001
v -4.000180 0.000001 3.999995
v -4.000180 -0.999999 3.999994
v -4.000174 -0.999998 -4.000000
v -0.375181 1.000001 3.999998
v -0.374815 0.000001 3.999998
v 0.374820 1.100001 4.000001
v -0.375179 1.100001 4.000000
v 0.374820 1.000001 2.500002
v 0.374822 1.100001 2.500002
v -0.375176 1.100001 2.500001
v -0.375178 1.000001 2.500001
v -0.000179 3.292752 0.519097
v -0.000179 4.491320 0.024445
v -0.000179 4.491320 0.519097
v -0.150764 4.491320 0.367139
v -0.150763 4.491320 0.176839
v -0.150763 3.574970 0.176839
v -0.150764 3.422730 0.367138
v -0.489984 4.491320 0.519096
v -0.489985 4.491320 0.024444
v -0.339400 4.491320 0.176839
v -0.339399 4.491320 0.367139
v -0.339400 3.725879 0.176839
v -0.339399 3.573639 0.367139
vt 0.950415 0.287958
vt 0.950415 0.282028
vt 0.981753 0.282029
vt 0.981753 0.287958
vt 0.877502 0.432409
vt 0.883431 0.432409
vt 0.883431 0.467537
vt 0.877502 0.467537
vt 0.987773 0.369381
vt 0.987773 0.375310
vt 0.947131 0.375310
vt 0.947131 0.369381
vt 0.889360 0.431955
vt 0.895226 0.431955
vt 0.895226 0.467537
vt 0.889360 0.467537
vt 0.895226 0.431955
vt 0.901092 0.431955
vt 0.901092 0.467537
vt 0.895226 0.467537
vt 0.987713 0.345664
vt 0.987713 0.351593
vt 0.947131 0.351593
vt 0.947131 0.345664
vt 0.947131 0.357522
vt 0.947131 0.351593
vt 0.987713 0.351593
vt 0.987713 0.357522
vt 0.099506 0.814431
vt 0.010366 0.814431
vt 0.010366 0.678476
vt 0.099506 0.678476
vt 0.912951 0.430508
vt 0.918880 0.430508
vt 0.918880 0.467537
vt 0.912951 0.467537
vt 0.263483 0.372611
vt 0.263482 0.257931
vt 0.329426 0.257931
vt 0.329426 0.372611
vt 0.987696 0.310088
vt 0.987696 0.316017
vt 0.947131 0.316017
vt 0.947131 0.310088
vt 0.100964 0.892326
vt 0.010445 0.892326
vt 0.010445 0.819596
vt 0.100964 0.819596
vt 0.011027 0.536723
vt 0.100171 0.536723
vt 0.100171 0.670795
vt 0.011027 0.670795
vt 0.907021 0.431021
vt 0.912951 0.431021
vt 0.912951 0.467537
vt 0.907021 0.467537
vt 0.987698 0.321947
vt 0.987698 0.327876
vt 0.947131 0.327876
vt 0.947131 0.321947
vt 0.947131 0.345664
vt 0.947131 0.339734
vt 0.987698 0.339734
vt 0.987698 0.345664
vt 0.901092 0.431021
vt 0.907021 0.431021
vt 0.907021 0.467537
vt 0.901092 0.467537
vt 0.803373 0.309396
vt 0.803373 0.303467
vt 0.823487 0.303467
vt 0.823487 0.309396
vt 0.947131 0.333805
vt 0.947131 0.327876
vt 0.987698 0.327876
vt 0.987698 0.333805
vt 0.947131 0.339734
vt 0.947131 0.333805
vt 0.987698 0.333805
vt 0.987698 0.339734
vt 0.980229 0.292300
vt 0.980229 0.298230
vt 0.947131 0.298230
vt 0.947131 0.292300
vt 0.236970 0.654150
vt 0.105695 0.654150
vt 0.105695 0.536781
vt 0.236970 0.536781
vt 0.794234 0.284839
vt 0.836635 0.284839
vt 0.836635 0.290768
vt 0.794234 0.290768
vt 0.832729 0.284839
vt 0.794234 0.278910
vt 0.832729 0.278910
vt 0.924809 0.467537
vt 0.924809 0.429042
vt 0.930738 0.429042
vt 0.930738 0.467537
vt 0.328509 0.766198
vt 0.239332 0.766198
vt 0.239333 0.536785
vt 0.328509 0.536785
vt 0.991066 0.278523
vt 0.996996 0.278523
vt 0.996996 0.381335
vt 0.991066 0.381335
vt 0.793747 0.322776
vt 0.793747 0.316847
vt 0.844453 0.316847
vt 0.844453 0.322776
vt 0.850693 0.734309
vt 0.876191 0.734309
vt 0.876191 0.738497
vt 0.850693 0.738497
vt 0.947131 0.304159
vt 0.947131 0.298230
vt 0.980367 0.298230
vt 0.980367 0.304159
vt 0.987773 0.363452
vt 0.987773 0.369381
vt 0.947131 0.369381
vt 0.947131 0.363452
vt 0.950415 0.282028
vt 0.950415 0.276099
vt 0.981753 0.276099
vt 0.981753 0.282028
vt 0.104622 0.891748
vt 0.104622 0.801060
vt 0.173488 0.801060
vt 0.173488 0.891748
vt 0.880094 0.734309
vt 0.930002 0.734309
vt 0.930002 0.738497
vt 0.880094 0.738497
vt 0.947131 0.321947
vt 0.947131 0.316017
vt 0.987696 0.316017
vt 0.987696 0.321947
vt 0.924809 0.467537
vt 0.918880 0.467537
vt 0.918880 0.430508
vt 0.924809 0.430508
vt 0.930738 0.467537
vt 0.930738 0.429042
vt 0.936668 0.429042
vt 0.936668 0.467537
vt 0.938912 0.425366
vt 0.875571 0.425366
vt 0.875571 0.419437
vt 0.938912 0.419437
vt 0.947131 0.304159
vt 0.982777 0.304159
vt 0.982777 0.310088
vt 0.947131 0.310088
vt 0.104622 0.656938
vt 0.182953 0.656938
vt 0.182953 0.798275
vt 0.104622 0.798275
vt 0.889360 0.467537
vt 0.883431 0.467537
vt 0.883431 0.432409
vt 0.889360 0.432409
vt 0.700108 0.343461
vt 0.700108 0.347357
vt 0.675092 0.347357
vt 0.675092 0.343461
vt 0.793799 0.315970
vt 0.793799 0.310104
vt 0.844321 0.310104
vt 0.844321 0.315970
vt 0.332447 0.395934
vt 0.332447 0.512097
vt 0.257933 0.512097
vt 0.257933 0.395934
vt 0.713674 0.875310
vt 0.713674 0.871167
vt 0.777291 0.871167
vt 0.777291 0.875310
vt 0.844814 0.303536
vt 0.844814 0.309466
vt 0.825769 0.309466
vt 0.825769 0.303536
vt 0.947131 0.381239
vt 0.947131 0.375310
vt 0.987773 0.375310
vt 0.987773 0.381239
vt 0.987773 0.357522
vt 0.987773 0.363452
vt 0.947131 0.363452
vt 0.947131 0.357522
vt 0.950415 0.276099
vt 0.950415 0.270170
vt 0.981753 0.270170
vt 0.981753 0.276099
vt 0.176969 0.891748
vt 0.176969 0.801060
vt 0.245835 0.801060
vt 0.245835 0.891748
vt 0.480651 0.319221
vt 0.471263 0.325202
vt 0.471263 0.114167
vt 0.480659 0.114167
vt 0.491005 0.311733
vt 0.491005 0.123755
vt 0.514152 0.161567
vt 0.581633 0.161567
vt 0.575385 0.168260
vt 0.514152 0.168260
vt 0.522196 0.247845
vt 0.645018 0.247786
vt 0.654605 0.258136
vt 0.529579 0.258136
vt 0.645018 0.142717
vt 0.654605 0.142717
vt 0.645067 0.406808
vt 0.646854 0.290413
vt 0.654278 0.283943
vt 0.654218 0.407122
vt 0.342178 0.507038
vt 0.624929 0.507038
vt 0.587292 0.454404
vt 0.556480 0.454404
vt 0.654605 0.267532
vt 0.535342 0.267532
vt 0.628796 0.127959
vt 0.564607 0.228207
vt 0.567637 0.237627
vt 0.637837 0.127991
vt 0.569313 0.133541
vt 0.569313 0.124164
vt 0.491495 0.124164
vt 0.498178 0.133541
vt 0.501444 0.227987
vt 0.502578 0.237400
vt 0.572690 0.244987
vt 0.645905 0.128019
vt 0.586440 0.010594
vt 0.580510 0.018195
vt 0.544394 0.020826
vt 0.595878 0.112815
vt 0.469927 0.112816
vt 0.342567 0.020837
vt 0.348438 0.009763
vt 0.348522 0.017385
vt 0.642872 0.336533
vt 0.590001 0.428672
vt 0.491495 0.272577
vt 0.498192 0.265133
vt 0.600876 0.114167
vt 0.600876 0.123755
vt 0.574083 0.282133
vt 0.575023 0.273025
vt 0.342566 0.324084
vt 0.469936 0.324079
vt 0.778006 0.372799
vt 0.852927 0.385899
vt 0.666420 0.385906
vt 0.746667 0.372799
vt 0.878316 0.345488
vt 0.920865 0.345488
vt 0.945830 0.383799
vt 0.854428 0.383799
vt 0.961171 0.039662
vt 0.978645 0.030574
vt 0.978645 0.093986
vt 0.961171 0.066843
vt 0.682828 0.191017
vt 0.666421 0.216477
vt 0.666421 0.123219
vt 0.682828 0.147580
vt 0.852927 0.479180
vt 0.666421 0.479180
vt 0.953123 0.416461
vt 0.997681 0.385947
vt 0.997681 0.479180
vt 0.953123 0.479129
vt 0.910331 0.029945
vt 0.910331 0.097743
vt 0.904874 0.097743
vt 0.904874 0.029945
vt 0.674049 0.577753
vt 0.674049 0.535875
vt 0.991051 0.535875
vt 0.991051 0.577753
vt 0.248826 0.513959
vt 0.248826 0.031575
vt 0.188528 0.031575
vt 0.188528 0.513959
vt 0.188528 0.295379
vt 0.128230 0.272778
vt 0.128230 0.513959
vt 0.930059 0.787644
vt 0.930059 0.829522
vt 0.786417 0.829522
vt 0.786417 0.787644
vt 0.991051 0.661509
vt 0.674049 0.661509
vt 0.674049 0.619631
vt 0.991051 0.619631
vt 0.067932 0.031575
vt 0.007634 0.031575
vt 0.007634 0.513959
vt 0.067932 0.513959
vt 0.674049 0.619631
vt 0.674049 0.577753
vt 0.991051 0.577753
vt 0.991051 0.619631
vt 0.128230 0.513959
vt 0.128230 0.031575
vt 0.067932 0.031575
vt 0.067932 0.513959
vt 0.951111 0.215061
vt 0.951133 0.159666
vt 0.995581 0.159666
vt 0.995581 0.215061
vt 0.995581 0.220600
vt 0.951112 0.220600
vt 0.188528 0.250177
vt 0.671965 0.285031
vt 0.703236 0.285031
vt 0.794234 0.296698
vt 0.794234 0.290768
vt 0.844732 0.290768
vt 0.844732 0.296698
vt 0.794234 0.302627
vt 0.794234 0.296698
vt 0.844732 0.296698
vt 0.844732 0.302627
vt 0.930059 0.741930
vt 0.930059 0.783808
vt 0.786403 0.783808
vt 0.786417 0.741930
vt 0.188528 0.140876
vt 0.128230 0.152177
vt 0.703236 0.343461
vt 0.671965 0.343461
vt 0.835814 0.129149
vt 0.839971 0.129149
vt 0.835814 0.191017
vt 0.802579 0.129149
vt 0.802579 0.191017
vt 0.798425 0.129149
vt 0.785639 0.147580
vt 0.785639 0.191017
vt 0.851889 0.123219
vt 0.851889 0.216453
vt 0.839971 0.123220
vt 0.798425 0.123220
vt 0.847409 0.933716
vt 0.941836 0.933716
vt 0.991051 0.996533
vt 0.847409 0.996533
vt 0.817690 0.996533
vt 0.809165 0.933716
vt 0.817690 0.933716
vt 0.674049 0.996533
vt 0.864190 0.479129
vt 0.864190 0.416461
vt 0.809164 0.875343
vt 0.705618 0.875307
vt 0.778006 0.329298
vt 0.746667 0.329298
vt 0.759674 0.301200
vt 0.674049 0.661509
vt 0.705618 0.734309
vt 0.774648 0.229600
vt 0.743310 0.229600
vt 0.743310 0.273102
vt 0.758963 0.301200
vt 0.774648 0.273102
vt 0.920865 0.286609
vt 0.878316 0.286609
vt 0.854428 0.125327
vt 0.945814 0.125327
vt 0.941836 0.734309
vt 0.991051 0.661509
vt 0.802321 0.097743
vt 0.802321 0.054324
vt 0.869229 0.029945
vt 0.869229 0.097743
vt 0.980100 0.029945
vt 0.996643 0.029945
vt 0.996643 0.123219
vt 0.980100 0.097743
vt 0.741392 0.097743
vt 0.666421 0.123219
vt 0.666421 0.029945
vt 0.741392 0.054324
vt 0.748109 0.302708
vt 0.734428 0.320487
vt 0.707862 0.320487
vt 0.707862 0.302708
vt 0.887234 0.033409
vt 0.898518 0.033409
vt 0.898518 0.084169
vt 0.887234 0.092603
vt 0.951830 0.156248
vt 0.951830 0.126919
vt 0.995655 0.126919
vt 0.995655 0.156248
vt 0.734296 0.283487
vt 0.747977 0.301091
vt 0.707730 0.301091
vt 0.707730 0.283487
vt 0.672144 0.280716
vt 0.672144 0.259270
vt 0.704507 0.259270
vt 0.704507 0.280716
vt 0.842120 0.262585
vt 0.842120 0.254003
vt 0.848598 0.247153
vt 0.848598 0.269436
vt 0.834032 0.254003
vt 0.834032 0.262585
vt 0.827574 0.269436
vt 0.827574 0.247153
vt 0.580806 0.446550
vt 0.565860 0.442545
vt 0.563546 0.427796
vt 0.578492 0.431801
vt 0.808030 0.131229
vt 0.819314 0.131229
vt 0.819314 0.182064
vt 0.808030 0.173631
vt 0.875549 0.033610
vt 0.886734 0.033610
vt 0.886734 0.092804
vt 0.875549 0.084444
vt 0.819314 0.131229
vt 0.830499 0.131229
vt 0.830499 0.173631
vt 0.819314 0.181990
vt 0.556466 0.411304
vt 0.508879 0.267198
vt 0.501743 0.334969
vt 0.342123 0.334969
vt 0.930046 0.066843
vt 0.911813 0.093986
vt 0.930046 0.039662
vt 0.911813 0.030574
vn 0.0000 1.0000 0.0000
vn 1.0000 0.0000 0.0000
vn 0.0000 -0.0000 1.0000
vn -1.0000 0.0000 -0.0000
vn 0.0000 0.0000 -1.0000
vn 0.0000 -1.0000 -0.0000
vn 0.0030 1.0000 -0.0009
vn -0.0003 1.0000 0.0002
vn -0.0000 -0.7029 -0.7113
vn 0.0000 -0.7623 0.6472
vn -0.0000 -0.7624 0.6471
vn 0.7389 -0.6738 0.0000
vn 0.0000 -0.7623 -0.6473
vn -0.0001 -0.7624 -0.6471
vn -0.0002 -0.7625 -0.6470
vn -0.0003 0.7708 0.6371
vn -0.0000 0.7700 0.6381
vn -0.0007 0.7717 0.6360
vn -0.0000 -0.7032 0.7110
vn -0.6485 -0.7612 0.0001
vn -0.6485 -0.7612 0.0000
vn 0.6497 -0.7602 0.0037
vn 0.6472 -0.7623 0.0018
vn 0.6473 -0.7622 0.0018
vn -0.6392 0.7691 0.0000
vn -0.7262 -0.6875 -0.0000
vn 0.6412 0.7674 -0.0000
vn 0.6405 0.7679 -0.0004
vn 0.6396 0.7687 -0.0007
vn 0.6448 -0.7644 -0.0000
vn -0.0000 -0.7625 0.6470
vn -0.0000 0.7719 -0.6358
vn 0.0006 -0.0003 1.0000
vn 0.0007 -0.0002 1.0000
vn 0.0010 -0.0000 1.0000
vn -0.0005 1.0000 0.0001
vn 0.0021 1.0000 -0.0006
vn 0.0003 -0.0000 1.0000
vn 0.0002 -0.0004 1.0000
vn 0.0003 -0.0002 1.0000
vn -0.0011 1.0000 0.0000
vn 0.0037 1.0000 -0.0011
vn 0.5298 0.6623 0.5298
vn -0.0006 0.7721 0.6355
vn 0.6391 0.7691 -0.0008
vn 0.6388 0.7694 -0.0009
vn -0.0005 0.7722 0.6353
usemtl basecolors.003
s 1
f 1/1/1 2/2/1 3/3/1 4/4/1
f 5/5/2 6/6/2 7/7/2 8/8/2
f 9/9/3 10/10/3 2/11/3 1/12/3
f 11/13/2 12/14/2 13/15/2 14/16/2
f 15/17/4 16/18/4 17/19/4 18/20/4
f 19/21/2 20/22/2 21/23/2 22/24/2
f 23/25/4 24/26/4 25/27/4 26/28/4
f 27/29/5 28/30/5 29/31/5 30/32/5
f 31/33/6 29/34/6 28/35/6 32/36/6
f 33/37/3 34/38/3 7/39/3 6/40/3
f 35/41/4 30/42/4 29/43/4 31/44/4
f 36/45/2 37/46/2 38/47/2 39/48/2
f 40/49/4 41/50/4 42/51/4 43/52/4
f 44/53/6 42/54/6 41/55/6 45/56/6
f 46/57/3 43/58/3 42/59/3 44/60/3
f 45/61/5 41/62/5 40/63/5 47/64/5
f 47/65/1 40/66/1 43/67/1 46/68/1
f 48/69/6 38/70/6 37/71/6 49/72/6
f 50/73/5 39/74/5 38/75/5 48/76/5
f 49/77/3 37/78/3 36/79/3 51/80/3
f 51/81/1 36/82/1 39/83/1 50/84/1
f 52/85/5 53/86/5 54/87/5 55/88/5
f 56/89/6 57/90/6 55/91/6 54/92/6
f 58/93/2 56/89/2 54/94/2 53/95/2
f 57/96/4 59/97/4 52/98/4 55/99/4
f 25/100/3 24/101/3 21/102/3 20/103/3
f 26/104/1 25/105/1 20/106/1 19/107/1
f 22/108/6 21/109/6 24/110/6 23/111/6
f 60/112/1 61/113/1 62/114/1 63/115/1
f 8/116/6 7/117/6 34/118/6 64/119/6
f 4/120/5 3/121/5 65/122/5 66/123/5
f 66/124/6 65/125/6 10/126/6 9/127/6
f 2/128/2 10/129/2 65/130/2 3/131/2
f 59/132/1 58/133/1 53/134/1 52/135/1
f 32/136/2 28/137/2 27/138/2 67/139/2
f 67/140/1 27/141/1 30/142/1 35/143/1
f 68/144/4 60/145/4 63/146/4 69/147/4
f 61/148/2 70/149/2 71/150/2 62/151/2
f 70/152/6 68/153/6 69/154/6 71/155/6
f 63/156/5 62/157/5 71/158/5 69/159/5
f 64/160/4 34/161/4 33/162/4 72/163/4
f 72/164/1 33/165/1 6/166/1 5/167/1
f 14/168/6 13/169/6 16/170/6 15/171/6
f 17/172/3 16/173/3 13/174/3 12/175/3
f 18/176/7 17/177/1 12/178/1 11/179/8
f 73/180/1 74/181/1 75/182/1 76/183/1
f 77/184/4 78/185/4 74/186/4 73/187/4
f 76/188/2 75/189/2 79/190/2 80/191/2
f 80/192/6 79/193/6 78/194/6 77/195/6
f 74/196/3 78/197/3 79/198/3 75/199/3
f 81/200/9 82/201/9 83/202/9 84/203/9
f 85/204/10 81/200/10 84/203/11 86/205/11
f 87/206/12 88/207/12 89/208/12 90/209/12
f 91/210/13 92/211/14 93/212/14 88/213/13
f 92/211/14 94/214/15 95/215/15 93/212/14
f 93/216/2 95/217/2 96/218/2 97/219/2
f 96/220/16 98/221/17 99/222/17 100/223/18
f 88/213/19 93/212/19 97/224/19 89/225/19
f 101/226/20 102/227/21 87/228/21 103/229/20
f 101/230/22 103/231/22 104/232/23 105/233/24
f 102/227/21 91/234/21 88/235/21 87/228/21
f 103/229/3 87/228/3 90/236/3 106/237/3
f 103/229/3 106/237/3 107/238/3 104/239/3
f 107/240/25 106/241/25 98/242/25 82/243/25
f 104/239/26 107/238/26 82/244/26 81/245/26
f 99/222/27 98/221/27 106/246/28 108/247/29
f 105/233/24 104/232/23 81/248/30 85/249/30
f 86/205/11 84/203/11 95/250/31 94/251/31
f 84/252/2 83/253/2 96/218/2 95/217/2
f 83/254/32 82/243/32 98/242/32 96/255/32
f 4/256/2 92/257/2 86/258/2 1/259/2
f 46/260/4 44/261/4 85/262/4 109/263/4
f 50/264/2 110/265/2 111/266/2 51/267/2
f 22/268/3 105/269/3 112/270/3 19/271/3
f 92/257/2 113/272/2 114/273/2 86/258/2
f 14/274/33 91/275/34 111/276/35 11/277/35
f 59/278/5 57/279/5 70/280/5 61/281/5
f 115/282/2 116/283/2 117/284/2 118/285/2
f 119/286/2 120/287/2 117/288/2 116/289/2
f 116/289/3 121/290/3 122/291/3 119/292/3
f 123/293/3 121/294/3 116/295/3 115/296/3
f 124/297/4 125/298/4 126/299/4 127/300/4
f 128/301/4 127/302/4 126/303/4 129/304/4
f 118/305/5 117/306/5 126/307/5 125/308/5
f 120/309/5 129/310/5 126/311/5 117/312/5
f 130/313/3 131/314/3 121/315/3 123/316/3
f 130/313/3 123/316/3 132/317/3 133/318/3
f 121/290/3 131/319/3 122/291/3
f 5/167/1 133/320/1 132/321/1 72/164/1
f 132/322/2 123/323/2 134/324/2 135/325/2
f 130/326/4 133/327/4 136/328/4 137/329/4
f 124/330/3 127/331/3 131/332/3 130/333/3
f 131/319/3 127/334/3 128/335/3 122/291/3
f 132/321/1 135/336/1 72/164/1
f 133/320/1 5/167/1 136/337/1
f 72/338/3 135/339/3 64/340/3
f 5/341/3 8/342/3 136/343/3
f 26/344/3 136/343/3 8/342/3 23/345/3
f 110/346/3 102/347/3 64/340/3 135/339/3
f 135/339/3 134/348/3 110/346/3
f 136/343/3 26/344/3 137/349/3
f 26/344/3 19/271/3 112/270/3 137/349/3
f 137/350/1 112/351/1 124/352/1 130/353/1
f 123/354/1 110/355/36 134/356/1
f 123/354/1 115/357/37 110/355/36
f 18/358/38 113/272/38 92/257/39 15/359/40
f 15/359/40 92/257/39 91/275/34 14/274/33
f 111/360/41 110/355/36 11/179/8
f 11/179/8 110/355/36 115/357/37 18/176/7
f 113/361/42 18/176/7 115/357/37
f 4/256/2 66/362/2 92/257/2
f 1/259/2 86/258/2 9/363/2
f 92/257/2 66/362/2 94/364/2
f 86/258/2 94/364/2 9/363/2
f 66/362/2 9/363/2 94/364/2
f 113/361/42 115/357/37 118/365/1 114/366/1
f 22/268/3 23/345/3 105/269/3
f 64/340/3 102/347/3 8/342/3
f 8/342/3 102/347/3 105/269/3 23/345/3
f 73/367/3 76/368/3 105/269/3 102/347/3
f 76/368/3 80/369/3 105/269/3
f 105/269/3 80/369/3 101/370/3
f 73/367/3 102/347/3 77/371/3
f 102/347/3 101/370/3 77/371/3
f 80/369/3 77/371/3 101/370/3
f 45/372/4 47/373/4 112/374/4 105/375/4
f 47/373/4 46/260/4 109/263/4 112/374/4
f 45/372/4 105/375/4 85/262/4 44/261/4
f 124/352/1 112/351/1 109/376/1 125/377/1
f 32/378/5 67/379/5 60/380/5 68/381/5
f 58/382/5 109/383/5 85/384/5 56/385/5
f 31/386/5 86/387/5 114/388/5 35/389/5
f 35/389/5 114/388/5 60/380/5 67/379/5
f 114/366/1 118/365/1 60/112/1
f 109/376/1 58/133/1 125/377/1
f 58/133/1 59/132/1 125/377/1
f 60/112/1 118/365/1 61/113/1
f 59/132/1 61/113/1 118/365/1 125/377/1
f 31/386/5 32/378/5 86/387/5
f 56/385/5 85/384/5 57/279/5
f 68/381/5 86/387/5 32/378/5
f 70/280/5 86/387/5 68/381/5
f 86/387/5 70/280/5 57/279/5 85/384/5
f 138/390/2 100/391/2 139/392/2 140/393/2
f 141/394/4 142/395/4 143/396/4 144/397/4
f 99/398/4 108/399/4 145/400/4 146/401/4
f 108/402/3 138/403/3 140/404/3 145/405/3
f 100/406/5 99/407/5 146/408/5 139/409/5
f 147/410/1 142/411/1 139/412/1 146/413/1
f 141/414/1 148/415/1 145/416/1 140/417/1
f 148/415/1 147/410/1 146/413/1 145/416/1
f 142/411/1 141/414/1 140/417/1 139/412/1
f 149/418/43 150/419/43 144/420/43 143/421/43
f 147/422/2 148/423/2 150/424/2 149/425/2
f 148/426/5 141/427/5 144/428/5 150/429/5
f 142/430/3 147/431/3 149/432/3 143/433/3
f 100/223/18 138/434/44 96/220/16
f 108/247/29 106/246/28 138/434/45
f 90/435/46 89/436/46 138/434/45 106/246/28
f 96/220/16 138/434/44 89/436/47 97/437/47
f 49/438/2 51/267/2 111/266/2 91/439/2
f 50/264/2 48/440/2 102/441/2 110/265/2
f 48/440/2 49/438/2 91/439/2 102/441/2
