# Blender v2.83.10 OBJ File: ''
# www.blender.org
mtllib road-straight-house2.mtl
o road-straight-house-2-low_Cube.011
v 4.000000 -0.999999 -3.999996
v 3.999999 0.000001 -2.999997
v 3.999999 0.000000 -1.999998
v -0.374999 0.000001 -3.999998
v 0.375001 0.000001 -3.999998
v 3.999998 1.100001 -1.999998
v 3.999998 1.000000 -1.999998
v 3.999998 1.000001 -2.999998
v 3.999998 1.100001 -2.999998
v -3.999997 1.000000 -2.000001
v -3.999997 1.100001 -2.000001
v -3.999997 1.100001 -3.000000
v -3.999997 1.000001 -3.000000
v -3.999996 1.000001 -4.000000
v -3.999997 0.000001 -3.999999
v -3.999997 0.000001 -3.000000
v 3.999999 0.000001 -3.999997
v 3.999998 1.000001 -3.999998
v 3.999999 -0.000000 1.999998
v 4.000000 -1.000000 3.999996
v -3.999997 -0.999999 -3.999999
v -3.999997 0.000000 -2.000000
v 0.375000 1.100001 -2.999999
v 0.375000 1.000001 -2.999999
v -0.374999 1.000001 -3.999999
v 0.375000 1.000001 -3.999999
v -0.374999 1.100001 -3.999999
v 0.375000 1.100001 -3.999999
v -0.375000 1.100001 -2.999999
v -0.374999 1.000001 -3.000000
v -0.000001 1.000000 -2.000000
v -0.000001 1.100001 -2.000000
v 3.999999 -0.000000 2.999997
v -3.999997 -1.000000 3.999999
v -3.999997 -0.000000 3.000000
v -3.999997 -0.000000 2.000000
v 3.999998 1.100000 1.999998
v 3.999998 1.100000 2.999998
v 3.999998 1.000000 2.999998
v 3.999998 1.000000 1.999998
v -3.999997 1.000000 2.000001
v -3.999997 1.000000 3.000000
v -3.999997 1.100000 3.000000
v -3.999997 1.100000 2.000001
v -3.999997 -0.000000 3.999999
v -3.999996 0.999999 4.000000
v 3.999998 0.999999 3.999998
v 3.999999 -0.000000 3.999997
v -0.000001 1.000000 1.999999
v 0.375001 -0.000000 3.999998
v -0.374999 -0.000000 3.999998
v 0.375000 1.100000 2.999999
v 0.375000 1.000000 2.999999
v -0.374999 0.999999 3.999999
v 0.375001 0.999999 3.999999
v 0.375001 1.100000 3.999999
v -0.374999 1.100000 3.999999
v -0.374999 1.100000 2.999999
v -0.374999 1.000000 3.000000
v -0.000001 1.100000 1.999999
vt 0.238548 0.054004
vt 0.309281 0.106817
vt 0.309281 0.159630
vt 0.167815 0.285061
vt 0.167815 0.245451
vt 0.816022 0.397795
vt 0.816022 0.392610
vt 0.928819 0.392610
vt 0.928819 0.397795
vt 0.816022 0.288909
vt 0.816022 0.283724
vt 0.928819 0.283724
vt 0.928819 0.288909
vt 0.670732 0.557163
vt 0.727205 0.557163
vt 0.727205 0.615653
vt 0.670732 0.615653
vt 0.727205 0.674142
vt 0.783678 0.674142
vt 0.783678 0.732632
vt 0.727205 0.732632
vt 0.309281 0.370882
vt 0.238548 0.476508
vt 0.097082 0.476509
vt 0.167815 0.370882
vt 0.167815 0.423696
vt 0.816022 0.340760
vt 0.928819 0.340760
vt 0.928819 0.340760
vt 0.816022 0.340760
vt 0.238548 0.476509
vt 0.167815 0.476509
vt 0.793462 0.454831
vt 0.793462 0.266873
vt 0.804742 0.266873
vt 0.804742 0.454831
vt 0.822533 0.132107
vt 0.737935 0.132107
vt 0.737935 0.080256
vt 0.822533 0.080256
vt 0.822533 0.137292
vt 0.737935 0.137292
vt 0.896009 0.263665
vt 0.896009 0.224503
vt 0.941447 0.224503
vt 0.941447 0.263665
vt 0.783678 0.792566
vt 0.988391 0.792566
vt 0.988392 0.851056
vt 0.783678 0.851056
vt 0.783678 0.851056
vt 0.988392 0.851056
vt 0.988392 0.909545
vt 0.783678 0.909545
vt 0.759623 0.402981
vt 0.759623 0.351130
vt 0.770903 0.351130
vt 0.770903 0.402981
vt 0.759623 0.454831
vt 0.759623 0.402981
vt 0.770903 0.402981
vt 0.770903 0.454831
vt 0.782182 0.266873
vt 0.782182 0.454831
vt 0.770903 0.454831
vt 0.770903 0.266873
vt 0.988391 0.481625
vt 0.988391 0.490230
vt 0.830161 0.490230
vt 0.830161 0.481625
vt 0.167815 0.054004
vt 0.986884 0.035218
vt 0.986884 0.244084
vt 0.941447 0.035218
vt 0.988391 0.792566
vt 0.783678 0.792566
vt 0.783678 0.734076
vt 0.988392 0.734076
vt 0.778203 0.754541
vt 0.778203 0.959255
vt 0.719713 0.959255
vt 0.719713 0.754541
vt 0.309281 0.423695
vt 0.097082 0.054004
vt 0.167815 0.106817
vt 0.167815 0.159630
vt 0.816022 0.397795
vt 0.928819 0.397795
vt 0.928819 0.402980
vt 0.816022 0.402980
vt 0.794334 0.189142
vt 0.907131 0.189142
vt 0.907131 0.194327
vt 0.794334 0.194327
vt 0.727205 0.557163
vt 0.783678 0.557163
vt 0.783678 0.615653
vt 0.727205 0.615653
vt 0.727205 0.615653
vt 0.783678 0.615653
vt 0.783678 0.674142
vt 0.727205 0.674142
vt 0.928819 0.454831
vt 0.816022 0.454831
vt 0.794334 0.137292
vt 0.907131 0.137292
vt 0.544501 0.032098
vt 0.544501 0.172244
vt 0.357639 0.172244
vt 0.357639 0.032098
vt 0.026349 0.285061
vt 0.026349 0.245451
vt 0.544501 0.312391
vt 0.357639 0.312391
vt 0.793462 0.454831
vt 0.782182 0.454831
vt 0.782182 0.266873
vt 0.793462 0.266873
vt 0.822533 0.132107
vt 0.822533 0.080256
vt 0.907131 0.080256
vt 0.907131 0.132107
vt 0.591216 0.172245
vt 0.544501 0.172245
vt 0.544501 0.032098
vt 0.591216 0.032098
vt 0.097082 0.476509
vt 0.026349 0.476509
vt 0.637932 0.032098
vt 0.637932 0.172244
vt 0.591216 0.172244
vt 0.591216 0.032098
vt 0.167815 0.054003
vt 0.907131 0.137292
vt 0.822533 0.137292
vt 0.764926 0.263665
vt 0.719489 0.263665
vt 0.719489 0.224503
vt 0.764926 0.224503
vt 0.988392 0.617097
vt 0.988392 0.675587
vt 0.783678 0.675587
vt 0.783678 0.617097
vt 0.988392 0.675587
vt 0.988392 0.734076
vt 0.783678 0.734076
vt 0.783678 0.675587
vt 0.731806 0.346335
vt 0.743085 0.346335
vt 0.743085 0.398185
vt 0.731806 0.398185
vt 0.731806 0.398185
vt 0.743085 0.398185
vt 0.743085 0.450036
vt 0.731806 0.450036
vt 0.816022 0.454831
vt 0.804742 0.454831
vt 0.804742 0.266873
vt 0.816022 0.266873
vt 0.988391 0.481625
vt 0.830161 0.481625
vt 0.830161 0.473019
vt 0.988391 0.473019
vt 0.674051 0.035218
vt 0.719489 0.035218
vt 0.674051 0.244084
vt 0.988391 0.558607
vt 0.988392 0.617097
vt 0.783678 0.617097
vt 0.783678 0.558607
vt 0.783678 0.968035
vt 0.783678 0.909545
vt 0.988392 0.909545
vt 0.988392 0.968035
vt 0.671930 0.490231
vt 0.671930 0.481625
vt 0.986884 0.452950
vt 0.941447 0.452950
vt 0.671930 0.481625
vt 0.671930 0.473019
vt 0.719489 0.452950
vt 0.674051 0.452950
vt 0.309281 0.476509
vt 0.309281 0.054003
vt 0.026349 0.054004
vn 1.0000 0.0000 0.0000
vn 0.0000 -0.0000 -1.0000
vn -1.0000 -0.0000 0.0000
vn 0.0000 1.0000 0.0000
vn -0.0000 -0.0000 1.0000
usemtl basecolors.014
s 1
f 1/1/1 2/2/1 3/3/1
f 1/1/2 4/4/2 5/5/2
f 6/6/1 7/7/1 8/8/1 9/9/1
f 10/10/3 11/11/3 12/12/3 13/13/3
f 13/14/3 14/15/3 15/16/3 16/17/3
f 8/18/1 2/19/1 17/20/1 18/21/1
f 1/1/1 3/3/1 19/22/1 20/23/1
f 21/24/3 22/25/3 16/26/3
f 7/7/1 3/27/1 2/28/1 8/8/1
f 10/10/3 13/13/3 16/29/3 22/30/3
f 21/31/2 15/32/2 4/4/2 1/1/2
f 23/33/2 9/34/2 8/35/2 24/36/2
f 25/37/2 26/38/2 5/39/2 4/40/2
f 26/38/2 25/37/2 27/41/2 28/42/2
f 28/43/4 27/44/4 29/45/4 23/46/4
f 26/47/2 18/48/2 17/49/2 5/50/2
f 18/51/4 26/52/4 24/53/4 8/54/4
f 24/55/1 26/56/1 28/57/1 23/58/1
f 25/59/3 30/60/3 29/61/3 27/62/3
f 12/63/2 29/64/2 30/65/2 13/66/2
f 11/67/5 10/68/5 31/69/5 32/70/5
f 1/1/2 5/5/2 17/71/2
f 11/72/4 32/73/4 29/45/4 12/74/4
f 14/75/2 25/76/2 4/77/2 15/78/2
f 25/79/4 14/80/4 13/81/4 30/82/4
f 20/23/1 19/22/1 33/83/1
f 34/84/3 35/85/3 36/86/3
f 37/87/1 38/88/1 39/89/1 40/90/1
f 41/91/3 42/92/3 43/93/3 44/94/3
f 42/95/3 35/96/3 45/97/3 46/98/3
f 39/99/1 47/100/1 48/101/1 33/102/1
f 21/24/3 34/84/3 36/86/3 22/25/3
f 40/90/1 39/89/1 33/103/1 19/104/1
f 41/91/3 36/105/3 35/106/3 42/92/3
f 7/107/4 31/108/4 49/109/4 40/110/4
f 34/84/5 50/111/5 51/112/5
f 31/108/4 10/113/4 41/114/4 49/109/4
f 52/115/5 53/116/5 39/117/5 38/118/5
f 54/119/5 51/120/5 50/121/5 55/122/5
f 10/123/3 22/124/3 36/125/3 41/126/3
f 34/84/5 20/127/5 48/128/5 50/111/5
f 7/129/1 40/130/1 19/131/1 3/132/1
f 34/84/3 45/133/3 35/85/3
f 55/122/5 56/134/5 57/135/5 54/119/5
f 56/136/4 52/137/4 58/138/4 57/139/4
f 55/140/5 50/141/5 48/142/5 47/143/5
f 47/144/4 39/145/4 53/146/4 55/147/4
f 53/148/1 52/149/1 56/150/1 55/151/1
f 54/152/3 57/153/3 58/154/3 59/155/3
f 21/24/3 16/26/3 15/32/3
f 43/156/5 42/157/5 59/158/5 58/159/5
f 44/160/2 60/161/2 49/162/2 41/163/2
f 44/164/4 43/165/4 58/138/4 60/166/4
f 46/167/5 45/168/5 51/169/5 54/170/5
f 54/171/4 59/172/4 42/173/4 46/174/4
f 32/73/4 23/46/4 29/45/4
f 32/70/5 31/69/5 7/175/5 6/176/5
f 32/73/4 6/177/4 9/178/4 23/46/4
f 60/166/4 58/138/4 52/137/4
f 60/161/2 37/179/2 40/180/2 49/162/2
f 60/166/4 52/137/4 38/181/4 37/182/4
f 20/23/1 33/83/1 48/183/1
f 1/1/1 17/184/1 2/2/1
f 34/84/5 51/112/5 45/185/5
