# Blender v2.83.10 OBJ File: 'modularV2.blend'
# www.blender.org
mtllib 0bj0.mtl
g G-__555798
v -0.571723 0.106250 0.125000
v -0.671723 0.106250 -0.125000
v -0.671723 0.106250 0.125000
v -0.571723 0.106250 -0.125000
v 0.528277 0.212500 0.500000
v -0.471723 0.000000 0.500000
v 0.528277 0.000000 0.500000
v -0.471723 0.212500 0.500000
v 0.528277 0.837500 0.500000
v -0.471723 0.837500 -0.500000
v -0.471723 0.837500 0.500000
v 0.528277 0.837500 -0.500000
v -0.471723 0.212500 -0.500000
v 0.528277 0.000000 -0.500000
v -0.471723 0.000000 -0.500000
v 0.528277 0.212500 -0.500000
v -0.471723 0.712500 0.125000
v -0.471723 0.712500 -0.125000
v -0.471723 0.212500 -0.125000
v -0.471723 0.212500 0.125000
v -0.471723 0.000000 0.125000
v -0.671723 0.000000 0.125000
v -0.571723 0.212500 0.125000
v -0.471723 0.000000 -0.125000
v -0.671723 0.000000 -0.125000
v -0.371723 0.212500 0.125000
v -0.371723 0.712500 0.125000
v -0.371723 0.712500 -0.125000
v -0.571723 0.212500 -0.125000
v -0.371723 0.212500 -0.125000
vn 0.0000 1.0000 0.0000
vn 0.0000 0.0000 1.0000
vn 0.0000 0.0000 -1.0000
vn -1.0000 0.0000 0.0000
vn 1.0000 0.0000 0.0000
vn 0.0000 -1.0000 0.0000
g G-__555798_G-__555798_Dark_brick
usemtl Dark_brick
s off
f 1//1 2//1 3//1
f 2//1 1//1 4//1
f 5//2 6//2 7//2
f 6//2 5//2 8//2
g G-__555798_G-__555798_Brick
usemtl Brick
f 9//1 10//1 11//1
f 10//1 9//1 12//1
f 9//2 8//2 5//2
f 8//2 9//2 11//2
g G-__555798_G-__555798_Dark_brick
usemtl Dark_brick
f 13//3 14//3 15//3
f 14//3 13//3 16//3
g G-__555798_G-__555798_Brick
usemtl Brick
f 11//4 17//4 8//4
f 17//4 11//4 10//4
f 17//4 10//4 18//4
f 18//4 10//4 19//4
f 19//4 10//4 13//4
f 20//4 8//4 17//4
g G-__555798_G-__555798_Dark_brick
usemtl Dark_brick
f 20//4 6//4 8//4
f 6//4 20//4 21//4
f 21//2 1//2 22//2
f 1//2 21//2 20//2
f 1//2 20//2 23//2
f 1//2 3//2 22//2
f 14//5 5//5 7//5
f 5//5 14//5 16//5
f 13//4 24//4 19//4
f 24//4 13//4 15//4
f 2//4 22//4 3//4
f 22//4 2//4 25//4
g G-__555798_G-__555798_Brick
usemtl Brick
f 17//3 26//3 20//3
f 26//3 17//3 27//3
f 28//6 17//6 18//6
f 17//6 28//6 27//6
g G-__555798_G-__555798_Dark_brick
usemtl Dark_brick
f 2//3 24//3 25//3
f 24//3 2//3 4//3
f 24//3 4//3 19//3
f 19//3 4//3 29//3
g G-__555798_G-__555798_Brick
usemtl Brick
f 10//3 16//3 13//3
f 16//3 10//3 12//3
f 16//5 9//5 5//5
f 9//5 16//5 12//5
g G-__555798_G-__555798_Dark_brick
usemtl Dark_brick
f 14//6 24//6 15//6
f 24//6 14//6 21//6
f 21//6 14//6 6//6
f 6//6 14//6 7//6
f 24//6 22//6 25//6
f 22//6 24//6 21//6
f 20//1 29//1 23//1
f 29//1 20//1 19//1
f 19//1 20//1 26//1
f 19//1 26//1 30//1
f 29//4 1//4 23//4
f 1//4 29//4 4//4
g G-__555798_G-__555798_Brick
usemtl Brick
f 28//2 19//2 30//2
f 19//2 28//2 18//2
g G-__555798_G-__555798_Glass
usemtl Glass
f 28//4 26//4 27//4
f 26//4 28//4 30//4
