# Blender v2.83.10 OBJ File: 'modularV2.blend'
# www.blender.org
mtllib 0bj11.mtl
g G-__555753
v -0.390391 0.310000 0.062500
v -0.490391 0.000000 0.062500
v -0.390391 0.000000 0.062500
v -0.490391 0.310000 0.062500
v -0.490391 0.625000 -0.500000
v 0.509609 0.000000 -0.500000
v -0.490391 0.000000 -0.500000
v 0.509609 0.625000 -0.500000
v 0.509609 0.625000 0.500000
v 0.509609 0.000000 0.500000
v -0.490391 0.625000 0.500000
v -0.490391 0.350440 0.369676
v -0.490391 0.000000 0.500000
v -0.490391 0.388125 0.354067
v -0.490391 0.420485 0.329236
v -0.490391 0.445316 0.296875
v -0.490391 0.460926 0.259191
v -0.490391 0.310000 0.375000
v -0.490391 0.466250 0.218750
v -0.490391 0.460926 0.178310
v -0.490391 0.445316 0.140625
v -0.490391 0.420485 0.108265
v -0.490391 0.388125 0.083434
v -0.490391 0.350440 0.067824
v -0.490391 0.445316 -0.140625
v -0.490391 0.420485 -0.108264
v -0.490391 0.388125 -0.083433
v -0.490391 0.350440 -0.067824
v -0.490391 0.310000 -0.062500
v -0.490391 0.460926 -0.178309
v -0.490391 0.466250 -0.218750
v -0.490391 0.460926 -0.259190
v -0.490391 0.445316 -0.296875
v -0.490391 0.420485 -0.329235
v -0.490391 0.388125 -0.354066
v -0.490391 0.350440 -0.369676
v -0.490391 0.310000 -0.375000
v -0.490391 0.000000 -0.375000
v -0.490391 0.000000 -0.062500
v -0.490391 0.000000 0.375000
v -0.390391 0.000000 -0.375000
v -0.390391 0.000000 -0.062500
v -0.390391 0.000000 0.375000
v -0.390391 0.350440 -0.067824
v -0.390391 0.388125 -0.083433
v -0.390391 0.350440 0.369676
v -0.390391 0.310000 0.375000
v -0.390391 0.388125 0.354067
v -0.390391 0.420485 0.329236
v -0.390391 0.445316 0.296875
v -0.390391 0.460926 0.259191
v -0.390391 0.466250 0.218750
v -0.390391 0.460926 0.178310
v -0.390391 0.445316 0.140625
v -0.390391 0.420485 0.108265
v -0.390391 0.388125 0.083434
v -0.390391 0.350440 0.067824
v -0.390391 0.310000 -0.062500
v -0.390391 0.310000 -0.375000
v -0.390391 0.445316 -0.296875
v -0.390391 0.460926 -0.259190
v -0.390391 0.420485 -0.108264
v -0.390391 0.445316 -0.140625
v -0.390391 0.460926 -0.178309
v -0.390391 0.466250 -0.218750
v -0.390391 0.420485 -0.329235
v -0.390391 0.388125 -0.354066
v -0.390391 0.350440 -0.369676
vn 0.0000 0.0000 1.0000
vn 0.0000 0.0000 -1.0000
vn 1.0000 0.0000 0.0000
vn -1.0000 0.0000 0.0000
vn 0.0000 -1.0000 0.0000
vn -0.7377 -0.3375 -0.5847
vn -0.6789 -0.1900 -0.7092
vn -0.7377 -0.1747 -0.6521
vn -0.6789 -0.3671 -0.6359
vn -0.6926 -0.0472 -0.7197
vn -0.7221 -0.0452 -0.6903
vn -0.6789 -0.7092 -0.1900
vn -0.7377 -0.5847 -0.3375
vn -0.7377 -0.6521 -0.1747
vn -0.6789 -0.6359 -0.3671
vn -0.6789 -0.6359 0.3671
vn -0.7377 -0.6521 0.1747
vn -0.7377 -0.5847 0.3375
vn -0.6789 -0.7092 0.1900
vn -0.6789 -0.5192 0.5192
vn -0.7377 -0.4774 0.4774
vn -0.7377 -0.4774 -0.4774
vn -0.6789 -0.5192 -0.5192
vn -0.6789 -0.3671 0.6359
vn -0.7377 -0.1747 0.6521
vn -0.6789 -0.1900 0.7092
vn -0.7377 -0.3375 0.5847
vn -0.7377 -0.5847 -0.3376
vn -0.7377 -0.6751 0.0000
vn -0.6789 -0.7342 0.0000
vn -0.7221 -0.0452 0.6903
vn -0.6926 -0.0472 0.7197
vn 0.0000 1.0000 0.0000
g G-__555753_G-__555753_Brick
usemtl Brick
s off
f 1//1 2//1 3//1
f 2//1 1//1 4//1
f 5//2 6//2 7//2
f 6//2 5//2 8//2
f 6//3 9//3 10//3
f 9//3 6//3 8//3
f 11//4 12//4 13//4
f 12//4 11//4 14//4
f 14//4 11//4 15//4
f 15//4 11//4 16//4
f 16//4 11//4 17//4
f 17//4 11//4 5//4
f 13//4 12//4 18//4
f 17//4 5//4 19//4
f 19//4 5//4 20//4
f 20//4 5//4 21//4
f 21//4 5//4 22//4
f 22//4 5//4 23//4
f 23//4 5//4 24//4
f 24//4 5//4 25//4
f 24//4 25//4 4//4
f 4//4 25//4 26//4
f 4//4 26//4 27//4
f 4//4 27//4 28//4
f 4//4 28//4 2//4
f 2//4 28//4 29//4
f 25//4 5//4 30//4
f 30//4 5//4 31//4
f 31//4 5//4 32//4
f 32//4 5//4 33//4
f 33//4 5//4 34//4
f 34//4 5//4 35//4
f 35//4 5//4 36//4
f 36//4 5//4 37//4
f 37//4 5//4 38//4
f 38//4 5//4 7//4
f 39//4 2//4 29//4
f 40//4 13//4 18//4
f 6//5 38//5 7//5
f 38//5 6//5 41//5
f 41//5 6//5 42//5
f 42//5 6//5 3//5
f 3//5 6//5 43//5
f 43//5 13//5 40//5
f 13//5 43//5 10//5
f 10//5 43//5 6//5
f 42//5 2//5 39//5
f 2//5 42//5 3//5
s 49
f 27//6 44//7 28//8
f 44//7 27//6 45//9
s off
f 9//1 13//1 10//1
f 13//1 9//1 11//1
g G-__555753_G-__555753_Glass
usemtl Glass
f 46//4 43//4 47//4
f 43//4 46//4 3//4
f 3//4 46//4 48//4
f 3//4 48//4 49//4
f 3//4 49//4 50//4
f 3//4 50//4 51//4
f 3//4 51//4 52//4
f 3//4 52//4 53//4
f 3//4 53//4 54//4
f 3//4 54//4 55//4
f 3//4 55//4 56//4
f 3//4 56//4 57//4
f 1//4 3//4 57//4
g G-__555753_G-__555753_Brick
usemtl Brick
f 29//2 42//2 39//2
f 42//2 29//2 58//2
f 59//1 38//1 41//1
f 38//1 59//1 37//1
s 49
f 28//8 58//10 29//11
f 58//10 28//8 44//7
s 69
f 51//12 16//13 17//14
f 16//13 51//12 50//15
s 49
f 60//16 32//17 33//18
f 32//17 60//16 61//19
s off
f 18//2 43//2 40//2
f 43//2 18//2 47//2
g G-__555753_G-__555753_Glass
usemtl Glass
f 44//4 42//4 58//4
f 42//4 44//4 41//4
f 41//4 44//4 45//4
f 41//4 45//4 62//4
f 41//4 62//4 63//4
f 41//4 63//4 64//4
f 41//4 64//4 65//4
f 41//4 65//4 61//4
f 41//4 61//4 60//4
f 41//4 60//4 66//4
f 41//4 66//4 67//4
f 41//4 67//4 68//4
f 41//4 68//4 59//4
g G-__555753_G-__555753_Brick
usemtl Brick
s 49
f 66//20 33//18 34//21
f 33//18 66//20 60//16
s 69
f 50//15 15//22 16//13
f 15//22 50//15 49//23
f 56//24 24//25 57//26
f 24//25 56//24 23//27
s 49
f 63//15 26//22 25//28
f 26//22 63//15 62//23
s 69
f 15//22 48//9 14//6
f 48//9 15//22 49//23
f 54//16 20//17 21//18
f 20//17 54//16 53//19
s 49
f 64//12 25//28 30//14
f 25//28 64//12 63//15
s 69
f 53//19 19//29 20//17
f 19//29 53//19 52//30
s 49
f 68//26 37//31 59//32
f 37//31 68//26 36//25
s 69
f 1//32 57//26 4//31
f 4//31 57//26 24//25
s 49
f 65//30 30//14 31//29
f 30//14 65//30 64//12
s off
f 9//33 5//33 11//33
f 5//33 9//33 8//33
s 69
f 55//20 21//18 22//21
f 21//18 55//20 54//16
s 49
f 26//22 45//9 27//6
f 45//9 26//22 62//23
f 67//24 36//25 68//26
f 36//25 67//24 35//27
f 66//20 35//27 67//24
f 35//27 66//20 34//21
s 69
f 14//6 46//7 12//8
f 46//7 14//6 48//9
s 49
f 61//19 31//29 32//17
f 31//29 61//19 65//30
s 69
f 12//8 47//10 18//11
f 47//10 12//8 46//7
f 52//30 17//14 19//29
f 17//14 52//30 51//12
f 55//20 23//27 56//24
f 23//27 55//20 22//21
