# Blender v2.83.10 OBJ File: 'modularV2.blend'
# www.blender.org
mtllib 0bj15.mtl
g G-__556194
v -0.509722 0.625000 -0.490278
v 0.490278 0.000000 -0.490278
v -0.509722 0.000000 -0.490278
v 0.490278 0.625000 -0.490278
v -0.409722 0.500000 -0.365278
v -0.509722 0.500000 0.509722
v -0.509722 0.500000 -0.365278
v -0.409722 0.500000 0.509722
v 0.490278 0.625000 0.509722
v -0.509722 0.625000 0.509722
v -0.509722 0.000000 -0.365278
v -0.409722 0.000000 0.509722
v 0.490278 0.000000 0.509722
v -0.409722 0.000000 -0.365278
vn 0.0000 0.0000 -1.0000
vn 0.0000 -1.0000 0.0000
vn 0.0000 1.0000 0.0000
vn -1.0000 0.0000 0.0000
vn 0.0000 0.0000 1.0000
vn 1.0000 0.0000 0.0000
g G-__556194_G-__556194_Brick
usemtl Brick
s off
f 1//1 2//1 3//1
f 2//1 1//1 4//1
f 5//2 6//2 7//2
f 6//2 5//2 8//2
f 9//3 1//3 10//3
f 1//3 9//3 4//3
f 1//4 6//4 10//4
f 6//4 1//4 7//4
f 7//4 1//4 11//4
f 11//4 1//4 3//4
f 9//5 12//5 13//5
f 12//5 9//5 8//5
f 8//5 9//5 6//5
f 6//5 9//5 10//5
f 5//5 11//5 14//5
f 11//5 5//5 7//5
g G-__556194_G-__556194_Glass
usemtl Glass
f 5//4 12//4 8//4
f 12//4 5//4 14//4
g G-__556194_G-__556194_Brick
usemtl Brick
f 2//6 9//6 13//6
f 9//6 2//6 4//6
f 2//2 11//2 3//2
f 11//2 2//2 14//2
f 14//2 2//2 12//2
f 12//2 2//2 13//2
