# Blender v2.83.10 OBJ File: 'modularV2.blend'
# www.blender.org
mtllib 0bj19.mtl
g G-__555969
v -0.498370 0.500000 0.375000
v -0.398370 0.000000 0.375000
v -0.498370 0.000000 0.375000
v -0.398370 0.500000 0.375000
v -0.398370 0.500000 -0.375000
v -0.498370 0.000000 -0.375000
v -0.398370 0.000000 -0.375000
v -0.498370 0.500000 -0.375000
v -0.498370 0.625000 -0.500000
v 0.501630 0.000000 -0.500000
v -0.498370 0.000000 -0.500000
v 0.501630 0.625000 -0.500000
v -0.498370 0.000000 0.500000
v 0.501630 0.000000 0.500000
v 0.501630 0.625000 0.500000
v -0.498370 0.625000 0.500000
vn 0.0000 0.0000 -1.0000
vn 0.0000 0.0000 1.0000
vn 0.0000 -1.0000 0.0000
vn 0.0000 1.0000 0.0000
vn -1.0000 0.0000 0.0000
vn 1.0000 0.0000 0.0000
g G-__555969_G-__555969_Brick
usemtl Brick
s off
f 1//1 2//1 3//1
f 2//1 1//1 4//1
f 5//2 6//2 7//2
f 6//2 5//2 8//2
f 9//1 10//1 11//1
f 10//1 9//1 12//1
f 10//3 6//3 11//3
f 6//3 10//3 7//3
f 7//3 10//3 2//3
f 2//3 13//3 3//3
f 13//3 2//3 14//3
f 14//3 2//3 10//3
f 15//4 9//4 16//4
f 9//4 15//4 12//4
f 5//3 1//3 8//3
f 1//3 5//3 4//3
g G-__555969_G-__555969_Glass
usemtl Glass
f 5//5 2//5 4//5
f 2//5 5//5 7//5
g G-__555969_G-__555969_Brick
usemtl Brick
f 15//2 13//2 14//2
f 13//2 15//2 16//2
f 16//5 1//5 13//5
f 1//5 16//5 9//5
f 1//5 9//5 8//5
f 8//5 9//5 6//5
f 6//5 9//5 11//5
f 1//5 3//5 13//5
f 10//6 15//6 14//6
f 15//6 10//6 12//6
