# Blender v2.83.10 OBJ File: 'modularV2.blend'
# www.blender.org
mtllib 0bj13.mtl
g G-__555744
v -0.496284 0.625000 -0.062500
v -0.496284 0.000000 0.062500
v -0.496284 0.625000 0.062500
v -0.496284 0.000000 -0.062500
v -0.396284 0.625000 -0.375000
v -0.396284 0.000000 -0.062500
v -0.396284 0.625000 -0.062500
v -0.396284 0.000000 -0.375000
v -0.496284 0.625000 -0.500000
v -0.496284 0.000000 -0.375000
v -0.496284 0.625000 -0.375000
v -0.496284 0.000000 -0.500000
v 0.503716 0.000000 -0.500000
v -0.396284 0.000000 0.062500
v -0.396284 0.000000 0.375000
v -0.496284 0.000000 0.500000
v -0.496284 0.000000 0.375000
v 0.503716 0.000000 0.500000
v -0.396284 0.625000 0.062500
v 0.503716 0.625000 -0.500000
v -0.496284 0.625000 0.375000
v -0.496284 0.625000 0.500000
v -0.396284 0.625000 0.375000
v 0.503716 0.625000 0.500000
vn -1.0000 0.0000 0.0000
vn 0.0000 -1.0000 0.0000
vn 0.0000 0.0000 -1.0000
vn 0.0000 0.0000 1.0000
vn 1.0000 0.0000 0.0000
vn 0.0000 1.0000 0.0000
g G-__555744_G-__555744_Brick
usemtl Brick
s off
f 1//1 2//1 3//1
f 2//1 1//1 4//1
g G-__555744_G-__555744_Glass
usemtl Glass
f 5//1 6//1 7//1
f 6//1 5//1 8//1
g G-__555744_G-__555744_Brick
usemtl Brick
f 9//1 10//1 11//1
f 10//1 9//1 12//1
f 13//2 10//2 12//2
f 10//2 13//2 8//2
f 8//2 13//2 6//2
f 6//2 13//2 14//2
f 14//2 13//2 15//2
f 15//2 16//2 17//2
f 16//2 15//2 18//2
f 18//2 15//2 13//2
f 6//2 2//2 4//2
f 2//2 6//2 14//2
f 1//3 6//3 4//3
f 6//3 1//3 7//3
f 19//4 2//4 14//4
f 2//4 19//4 3//4
f 9//3 13//3 12//3
f 13//3 9//3 20//3
f 21//1 16//1 22//1
f 16//1 21//1 17//1
f 21//3 15//3 17//3
f 15//3 21//3 23//3
f 24//4 16//4 18//4
f 16//4 24//4 22//4
f 13//5 24//5 18//5
f 24//5 13//5 20//5
g G-__555744_G-__555744_Glass
usemtl Glass
f 19//1 15//1 23//1
f 15//1 19//1 14//1
g G-__555744_G-__555744_Brick
usemtl Brick
f 5//4 10//4 8//4
f 10//4 5//4 11//4
f 24//6 21//6 22//6
f 21//6 24//6 23//6
f 23//6 24//6 19//6
f 19//6 24//6 7//6
f 7//6 24//6 5//6
f 5//6 9//6 11//6
f 9//6 5//6 20//6
f 20//6 5//6 24//6
f 19//6 1//6 3//6
f 1//6 19//6 7//6
