# Blender v2.83.10 OBJ File: 'modularV2.blend'
# www.blender.org
mtllib 0bj17.mtl
g G-__556104
v 0.510876 0.625000 0.506532
v -0.489124 0.000000 0.506532
v 0.510876 0.000000 0.506532
v -0.489124 0.625000 0.506532
v -0.389124 0.500000 -0.368468
v -0.489124 0.500000 -0.055968
v -0.489124 0.500000 -0.368468
v -0.389124 0.500000 -0.055968
v -0.489124 0.625000 -0.493468
v -0.489124 0.120000 -0.368468
v -0.489124 0.120000 -0.055968
v -0.489124 0.000000 -0.493468
v 0.510876 0.000000 -0.493468
v 0.510876 0.625000 -0.493468
v -0.389124 0.120000 -0.055968
v -0.389124 0.120000 -0.368468
vn 0.0000 0.0000 1.0000
vn 0.0000 -1.0000 0.0000
vn -1.0000 0.0000 0.0000
vn 1.0000 0.0000 0.0000
vn 0.0000 1.0000 0.0000
vn 0.0000 0.0000 -1.0000
g G-__556104_G-__556104_Brick
usemtl Brick
s off
f 1//1 2//1 3//1
f 2//1 1//1 4//1
f 5//2 6//2 7//2
f 6//2 5//2 8//2
f 4//3 6//3 2//3
f 6//3 4//3 9//3
f 6//3 9//3 7//3
f 7//3 9//3 10//3
f 2//3 11//3 12//3
f 11//3 2//3 6//3
f 12//3 11//3 10//3
f 12//3 10//3 9//3
f 13//4 1//4 3//4
f 1//4 13//4 14//4
f 15//5 10//5 11//5
f 10//5 15//5 16//5
f 5//1 10//1 16//1
f 10//1 5//1 7//1
g G-__556104_G-__556104_Glass
usemtl Glass
f 5//3 15//3 8//3
f 15//3 5//3 16//3
g G-__556104_G-__556104_Brick
usemtl Brick
f 6//6 15//6 11//6
f 15//6 6//6 8//6
f 1//5 9//5 4//5
f 9//5 1//5 14//5
f 13//2 2//2 12//2
f 2//2 13//2 3//2
f 9//6 13//6 12//6
f 13//6 9//6 14//6
