# Blender v2.83.10 OBJ File: 'modularV2.blend'
# www.blender.org
mtllib 0bj10.mtl
g G-__556095
v -0.429659 0.500000 -0.125000
v -0.529658 0.000000 -0.125000
v -0.429659 0.000000 -0.125000
v -0.529658 0.500000 -0.125000
v -0.529658 0.625000 -0.250000
v -0.279658 0.000000 -0.500000
v -0.529658 0.000000 -0.250000
v -0.279658 0.625000 -0.500000
v -0.529658 0.625000 0.250000
v -0.279658 0.000000 0.500000
v -0.279658 0.625000 0.500000
v -0.529658 0.000000 0.250000
v -0.529658 0.500000 0.125000
v -0.429659 0.000000 0.125000
v -0.529658 0.000000 0.125000
v -0.429659 0.500000 0.125000
v 0.470342 0.625000 -0.500000
v 0.470342 0.000000 -0.500000
v 0.470342 0.625000 0.500000
v 0.470342 0.000000 0.500000
vn 0.0000 0.0000 1.0000
vn -0.7071 0.0000 -0.7071
vn -0.7071 0.0000 0.7071
vn 0.0000 0.0000 -1.0000
vn 0.0000 -1.0000 0.0000
vn -1.0000 0.0000 0.0000
vn 0.0000 1.0000 0.0000
vn 1.0000 0.0000 0.0000
g G-__556095_G-__556095_Brick
usemtl Brick
s off
f 1//1 2//1 3//1
f 2//1 1//1 4//1
f 5//2 6//2 7//2
f 6//2 5//2 8//2
f 9//3 10//3 11//3
f 10//3 9//3 12//3
f 13//4 14//4 15//4
f 14//4 13//4 16//4
f 1//5 13//5 4//5
f 13//5 1//5 16//5
g G-__556095_G-__556095_Glass
usemtl Glass
f 1//6 14//6 16//6
f 14//6 1//6 3//6
g G-__556095_G-__556095_Brick
usemtl Brick
f 6//4 17//4 18//4
f 17//4 6//4 8//4
f 11//7 5//7 9//7
f 5//7 11//7 8//7
f 8//7 11//7 17//7
f 17//7 11//7 19//7
f 6//5 2//5 7//5
f 2//5 6//5 3//5
f 3//5 6//5 14//5
f 15//5 10//5 12//5
f 10//5 15//5 14//5
f 10//5 14//5 6//5
f 10//5 6//5 18//5
f 10//5 18//5 20//5
f 9//6 13//6 12//6
f 13//6 9//6 5//6
f 13//6 5//6 4//6
f 4//6 5//6 2//6
f 2//6 5//6 7//6
f 15//6 12//6 13//6
f 19//1 10//1 20//1
f 10//1 19//1 11//1
f 18//8 19//8 20//8
f 19//8 18//8 17//8
