# Blender v2.83.10 OBJ File: 'modularV2.blend'
# www.blender.org
mtllib 0bj12.mtl
g G-__555987
v 0.510876 0.000000 -0.500000
v -0.489124 0.000000 0.500000
v -0.489124 0.000000 -0.500000
v 0.510876 0.000000 0.500000
v 0.510876 0.625000 0.500000
v -0.489124 0.625000 0.500000
v -0.389124 0.120000 0.156250
v -0.489124 0.120000 -0.156250
v -0.489124 0.120000 0.156250
v -0.389124 0.120000 -0.156250
v -0.489124 0.500000 0.156250
v -0.389124 0.500000 0.156250
v -0.389124 0.500000 -0.156250
v -0.489124 0.500000 -0.156250
v -0.489124 0.625000 -0.500000
v 0.510876 0.625000 -0.500000
vn 0.0000 -1.0000 0.0000
vn 0.0000 0.0000 1.0000
vn 0.0000 1.0000 0.0000
vn 0.0000 0.0000 -1.0000
vn -1.0000 0.0000 0.0000
vn 1.0000 0.0000 0.0000
g G-__555987_G-__555987_Brick
usemtl Brick
s off
f 1//1 2//1 3//1
f 2//1 1//1 4//1
f 5//2 2//2 4//2
f 2//2 5//2 6//2
f 7//3 8//3 9//3
f 8//3 7//3 10//3
f 11//4 7//4 9//4
f 7//4 11//4 12//4
f 13//2 8//2 10//2
f 8//2 13//2 14//2
f 15//4 1//4 3//4
f 1//4 15//4 16//4
f 5//3 15//3 6//3
f 15//3 5//3 16//3
f 13//1 11//1 14//1
f 11//1 13//1 12//1
g G-__555987_G-__555987_Glass
usemtl Glass
f 13//5 7//5 12//5
f 7//5 13//5 10//5
g G-__555987_G-__555987_Brick
usemtl Brick
f 1//6 5//6 4//6
f 5//6 1//6 16//6
f 6//5 11//5 2//5
f 11//5 6//5 15//5
f 11//5 15//5 14//5
f 14//5 15//5 8//5
f 2//5 9//5 3//5
f 9//5 2//5 11//5
f 3//5 9//5 8//5
f 3//5 8//5 15//5
