# Blender v2.83.10 OBJ File: 'modularV2.blend'
# www.blender.org
mtllib 0bj1.mtl
g G-__555771
v -0.357000 0.712500 -0.125000
v -0.457000 0.712500 0.125000
v -0.457000 0.712500 -0.125000
v -0.357000 0.712500 0.125000
v -0.357000 0.712500 -0.406250
v -0.457000 0.712500 -0.218750
v -0.457000 0.712500 -0.406250
v -0.357000 0.712500 -0.218750
v -0.357000 0.290625 -0.218750
v -0.457000 0.290625 -0.406250
v -0.457000 0.290625 -0.218750
v -0.357000 0.290625 -0.406250
v 0.543000 0.000000 -0.500000
v -0.457000 0.000000 -0.125000
v -0.457000 0.000000 -0.500000
v -0.457000 0.000000 0.125000
v -0.457000 0.000000 0.500000
v 0.543000 0.000000 0.500000
v -0.657000 0.000000 0.125000
v -0.657000 0.000000 -0.125000
v -0.357000 0.212500 0.125000
v -0.357000 0.212500 -0.125000
v -0.557000 0.212500 -0.125000
v -0.557000 0.106250 0.125000
v -0.557000 0.212500 0.125000
v -0.557000 0.106250 -0.125000
v -0.657000 0.106250 -0.125000
v -0.457000 0.212500 -0.125000
v -0.457000 0.837500 -0.500000
v 0.543000 0.212500 -0.500000
v -0.457000 0.212500 -0.500000
v 0.543000 0.837500 -0.500000
v -0.457000 0.212500 0.500000
v -0.457000 0.290625 0.406250
v -0.457000 0.212500 0.125000
v -0.457000 0.712500 0.406250
v -0.457000 0.290625 0.218750
v -0.457000 0.837500 0.500000
v -0.457000 0.712500 0.218750
v 0.543000 0.212500 0.500000
v -0.357000 0.712500 0.218750
v -0.357000 0.290625 0.218750
v -0.657000 0.106250 0.125000
v 0.543000 0.837500 0.500000
v -0.357000 0.290625 0.406250
v -0.357000 0.712500 0.406250
vn 0.0000 -1.0000 0.0000
vn 0.0000 1.0000 0.0000
vn -1.0000 0.0000 0.0000
vn 0.0000 0.0000 -1.0000
vn 1.0000 0.0000 0.0000
vn 0.0000 0.0000 1.0000
g G-__555771_G-__555771_Brick
usemtl Brick
s off
f 1//1 2//1 3//1
f 2//1 1//1 4//1
f 5//1 6//1 7//1
f 6//1 5//1 8//1
f 9//2 10//2 11//2
f 10//2 9//2 12//2
g G-__555771_G-__555771_Dark_brick
usemtl Dark_brick
f 13//1 14//1 15//1
f 14//1 13//1 16//1
f 16//1 13//1 17//1
f 17//1 13//1 18//1
f 14//1 19//1 20//1
f 19//1 14//1 16//1
g G-__555771_G-__555771_Glass
usemtl Glass
f 1//3 21//3 4//3
f 21//3 1//3 22//3
g G-__555771_G-__555771_Dark_brick
usemtl Dark_brick
f 23//3 24//3 25//3
f 24//3 23//3 26//3
f 27//4 14//4 20//4
f 14//4 27//4 26//4
f 14//4 26//4 28//4
f 28//4 26//4 23//4
g G-__555771_G-__555771_Brick
usemtl Brick
f 29//4 30//4 31//4
f 30//4 29//4 32//4
f 33//3 34//3 35//3
f 34//3 33//3 36//3
f 35//3 34//3 37//3
f 35//3 37//3 2//3
f 38//3 36//3 33//3
f 36//3 38//3 29//3
f 36//3 29//3 39//3
f 39//3 29//3 2//3
f 39//3 2//3 37//3
f 2//3 29//3 3//3
f 3//3 29//3 6//3
f 3//3 6//3 28//3
f 6//3 29//3 7//3
f 7//3 29//3 10//3
f 28//3 11//3 31//3
f 11//3 28//3 6//3
f 31//3 11//3 10//3
f 31//3 10//3 29//3
g G-__555771_G-__555771_Dark_brick
usemtl Dark_brick
f 13//5 40//5 18//5
f 40//5 13//5 30//5
g G-__555771_G-__555771_Brick
usemtl Brick
f 41//6 37//6 42//6
f 37//6 41//6 39//6
g G-__555771_G-__555771_Dark_brick
usemtl Dark_brick
f 24//2 27//2 43//2
f 27//2 24//2 26//2
g G-__555771_G-__555771_Brick
usemtl Brick
f 44//2 29//2 38//2
f 29//2 44//2 32//2
f 6//4 9//4 11//4
f 9//4 6//4 8//4
f 45//2 37//2 34//2
f 37//2 45//2 42//2
g G-__555771_G-__555771_Dark_brick
usemtl Dark_brick
f 40//6 17//6 18//6
f 17//6 40//6 33//6
g G-__555771_G-__555771_Glass
usemtl Glass
f 5//3 9//3 8//3
f 9//3 5//3 12//3
g G-__555771_G-__555771_Dark_brick
usemtl Dark_brick
f 27//3 19//3 43//3
f 19//3 27//3 20//3
f 31//3 14//3 28//3
f 14//3 31//3 15//3
f 16//6 24//6 19//6
f 24//6 16//6 35//6
f 24//6 35//6 25//6
f 43//6 19//6 24//6
g G-__555771_G-__555771_Glass
usemtl Glass
f 41//3 45//3 46//3
f 45//3 41//3 42//3
g G-__555771_G-__555771_Dark_brick
usemtl Dark_brick
f 35//3 17//3 33//3
f 17//3 35//3 16//3
g G-__555771_G-__555771_Brick
usemtl Brick
f 1//6 28//6 22//6
f 28//6 1//6 3//6
g G-__555771_G-__555771_Dark_brick
usemtl Dark_brick
f 31//4 13//4 15//4
f 13//4 31//4 30//4
g G-__555771_G-__555771_Brick
usemtl Brick
f 5//6 10//6 12//6
f 10//6 5//6 7//6
f 44//6 33//6 40//6
f 33//6 44//6 38//6
g G-__555771_G-__555771_Dark_brick
usemtl Dark_brick
f 35//2 23//2 25//2
f 23//2 35//2 28//2
f 28//2 35//2 21//2
f 28//2 21//2 22//2
g G-__555771_G-__555771_Brick
usemtl Brick
f 30//5 44//5 40//5
f 44//5 30//5 32//5
f 36//4 45//4 34//4
f 45//4 36//4 46//4
f 41//1 36//1 39//1
f 36//1 41//1 46//1
f 2//4 21//4 35//4
f 21//4 2//4 4//4
