# Blender v2.83.10 OBJ File: 'modularV2.blend'
# www.blender.org
mtllib 0bj25.mtl
g G-__555582
v 0.500000 0.159375 -0.500000
v 0.500000 0.212500 0.500000
v 0.500000 0.159375 0.500000
v 0.500000 0.212500 -0.500000
v 0.480000 0.159375 0.480000
v -0.480000 0.053125 0.480000
v 0.480000 0.053125 0.480000
v -0.480000 0.159375 0.480000
v -0.500000 0.159375 -0.500000
v -0.480000 0.159375 -0.480000
v -0.500000 0.159375 0.500000
v 0.480000 0.159375 -0.480000
v -0.480000 0.053125 -0.480000
v 0.480000 0.053125 -0.480000
v 0.500000 0.053125 0.500000
v -0.500000 0.000000 0.500000
v 0.500000 0.000000 0.500000
v -0.500000 0.053125 0.500000
v 0.500000 0.000000 -0.500000
v 0.500000 0.053125 -0.500000
v -0.500000 0.212500 -0.500000
v -0.500000 0.212500 0.500000
v -0.500000 0.053125 -0.500000
v -0.500000 0.000000 -0.500000
vn 1.0000 0.0000 0.0000
vn 0.0000 0.0000 1.0000
vn 0.0000 -1.0000 0.0000
vn 0.0000 1.0000 0.0000
vn -1.0000 0.0000 0.0000
vn 0.0000 0.0000 -1.0000
g G-__555582_G-__555582_Dark_brick
usemtl Dark_brick
s off
f 1//1 2//1 3//1
f 2//1 1//1 4//1
g G-__555582_G-__555582_Brick
usemtl Brick
f 5//2 6//2 7//2
f 6//2 5//2 8//2
g G-__555582_G-__555582_Dark_brick
usemtl Dark_brick
f 9//3 10//3 11//3
f 1//3 10//3 9//3
f 10//3 1//3 12//3
f 12//3 1//3 5//3
f 11//3 8//3 3//3
f 8//3 11//3 10//3
f 3//3 8//3 5//3
f 1//3 3//3 5//3
g G-__555582_G-__555582_Material
usemtl Material
f 5//4 10//4 8//4
f 10//4 5//4 12//4
g G-__555582_G-__555582_Brick
usemtl Brick
f 10//5 6//5 8//5
f 6//5 10//5 13//5
f 10//6 14//6 13//6
f 14//6 10//6 12//6
g G-__555582_G-__555582_Dark_brick
usemtl Dark_brick
f 15//2 16//2 17//2
f 16//2 15//2 18//2
g G-__555582_G-__555582_Material
usemtl Material
f 7//4 13//4 6//4
f 13//4 7//4 14//4
g G-__555582_G-__555582_Dark_brick
usemtl Dark_brick
f 19//1 15//1 17//1
f 15//1 19//1 20//1
f 21//5 11//5 22//5
f 11//5 21//5 9//5
f 21//6 1//6 9//6
f 1//6 21//6 4//6
f 23//6 19//6 24//6
f 19//6 23//6 20//6
f 19//3 16//3 24//3
f 16//3 19//3 17//3
f 23//5 16//5 18//5
f 16//5 23//5 24//5
f 18//4 6//4 23//4
f 6//4 18//4 15//4
f 6//4 15//4 7//4
f 7//4 15//4 14//4
f 23//4 13//4 20//4
f 13//4 23//4 6//4
f 20//4 13//4 14//4
f 20//4 14//4 15//4
f 2//4 21//4 22//4
f 21//4 2//4 4//4
g G-__555582_G-__555582_Brick
usemtl Brick
f 14//1 5//1 7//1
f 5//1 14//1 12//1
g G-__555582_G-__555582_Dark_brick
usemtl Dark_brick
f 2//2 11//2 3//2
f 11//2 2//2 22//2
