# Blender v2.83.10 OBJ File: 'modularV2.blend'
# www.blender.org
mtllib 0bj27.mtl
g G-__555600
v -0.500000 0.212500 -0.500000
v 0.500000 0.106250 -0.500000
v -0.500000 0.106250 -0.500000
v 0.500000 0.212500 -0.500000
v 0.500000 0.000000 -0.500000
v 0.500000 0.106250 0.500000
v 0.500000 0.000000 0.500000
v -0.500000 0.106250 0.500000
v -0.500000 0.212500 0.500000
v 0.500000 0.212500 0.500000
v -0.500000 0.000000 0.500000
v -0.500000 0.000000 -0.500000
vn 0.0000 0.0000 -1.0000
vn 1.0000 0.0000 0.0000
vn -1.0000 0.0000 0.0000
vn 0.0000 0.0000 1.0000
vn 0.0000 1.0000 0.0000
vn 0.0000 -1.0000 0.0000
g G-__555600_G-__555600_Brick
usemtl Brick
s off
f 1//1 2//1 3//1
f 2//1 1//1 4//1
g G-__555600_G-__555600_Dark_brick
usemtl Dark_brick
f 5//2 6//2 7//2
f 6//2 5//2 2//2
g G-__555600_G-__555600_Brick
usemtl Brick
f 1//3 8//3 9//3
f 8//3 1//3 3//3
f 10//4 8//4 6//4
f 8//4 10//4 9//4
f 10//5 1//5 9//5
f 1//5 10//5 4//5
f 2//2 10//2 6//2
f 10//2 2//2 4//2
g G-__555600_G-__555600_Dark_brick
usemtl Dark_brick
f 6//4 11//4 7//4
f 11//4 6//4 8//4
f 5//6 11//6 12//6
f 11//6 5//6 7//6
g G-__555600_G-__555600_Brick
usemtl Brick
f 2//6 8//6 3//6
f 8//6 2//6 6//6
g G-__555600_G-__555600_Dark_brick
usemtl Dark_brick
f 3//3 11//3 8//3
f 11//3 3//3 12//3
f 3//1 5//1 12//1
f 5//1 3//1 2//1
