# Blender v2.83.10 OBJ File: 'modularV2.blend'
# www.blender.org
mtllib 0bj23.mtl
g G-__556041
v -0.373911 0.500000 0.218750
v -0.473911 0.500000 0.406250
v -0.473911 0.500000 0.218750
v -0.373911 0.500000 0.406250
v -0.373911 0.078125 -0.218750
v -0.473911 0.078125 -0.406250
v -0.473911 0.078125 -0.218750
v -0.373911 0.078125 -0.406250
v -0.473911 0.078125 0.218750
v -0.373911 0.078125 0.218750
v -0.373911 0.500000 -0.125000
v -0.473911 0.000000 -0.125000
v -0.373911 0.000000 -0.125000
v -0.473911 0.500000 -0.125000
v -0.373911 0.078125 0.406250
v -0.473911 0.078125 0.406250
v -0.373911 0.500000 -0.406250
v -0.473911 0.500000 -0.218750
v -0.473911 0.500000 -0.406250
v -0.373911 0.500000 -0.218750
v 0.526089 0.625000 0.500000
v -0.473911 0.625000 -0.500000
v -0.473911 0.625000 0.500000
v 0.526089 0.625000 -0.500000
v -0.473911 0.500000 0.125000
v -0.373911 0.000000 0.125000
v -0.473911 0.000000 0.125000
v -0.373911 0.500000 0.125000
v 0.526089 0.000000 -0.500000
v -0.473911 0.000000 -0.500000
v -0.473911 0.000000 0.500000
v 0.526089 0.000000 0.500000
vn 0.0000 -1.0000 0.0000
vn 0.0000 1.0000 0.0000
vn 0.0000 0.0000 1.0000
vn 0.0000 0.0000 -1.0000
vn -1.0000 0.0000 0.0000
vn 1.0000 0.0000 0.0000
g G-__556041_G-__556041_Brick
usemtl Brick
s off
f 1//1 2//1 3//1
f 2//1 1//1 4//1
f 5//2 6//2 7//2
f 6//2 5//2 8//2
f 1//3 9//3 10//3
f 9//3 1//3 3//3
f 11//3 12//3 13//3
f 12//3 11//3 14//3
f 15//2 9//2 16//2
f 9//2 15//2 10//2
f 17//1 18//1 19//1
f 18//1 17//1 20//1
f 18//4 5//4 7//4
f 5//4 18//4 20//4
f 21//2 22//2 23//2
f 22//2 21//2 24//2
f 25//4 26//4 27//4
f 26//4 25//4 28//4
f 2//4 15//4 16//4
f 15//4 2//4 4//4
g G-__556041_G-__556041_Glass
usemtl Glass
f 17//5 5//5 20//5
f 5//5 17//5 8//5
g G-__556041_G-__556041_Brick
usemtl Brick
f 29//1 12//1 30//1
f 12//1 29//1 13//1
f 13//1 29//1 26//1
f 26//1 31//1 27//1
f 31//1 26//1 32//1
f 32//1 26//1 29//1
f 31//5 16//5 27//5
f 16//5 31//5 2//5
f 27//5 16//5 9//5
f 27//5 9//5 25//5
f 23//5 2//5 31//5
f 2//5 23//5 22//5
f 2//5 22//5 3//5
f 3//5 22//5 25//5
f 3//5 25//5 9//5
f 25//5 22//5 14//5
f 14//5 22//5 18//5
f 14//5 18//5 12//5
f 18//5 22//5 19//5
f 19//5 22//5 6//5
f 12//5 7//5 30//5
f 7//5 12//5 18//5
f 30//5 7//5 6//5
f 30//5 6//5 22//5
f 29//6 21//6 32//6
f 21//6 29//6 24//6
g G-__556041_G-__556041_Glass
usemtl Glass
f 1//5 15//5 4//5
f 15//5 1//5 10//5
f 11//5 26//5 28//5
f 26//5 11//5 13//5
g G-__556041_G-__556041_Brick
usemtl Brick
f 11//1 25//1 14//1
f 25//1 11//1 28//1
f 21//3 31//3 32//3
f 31//3 21//3 23//3
f 17//3 6//3 8//3
f 6//3 17//3 19//3
f 22//4 29//4 30//4
f 29//4 22//4 24//4
