# Blender v2.83.10 OBJ File: 'modularV2.blend'
# www.blender.org
mtllib 0bj2.mtl
g G-__555762
v -0.487500 0.500000 -0.123670
v -0.387500 0.000000 -0.123670
v -0.487500 0.000000 -0.123670
v -0.387500 0.500000 -0.123670
v -0.487500 0.625000 0.501330
v -0.487500 0.500000 0.376330
v -0.487500 0.000000 0.501330
v -0.487500 0.625000 -0.498670
v -0.487500 0.500000 0.001330
v -0.487500 0.000000 0.001330
v -0.487500 0.500000 -0.373670
v -0.487500 0.000000 -0.373670
v -0.487500 0.000000 -0.498670
v -0.487500 0.000000 0.376330
v 0.512500 0.000000 -0.498670
v 0.512500 0.625000 0.501330
v 0.512500 0.000000 0.501330
v 0.512500 0.625000 -0.498670
v -0.387500 0.500000 -0.373670
v -0.387500 0.500000 0.001330
v -0.387500 0.000000 0.001330
v -0.387500 0.500000 0.376330
v -0.387500 0.000000 -0.373670
v -0.387500 0.000000 0.376330
vn 0.0000 0.0000 -1.0000
vn -1.0000 0.0000 0.0000
vn 1.0000 0.0000 0.0000
vn 0.0000 -1.0000 0.0000
vn 0.0000 0.0000 1.0000
vn 0.0000 1.0000 0.0000
g G-__555762_G-__555762_Brick
usemtl Brick
s off
f 1//1 2//1 3//1
f 2//1 1//1 4//1
f 5//2 6//2 7//2
f 6//2 5//2 8//2
f 6//2 8//2 9//2
f 1//2 9//2 8//2
f 9//2 1//2 10//2
f 1//2 8//2 11//2
f 11//2 8//2 12//2
f 12//2 8//2 13//2
f 1//2 3//2 10//2
f 14//2 7//2 6//2
f 15//3 16//3 17//3
f 16//3 15//3 18//3
f 8//1 15//1 13//1
f 15//1 8//1 18//1
f 19//4 1//4 11//4
f 1//4 19//4 4//4
f 20//5 10//5 21//5
f 10//5 20//5 9//5
f 16//5 7//5 17//5
f 7//5 16//5 5//5
f 20//4 6//4 9//4
f 6//4 20//4 22//4
f 19//5 12//5 23//5
f 12//5 19//5 11//5
g G-__555762_G-__555762_Glass
usemtl Glass
f 20//2 24//2 22//2
f 24//2 20//2 21//2
g G-__555762_G-__555762_Brick
usemtl Brick
f 15//4 12//4 13//4
f 12//4 15//4 23//4
f 23//4 15//4 2//4
f 2//4 15//4 21//4
f 21//4 15//4 24//4
f 24//4 7//4 14//4
f 7//4 24//4 17//4
f 17//4 24//4 15//4
f 2//4 10//4 3//4
f 10//4 2//4 21//4
f 6//1 24//1 14//1
f 24//1 6//1 22//1
f 16//6 8//6 5//6
f 8//6 16//6 18//6
g G-__555762_G-__555762_Glass
usemtl Glass
f 19//2 2//2 4//2
f 2//2 19//2 23//2
