# Blender v2.83.10 OBJ File: 'modularV2.blend'
# www.blender.org
mtllib 0bj28.mtl
g G-__555726
v 0.500000 0.000000 -0.500000
v -0.500000 0.000000 0.500000
v -0.500000 0.000000 -0.500000
v 0.500000 0.000000 0.500000
v 0.500000 0.212500 0.500000
v -0.500000 0.212500 -0.500000
v -0.500000 0.212500 0.500000
v 0.500000 0.212500 -0.500000
vn 0.0000 -1.0000 0.0000
vn 0.0000 1.0000 0.0000
vn 0.0000 0.0000 -1.0000
vn 0.0000 0.0000 1.0000
vn -1.0000 0.0000 0.0000
vn 1.0000 0.0000 0.0000
g G-__555726_G-__555726_Dark_brick
usemtl Dark_brick
s off
f 1//1 2//1 3//1
f 2//1 1//1 4//1
f 5//2 6//2 7//2
f 6//2 5//2 8//2
f 6//3 1//3 3//3
f 1//3 6//3 8//3
f 5//4 2//4 4//4
f 2//4 5//4 7//4
f 6//5 2//5 7//5
f 2//5 6//5 3//5
f 1//6 5//6 4//6
f 5//6 1//6 8//6
