# Blender v2.83.10 OBJ File: 'modularV2.blend'
# www.blender.org
mtllib 0bj39.mtl
g G-__555618
v -0.373827 0.106250 -0.499172
v -0.373827 0.212500 0.000828
v -0.373827 0.106250 0.000828
v -0.373827 0.212500 -0.499172
v 0.001173 0.106250 0.375828
v 0.001173 0.212500 0.375828
v 0.501173 0.000000 -0.499172
v 0.376173 0.106250 -0.499172
v 0.501173 0.212500 -0.499172
v 0.376173 0.212500 -0.499172
v -0.498827 0.000000 -0.499172
v -0.498827 0.212500 -0.499172
v 0.501173 0.212500 -0.374172
v 0.376173 0.106250 -0.374172
v 0.501173 0.106250 -0.374172
v 0.376173 0.212500 -0.374172
v 0.501173 0.106250 0.375828
v 0.501173 0.212500 0.375828
v -0.498827 0.000000 0.000828
v -0.498827 0.212500 0.000828
v 0.501173 0.212500 0.500828
v 0.001173 0.000000 0.500828
v 0.501173 0.000000 0.500828
v 0.001173 0.212500 0.500828
vn 1.0000 0.0000 0.0000
vn 0.7071 0.0000 -0.7071
vn 0.0000 0.0000 -1.0000
vn 0.0000 0.0000 1.0000
vn -1.0000 0.0000 0.0000
vn -0.7071 0.0000 0.7071
vn 0.0000 1.0000 0.0000
vn 0.0000 -1.0000 0.0000
g G-__555618_G-__555618_Brick
usemtl Brick
s off
f 1//1 2//1 3//1
f 2//1 1//1 4//1
f 2//2 5//2 3//2
f 5//2 2//2 6//2
f 7//3 8//3 9//3
f 1//3 8//3 7//3
f 9//3 8//3 10//3
f 11//3 1//3 7//3
f 1//3 11//3 12//3
f 1//3 12//3 4//3
f 13//4 14//4 15//4
f 14//4 13//4 16//4
f 6//3 17//3 5//3
f 17//3 6//3 18//3
f 12//5 19//5 20//5
f 19//5 12//5 11//5
f 10//5 14//5 16//5
f 14//5 10//5 8//5
f 21//4 22//4 23//4
f 22//4 21//4 24//4
f 24//6 19//6 22//6
f 19//6 24//6 20//6
f 23//1 17//1 21//1
f 17//1 23//1 7//1
f 17//1 7//1 15//1
f 15//1 7//1 13//1
f 13//1 7//1 9//1
f 18//1 21//1 17//1
f 17//7 14//7 5//7
f 14//7 17//7 15//7
f 5//7 1//7 3//7
f 1//7 5//7 8//7
f 8//7 5//7 14//7
f 13//7 10//7 16//7
f 10//7 13//7 9//7
f 7//8 19//8 11//8
f 19//8 7//8 22//8
f 22//8 7//8 23//8
f 20//7 2//7 12//7
f 2//7 20//7 24//7
f 2//7 24//7 6//7
f 6//7 24//7 21//7
f 6//7 21//7 18//7
f 4//7 12//7 2//7
