# Blender v2.83.10 OBJ File: 'modularV2.blend'
# www.blender.org
mtllib 0bj3.mtl
g G-__555978
v -0.407901 0.500000 -0.156250
v -0.507901 0.120000 -0.156250
v -0.407901 0.120000 -0.156250
v -0.507901 0.500000 -0.156250
v -0.557901 0.120000 -0.156250
v -0.507901 0.060000 -0.156250
v -0.557901 0.060000 -0.156250
v -0.557901 0.060000 0.156250
v -0.557901 0.120000 0.156250
v 0.492099 0.000000 -0.500000
v -0.507901 0.000000 0.500000
v -0.507901 0.000000 -0.500000
v 0.492099 0.000000 0.500000
v -0.507901 0.625000 0.500000
v -0.507901 0.500000 0.156250
v -0.507901 0.625000 -0.500000
v -0.507901 0.060000 0.156250
v -0.507901 0.120000 0.156250
v -0.407901 0.120000 0.156250
v -0.407901 0.500000 0.156250
v 0.492099 0.625000 0.500000
v 0.492099 0.625000 -0.500000
vn 0.0000 0.0000 1.0000
vn 0.0000 0.0000 -1.0000
vn -1.0000 0.0000 0.0000
vn 0.0000 -1.0000 0.0000
vn 0.0000 1.0000 0.0000
vn 1.0000 0.0000 0.0000
g G-__555978_G-__555978_Brick
usemtl Brick
s off
f 1//1 2//1 3//1
f 2//1 1//1 4//1
f 5//2 6//2 7//2
f 6//2 5//2 2//2
f 5//3 8//3 9//3
f 8//3 5//3 7//3
f 10//4 11//4 12//4
f 11//4 10//4 13//4
f 14//3 15//3 11//3
f 15//3 14//3 16//3
f 15//3 16//3 4//3
f 4//3 16//3 2//3
f 2//3 16//3 6//3
f 11//3 17//3 12//3
f 17//3 11//3 15//3
f 17//3 15//3 18//3
f 12//3 17//3 6//3
f 12//3 6//3 16//3
g G-__555978_G-__555978_Glass
usemtl Glass
f 1//3 19//3 20//3
f 19//3 1//3 3//3
g G-__555978_G-__555978_Brick
usemtl Brick
f 18//5 5//5 9//5
f 5//5 18//5 2//5
f 2//5 18//5 19//5
f 2//5 19//5 3//5
f 15//2 19//2 18//2
f 19//2 15//2 20//2
f 21//5 16//5 14//5
f 16//5 21//5 22//5
f 10//6 21//6 13//6
f 21//6 10//6 22//6
f 6//4 8//4 7//4
f 8//4 6//4 17//4
f 1//4 15//4 4//4
f 15//4 1//4 20//4
f 16//2 10//2 12//2
f 10//2 16//2 22//2
f 18//1 8//1 17//1
f 8//1 18//1 9//1
f 21//1 11//1 13//1
f 11//1 21//1 14//1
