# Blender v2.83.10 OBJ File: 'modularV2.blend'
# www.blender.org
mtllib 0bj37.mtl
g G-__555735
v 0.502848 0.000000 -0.500000
v 0.502848 0.212500 0.500000
v 0.502848 0.000000 0.500000
v 0.502848 0.212500 -0.500000
v -0.497152 0.000000 -0.500000
v -0.497152 0.212500 -0.500000
v -0.497152 0.000000 0.500000
v -0.497152 0.212500 0.500000
v -0.607152 0.000000 0.500000
v -0.607152 0.212500 0.500000
v -0.607152 0.212500 -0.500000
v -0.607152 0.000000 -0.500000
vn 1.0000 0.0000 0.0000
vn 0.0000 0.0000 -1.0000
vn 0.0000 -1.0000 0.0000
vn 0.0000 0.0000 1.0000
vn 0.0000 1.0000 0.0000
vn -1.0000 0.0000 0.0000
g G-__555735_G-__555735_Dark_brick
usemtl Dark_brick
s off
f 1//1 2//1 3//1
f 2//1 1//1 4//1
f 1//2 5//2 4//2
f 4//2 5//2 6//2
f 1//3 7//3 5//3
f 7//3 1//3 3//3
g G-__555735_G-__555735_[Green]
usemtl [Green]
f 8//4 9//4 7//4
f 9//4 8//4 10//4
g G-__555735_G-__555735_Dark_brick
usemtl Dark_brick
f 2//5 6//5 8//5
f 6//5 2//5 4//5
g G-__555735_G-__555735_[Green]
usemtl [Green]
f 11//6 9//6 10//6
f 9//6 11//6 12//6
f 11//2 5//2 12//2
f 5//2 11//2 6//2
f 8//5 11//5 10//5
f 11//5 8//5 6//5
g G-__555735_G-__555735_Dark_brick
usemtl Dark_brick
f 2//4 7//4 3//4
f 7//4 2//4 8//4
g G-__555735_G-__555735_Brick
usemtl Brick
f 6//6 7//6 8//6
f 7//6 6//6 5//6
g G-__555735_G-__555735_[Green]
usemtl [Green]
f 5//3 9//3 12//3
f 9//3 5//3 7//3
