# Blender v2.83.10 OBJ File: 'modularV2.blend'
# www.blender.org
mtllib 0bj36.mtl
g G-__555663
v -0.555401 0.205259 0.500000
v -0.583271 0.196324 -0.500000
v -0.583271 0.196324 0.500000
v -0.555401 0.205259 -0.500000
v -0.526536 0.210682 0.500000
v -0.526536 0.210682 -0.500000
v -0.656266 0.150260 -0.500000
v -0.675672 0.129362 0.500000
v -0.656266 0.150260 0.500000
v -0.675672 0.129362 -0.500000
v 0.502833 0.212500 0.500000
v -0.497167 0.000000 0.500000
v 0.502833 0.000000 0.500000
v -0.497167 0.212500 0.500000
v -0.497167 0.212500 -0.500000
v 0.502833 0.212500 -0.500000
v -0.705040 0.081320 -0.500000
v -0.714501 0.054999 0.500000
v -0.705040 0.081320 0.500000
v -0.714501 0.054999 -0.500000
v -0.720242 0.027737 -0.500000
v -0.722167 0.000000 0.500000
v -0.720242 0.027737 0.500000
v -0.722167 0.000000 -0.500000
v -0.692023 0.106250 0.500000
v -0.634139 0.168588 0.500000
v -0.609667 0.184030 0.500000
v -0.497167 0.000000 -0.500000
v -0.692023 0.106250 -0.500000
v -0.609667 0.184030 -0.500000
v -0.634139 0.168588 -0.500000
v 0.502833 0.000000 -0.500000
v 0.002833 0.000000 -0.000000
vn -0.1769 0.6985 0.6934
vn -0.2626 0.6711 -0.6932
vn -0.2626 0.6711 0.6932
vn -0.1769 0.6985 -0.6934
vn -0.0889 0.7150 0.6934
vn -0.0889 0.7150 -0.6934
vn -0.4953 0.5242 -0.6927
vn -0.5600 0.4548 0.6925
vn -0.4953 0.5242 0.6927
vn -0.5600 0.4548 -0.6925
vn 0.0000 0.0000 1.0000
vn 0.0000 1.0000 0.0000
vn -0.6611 0.2898 -0.6921
vn -0.6945 0.1969 0.6919
vn -0.6611 0.2898 0.6921
vn -0.6945 0.1969 -0.6919
vn -0.7151 0.0996 -0.6919
vn -0.5988 -0.5587 0.5738
vn -0.7151 0.0996 0.6919
vn -0.5988 -0.5587 -0.5738
vn 0.3178 0.6767 0.6641
vn 0.3178 0.6767 -0.6641
vn 1.0000 0.0000 0.0000
vn -0.6158 0.3762 -0.6923
vn -0.6158 0.3762 0.6923
vn -0.3452 0.6328 -0.6931
vn -0.3452 0.6328 0.6931
vn 0.0000 0.0000 -1.0000
vn -0.4232 0.5837 0.6929
vn -0.4232 0.5837 -0.6929
vn 0.0000 -1.0000 0.0000
g G-__555663_G-__555663_[Green]
usemtl [Green]
s 1
f 1//1 2//2 3//3
f 2//2 1//1 4//4
f 1//1 5//5 4//4
f 4//4 5//5 6//6
f 7//7 8//8 9//9
f 8//8 7//7 10//10
g G-__555663_G-__555663_Dark_brick
usemtl Dark_brick
s off
f 11//11 12//11 13//11
f 12//11 11//11 14//11
f 11//12 15//12 14//12
f 15//12 11//12 16//12
g G-__555663_G-__555663_[Green]
usemtl [Green]
s 1
f 17//13 18//14 19//15
f 18//14 17//13 20//16
f 21//17 22//18 23//19
f 22//18 21//17 24//20
f 14//21 6//6 5//5
f 6//6 14//21 15//22
s off
f 14//11 22//11 12//11
f 22//11 14//11 23//11
f 23//11 14//11 18//11
f 18//11 14//11 19//11
f 19//11 14//11 25//11
f 25//11 14//11 8//11
f 8//11 14//11 9//11
f 9//11 14//11 26//11
f 26//11 14//11 27//11
f 27//11 14//11 3//11
f 1//11 3//11 14//11
f 1//11 14//11 5//11
f 28//23 14//23 12//23
f 14//23 28//23 15//23
s 1
f 29//24 19//15 25//25
f 19//15 29//24 17//13
f 3//3 30//26 27//27
f 30//26 3//3 2//2
s off
f 24//28 15//28 28//28
f 15//28 24//28 21//28
f 15//28 21//28 20//28
f 15//28 20//28 17//28
f 15//28 17//28 29//28
f 15//28 29//28 10//28
f 15//28 10//28 7//28
f 15//28 7//28 31//28
f 15//28 31//28 30//28
f 15//28 30//28 2//28
f 15//28 2//28 4//28
f 15//28 4//28 6//28
s 1
f 26//29 7//7 9//9
f 7//7 26//29 31//30
g G-__555663_G-__555663_Dark_brick
usemtl Dark_brick
s off
f 32//31 33//31 12//31 28//31
f 12//31 33//31 32//31 13//31
g G-__555663_G-__555663_[Green]
usemtl [Green]
s 1
f 27//27 31//30 26//29
f 31//30 27//27 30//26
f 20//16 23//19 18//14
f 23//19 20//16 21//17
g G-__555663_G-__555663_Dark_brick
usemtl Dark_brick
s off
f 28//28 16//28 32//28
f 16//28 28//28 15//28
g G-__555663_G-__555663_[Green]
usemtl [Green]
s 1
f 10//10 25//25 8//8
f 25//25 10//10 29//24
s off
f 28//31 22//31 24//31
f 22//31 28//31 12//31
g G-__555663_G-__555663_Dark_brick
usemtl Dark_brick
f 32//23 11//23 13//23
f 11//23 32//23 16//23
