# Blender v2.83.10 OBJ File: 'modularV2.blend'
# www.blender.org
mtllib 0bj33.mtl
g G-__555699
v 0.500000 0.106250 0.500000
v -0.500000 0.106250 -0.500000
v -0.500000 0.106250 0.500000
v 0.500000 0.106250 -0.500000
v 0.500000 0.000000 -0.500000
v -0.500000 0.000000 -0.500000
v -0.500000 0.000000 0.500000
v 0.500000 0.000000 0.500000
vn 0.0000 1.0000 0.0000
vn 0.0000 0.0000 -1.0000
vn -1.0000 0.0000 0.0000
vn 0.0000 0.0000 1.0000
vn 1.0000 0.0000 0.0000
vn 0.0000 -1.0000 0.0000
g G-__555699_G-__555699_Brick
usemtl Brick
s off
f 1//1 2//1 3//1
f 2//1 1//1 4//1
f 2//2 5//2 6//2
f 5//2 2//2 4//2
f 2//3 7//3 3//3
f 7//3 2//3 6//3
f 1//4 7//4 8//4
f 7//4 1//4 3//4
f 5//5 1//5 8//5
f 1//5 5//5 4//5
f 5//6 7//6 6//6
f 7//6 5//6 8//6
