# Blender v2.83.10 OBJ File: 'modularV2.blend'
# www.blender.org
mtllib 0bj38.mtl
g G-__555681
v -0.499591 0.000000 -0.498408
v 0.000409 0.000000 0.501592
v -0.499591 0.000000 0.001592
v 0.500409 0.000000 -0.498408
v 0.500409 0.000000 0.501592
v 0.000409 0.212500 0.501592
v -0.499591 0.212500 -0.498408
v -0.499591 0.212500 0.001592
v 0.500409 0.212500 -0.498408
v 0.500409 0.212500 0.501592
vn 0.0000 -1.0000 0.0000
vn 0.0000 1.0000 0.0000
vn 0.0000 0.0000 -1.0000
vn 0.0000 0.0000 1.0000
vn 1.0000 0.0000 0.0000
vn -0.7071 0.0000 0.7071
vn -1.0000 0.0000 0.0000
g G-__555681_G-__555681_Dark_brick
usemtl Dark_brick
s off
f 1//1 2//1 3//1
f 2//1 1//1 4//1
f 2//1 4//1 5//1
f 6//2 7//2 8//2
f 7//2 6//2 9//2
f 9//2 6//2 10//2
f 1//3 7//3 4//3
f 4//3 7//3 9//3
f 10//4 2//4 5//4
f 2//4 10//4 6//4
f 4//5 10//5 5//5
f 10//5 4//5 9//5
f 8//6 2//6 6//6
f 2//6 8//6 3//6
f 7//7 3//7 8//7
f 1//7 3//7 7//7
