# Blender v2.83.10 OBJ File: 'modularV2.blend'
# www.blender.org
mtllib 0bj35.mtl
g G-__555645
v -0.722412 0.027737 -0.500000
v -0.724337 0.000000 -0.300000
v -0.722412 0.027737 -0.300000
v -0.724337 0.000000 -0.500000
v -0.499337 0.000000 -0.500000
v 0.500663 0.212500 -0.500000
v 0.500663 0.000000 -0.500000
v -0.499337 0.212500 -0.500000
v 0.500663 0.212500 0.500000
v -0.499337 0.212500 0.300000
v -0.499337 0.212500 0.500000
v -0.499337 0.212500 0.100000
v -0.499337 0.212500 -0.100000
v -0.499337 0.212500 -0.300000
v -0.722412 0.027737 -0.100000
v -0.724337 0.000000 0.100000
v -0.722412 0.027737 0.100000
v -0.724337 0.000000 -0.100000
v -0.636308 0.168588 0.300000
v -0.658436 0.150260 0.100000
v -0.658436 0.150260 0.300000
v -0.636308 0.168588 0.100000
v -0.716670 0.054999 0.100000
v -0.722412 0.027737 0.300000
v -0.716670 0.054999 0.300000
v 0.500663 0.000000 0.500000
v -0.528706 0.210682 -0.100000
v -0.557571 0.205259 -0.300000
v -0.557571 0.205259 -0.100000
v -0.528706 0.210682 -0.300000
v -0.677842 0.129362 -0.100000
v -0.694193 0.106250 0.100000
v -0.677842 0.129362 0.100000
v -0.694193 0.106250 -0.100000
v -0.528706 0.210682 -0.500000
v -0.707210 0.081320 0.100000
v -0.707210 0.081320 0.300000
v -0.724337 0.000000 0.300000
v -0.585441 0.196324 -0.300000
v -0.585441 0.196324 -0.100000
v -0.658436 0.150260 -0.500000
v -0.677842 0.129362 -0.300000
v -0.658436 0.150260 -0.300000
v -0.677842 0.129362 -0.500000
v -0.677842 0.129362 0.300000
v -0.636308 0.168588 -0.100000
v -0.658436 0.150260 -0.100000
v -0.636308 0.168588 -0.300000
v -0.585441 0.196324 -0.500000
v -0.557571 0.205259 -0.500000
v -0.694193 0.106250 0.500000
v -0.677842 0.129362 0.500000
v -0.694193 0.106250 0.300000
v -0.636308 0.168588 0.500000
v -0.658436 0.150260 0.500000
v -0.528706 0.210682 0.300000
v -0.528706 0.210682 0.500000
v -0.611837 0.184030 -0.500000
v -0.611837 0.184030 -0.300000
v -0.585441 0.196324 0.500000
v -0.611837 0.184030 0.300000
v -0.611837 0.184030 0.500000
v -0.585441 0.196324 0.300000
v -0.557571 0.205259 0.100000
v -0.585441 0.196324 0.100000
v -0.694193 0.106250 -0.300000
v -0.707210 0.081320 -0.100000
v -0.716670 0.054999 -0.100000
v -0.557571 0.205259 0.300000
v -0.528706 0.210682 0.100000
v -0.716670 0.054999 -0.500000
v -0.707210 0.081320 -0.500000
v -0.694193 0.106250 -0.500000
v -0.636308 0.168588 -0.500000
v -0.716670 0.054999 0.500000
v -0.707210 0.081320 0.500000
v -0.707210 0.081320 -0.300000
v -0.716670 0.054999 -0.300000
v -0.611837 0.184030 -0.100000
v -0.499337 0.000000 0.500000
v -0.611837 0.184030 0.100000
v -0.557571 0.205259 0.500000
v -0.724337 0.000000 0.500000
v -0.722412 0.027737 0.500000
vn -0.7151 0.0996 -0.6919
vn -0.9976 0.0692 0.0000
vn -0.9904 0.1380 0.0000
vn -0.7211 0.0500 -0.6910
vn 0.0000 0.0000 -1.0000
vn 0.0000 1.0000 0.0000
vn -0.5870 0.8096 0.0000
vn -0.6868 0.7268 0.0000
vn -0.9621 0.2728 0.0000
vn 1.0000 0.0000 0.0000
vn -0.1234 0.9923 0.0000
vn -0.2454 0.9694 0.0000
vn -0.7763 0.6304 0.0000
vn -0.8533 0.5214 0.0000
vn -0.0309 0.9995 0.0000
vn -0.0889 0.7150 -0.6934
vn -0.0221 0.7136 -0.7002
vn -0.9159 0.4015 0.0000
vn -0.3645 0.9312 0.0000
vn -0.4953 0.5242 -0.6927
vn -0.5600 0.4548 -0.6925
vn -0.2626 0.6711 -0.6932
vn -0.1769 0.6985 -0.6934
vn -0.6158 0.3762 0.6923
vn -0.5600 0.4548 0.6925
vn -0.4232 0.5837 0.6929
vn -0.4953 0.5242 0.6927
vn -0.0221 0.7136 0.7002
vn -0.0889 0.7150 0.6934
vn -0.3452 0.6328 -0.6931
vn -0.4789 0.8779 0.0000
vn -0.2626 0.6711 0.6932
vn -0.3452 0.6328 0.6931
vn -0.6945 0.1969 0.6919
vn -0.6611 0.2898 0.6921
vn 0.0000 0.0000 1.0000
vn -0.6611 0.2898 -0.6921
vn -0.6945 0.1969 -0.6919
vn -0.4232 0.5837 -0.6929
vn -0.1769 0.6985 0.6934
vn -0.6158 0.3762 -0.6923
vn -0.7211 0.0500 0.6910
vn -0.7151 0.0996 0.6919
g G-__555645_G-__555645_Wood
usemtl Wood
s 1
f 1//1 2//2 3//3
f 2//2 1//1 4//4
g G-__555645_G-__555645_Dark_brick
usemtl Dark_brick
s off
f 5//5 6//5 7//5
f 6//5 5//5 8//5
f 9//6 10//6 11//6
f 10//6 9//6 12//6
f 12//6 9//6 13//6
f 13//6 9//6 14//6
f 14//6 9//6 8//6
f 8//6 9//6 6//6
g G-__555645_G-__555645_Wood
usemtl Wood
s 1
f 15//3 16//2 17//3
f 16//2 15//3 18//2
g G-__555645_G-__555645_[Green]
usemtl [Green]
f 19//7 20//8 21//8
f 20//8 19//7 22//7
f 23//9 24//3 25//9
f 24//3 23//9 17//3
g G-__555645_G-__555645_Dark_brick
usemtl Dark_brick
s off
f 7//10 9//10 26//10
f 9//10 7//10 6//10
g G-__555645_G-__555645_[Green]
usemtl [Green]
s 1
f 27//11 28//12 29//12
f 28//12 27//11 30//11
g G-__555645_G-__555645_Wood
usemtl Wood
f 31//13 32//14 33//13
f 32//14 31//13 34//14
f 14//15 35//16 30//11
f 35//16 14//15 8//17
g G-__555645_G-__555645_[Green]
usemtl [Green]
f 36//18 25//9 37//18
f 25//9 36//18 23//9
f 17//3 38//2 24//3
f 38//2 17//3 16//2
f 29//12 39//19 40//19
f 39//19 29//12 28//12
g G-__555645_G-__555645_Wood
usemtl Wood
f 41//20 42//13 43//8
f 42//13 41//20 44//21
g G-__555645_G-__555645_[Green]
usemtl [Green]
f 20//8 45//13 21//8
f 45//13 20//8 33//13
f 46//7 43//8 47//8
f 43//8 46//7 48//7
g G-__555645_G-__555645_Wood
usemtl Wood
f 28//12 49//22 39//19
f 49//22 28//12 50//23
f 45//13 51//24 52//25
f 51//24 45//13 53//14
f 54//26 21//8 55//27
f 21//8 54//26 19//7
f 11//28 56//11 57//29
f 56//11 11//28 10//15
f 39//19 58//30 59//31
f 58//30 39//19 49//22
f 60//32 61//31 62//33
f 61//31 60//32 63//19
f 64//12 40//19 65//19
f 40//19 64//12 29//12
g G-__555645_G-__555645_[Green]
usemtl [Green]
f 42//13 34//14 31//13
f 34//14 42//13 66//14
g G-__555645_G-__555645_Wood
usemtl Wood
f 67//18 23//9 36//18
f 23//9 67//18 68//9
g G-__555645_G-__555645_[Green]
usemtl [Green]
f 56//11 64//12 69//12
f 64//12 56//11 70//11
s off
f 1//5 5//5 4//5
f 5//5 1//5 8//5
f 8//5 1//5 71//5
f 8//5 71//5 72//5
f 8//5 72//5 73//5
f 8//5 73//5 44//5
f 8//5 44//5 41//5
f 8//5 41//5 74//5
f 8//5 74//5 58//5
f 8//5 58//5 49//5
f 8//5 49//5 50//5
f 8//5 50//5 35//5
g G-__555645_G-__555645_Wood
usemtl Wood
s 1
f 22//7 47//8 20//8
f 47//8 22//7 46//7
f 37//18 75//34 76//35
f 75//34 37//18 25//9
g G-__555645_G-__555645_[Green]
usemtl [Green]
f 69//12 65//19 63//19
f 65//19 69//12 64//12
f 77//18 68//9 67//18
f 68//9 77//18 78//9
f 13//15 30//11 27//11
f 30//11 13//15 14//15
f 40//19 59//31 79//31
f 59//31 40//19 39//19
g G-__555645_G-__555645_Dark_brick
usemtl Dark_brick
s off
f 9//36 80//36 26//36
f 80//36 9//36 11//36
g G-__555645_G-__555645_Wood
usemtl Wood
s 1
f 47//8 33//13 20//8
f 33//13 47//8 31//13
f 53//14 76//35 51//24
f 76//35 53//14 37//18
f 72//37 78//9 77//18
f 78//9 72//37 71//38
f 34//14 36//18 32//14
f 36//18 34//14 67//18
f 81//31 46//7 22//7
f 46//7 81//31 79//31
f 48//7 41//20 43//8
f 41//20 48//7 74//39
g G-__555645_G-__555645_[Green]
usemtl [Green]
f 10//15 70//11 56//11
f 70//11 10//15 12//15
f 79//31 48//7 46//7
f 48//7 79//31 59//31
g G-__555645_G-__555645_Wood
usemtl Wood
f 70//11 29//12 64//12
f 29//12 70//11 27//11
g G-__555645_G-__555645_[Green]
usemtl [Green]
f 61//31 22//7 19//7
f 22//7 61//31 81//31
g G-__555645_G-__555645_Wood
usemtl Wood
f 30//11 50//23 28//12
f 50//23 30//11 35//16
g G-__555645_G-__555645_[Green]
usemtl [Green]
f 43//8 31//13 47//8
f 31//13 43//8 42//13
f 33//13 53//14 45//13
f 53//14 33//13 32//14
g G-__555645_G-__555645_Wood
usemtl Wood
f 59//31 74//39 48//7
f 74//39 59//31 58//30
f 21//8 52//25 55//27
f 52//25 21//8 45//13
g G-__555645_G-__555645_[Green]
usemtl [Green]
f 63//19 81//31 61//31
f 81//31 63//19 65//19
g G-__555645_G-__555645_Wood
usemtl Wood
f 62//33 19//7 54//26
f 19//7 62//33 61//31
f 57//29 69//12 82//40
f 69//12 57//29 56//11
g G-__555645_G-__555645_[Green]
usemtl [Green]
f 32//14 37//18 53//14
f 37//18 32//14 36//18
g G-__555645_G-__555645_Wood
usemtl Wood
f 71//38 3//3 78//9
f 1//1 3//3 71//38
f 73//41 77//18 66//14
f 77//18 73//41 72//37
g G-__555645_G-__555645_[Green]
usemtl [Green]
f 78//9 15//3 68//9
f 15//3 78//9 3//3
g G-__555645_G-__555645_Wood
usemtl Wood
f 24//3 83//42 84//43
f 83//42 24//3 38//2
f 44//21 66//14 42//13
f 66//14 44//21 73//41
f 12//15 27//11 70//11
f 27//11 12//15 13//15
g G-__555645_G-__555645_[Green]
usemtl [Green]
f 66//14 67//18 34//14
f 67//18 66//14 77//18
g G-__555645_G-__555645_Wood
usemtl Wood
f 82//40 63//19 60//32
f 63//19 82//40 69//12
f 68//9 17//3 23//9
f 17//3 68//9 15//3
f 25//9 84//43 75//34
f 84//43 25//9 24//3
g G-__555645_G-__555645_[Green]
usemtl [Green]
f 3//3 18//2 15//3
f 18//2 3//3 2//2
g G-__555645_G-__555645_Wood
usemtl Wood
f 65//19 79//31 81//31
f 79//31 65//19 40//19
s off
f 11//36 83//36 80//36
f 83//36 11//36 84//36
f 84//36 11//36 75//36
f 75//36 11//36 76//36
f 76//36 11//36 51//36
f 51//36 11//36 52//36
f 52//36 11//36 55//36
f 55//36 11//36 54//36
f 54//36 11//36 62//36
f 62//36 11//36 60//36
f 60//36 11//36 82//36
f 82//36 11//36 57//36
