# Blender v2.83.10 OBJ File: 'modularV2.blend'
# www.blender.org
mtllib 0bj32.mtl
g G-__555627
v 0.346457 0.212500 -0.346457
v 0.346457 0.106250 0.528543
v 0.346457 0.212500 0.528543
v 0.346457 0.106250 -0.346457
v -0.528543 0.106250 -0.346457
v -0.528543 0.212500 -0.346457
v 0.471457 0.000000 0.528543
v -0.528543 0.000000 0.528543
v 0.471457 0.212500 0.528543
v -0.528543 0.106250 0.528543
v 0.471457 0.000000 -0.471457
v -0.528543 0.000000 -0.471457
v -0.528543 0.212500 -0.471457
v 0.471457 0.212500 -0.471457
vn -1.0000 0.0000 0.0000
vn 0.0000 0.0000 1.0000
vn 0.0000 -1.0000 0.0000
vn 0.0000 0.0000 -1.0000
vn 1.0000 0.0000 0.0000
vn 0.0000 1.0000 0.0000
g G-__555627_G-__555627_Brick
usemtl Brick
s off
f 1//1 2//1 3//1
f 2//1 1//1 4//1
f 1//2 5//2 4//2
f 5//2 1//2 6//2
f 7//2 2//2 8//2
f 2//2 7//2 9//2
f 2//2 9//2 3//2
f 10//2 8//2 2//2
f 11//3 8//3 12//3
f 8//3 11//3 7//3
f 13//1 5//1 6//1
f 5//1 8//1 10//1
f 8//1 5//1 12//1
f 12//1 5//1 13//1
f 13//4 11//4 12//4
f 11//4 13//4 14//4
f 11//5 9//5 7//5
f 9//5 11//5 14//5
f 2//6 5//6 10//6
f 5//6 2//6 4//6
f 9//6 1//6 3//6
f 1//6 13//6 6//6
f 13//6 1//6 14//6
f 14//6 1//6 9//6
