# Blender v2.83.10 OBJ File: 'modularV2.blend'
# www.blender.org
mtllib 0bj47.mtl
g G-__555861
v -0.500802 0.625000 0.500000
v -0.500802 0.500000 0.375000
v -0.500802 0.000000 0.500000
v -0.500802 0.625000 -0.500000
v -0.500802 0.500000 0.062500
v -0.500802 0.500000 -0.062500
v -0.500802 0.120000 0.062500
v -0.500802 0.060000 0.062500
v -0.500802 0.500000 -0.375000
v -0.500802 0.120000 -0.375000
v -0.500802 0.060000 -0.375000
v -0.500802 0.060000 0.375000
v -0.500802 0.000000 -0.500000
v -0.500802 0.120000 0.375000
v -0.500802 0.060000 -0.062500
v -0.500802 0.120000 -0.062500
v 0.499198 0.000000 -0.500000
v 0.499198 0.625000 0.500000
v 0.499198 0.000000 0.500000
v 0.499198 0.625000 -0.500000
v -0.400801 0.500000 0.062500
v -0.400801 0.120000 0.375000
v -0.400801 0.500000 0.375000
v -0.400801 0.120000 0.062500
v -0.550801 0.060000 0.375000
v -0.550801 0.120000 0.375000
v -0.400801 0.120000 -0.062500
v -0.400801 0.500000 -0.062500
v -0.550801 0.120000 0.062500
v -0.550801 0.060000 0.062500
v -0.550801 0.120000 -0.375000
v -0.550801 0.060000 -0.375000
v -0.400801 0.500000 -0.375000
v -0.400801 0.120000 -0.375000
v -0.550801 0.060000 -0.062500
v -0.550801 0.120000 -0.062500
vn -1.0000 0.0000 0.0000
vn 0.0000 0.0000 1.0000
vn 1.0000 0.0000 0.0000
vn 0.0000 1.0000 0.0000
vn 0.0000 0.0000 -1.0000
vn 0.0000 -1.0000 0.0000
g G-__555861_G-__555861_Brick
usemtl Brick
s off
f 1//1 2//1 3//1
f 2//1 1//1 4//1
f 2//1 4//1 5//1
f 5//1 4//1 6//1
f 5//1 6//1 7//1
f 7//1 6//1 8//1
f 6//1 4//1 9//1
f 9//1 4//1 10//1
f 10//1 4//1 11//1
f 3//1 12//1 13//1
f 12//1 3//1 2//1
f 12//2 2//2 14//2
f 13//1 12//1 8//1
f 13//1 8//1 15//1
f 15//1 8//1 6//1
f 15//2 6//2 16//2
f 13//1 15//1 11//1
f 13//1 11//1 4//1
f 17//3 18//3 19//3
f 18//3 17//3 20//3
g G-__555861_G-__555861_Glass
usemtl Glass
f 21//1 22//1 23//1
f 22//1 21//1 24//1
g G-__555861_G-__555861_Brick
usemtl Brick
f 14//2 25//2 12//2
f 25//2 14//2 26//2
f 1//4 18//4 4//4
f 4//4 18//4 20//4
f 6//5 27//5 16//5
f 27//5 6//5 28//5
f 29//1 25//1 26//1
f 25//1 29//1 30//1
f 31//5 11//5 32//5
f 11//5 31//5 10//5
g G-__555861_G-__555861_Glass
usemtl Glass
f 33//1 27//1 28//1
f 27//1 33//1 34//1
g G-__555861_G-__555861_Brick
usemtl Brick
f 16//2 35//2 15//2
f 35//2 16//2 36//2
f 18//2 3//2 19//2
f 1//2 3//2 18//2
f 21//6 2//6 5//6
f 2//6 21//6 23//6
f 11//6 35//6 32//6
f 35//6 11//6 15//6
f 14//4 29//4 26//4
f 29//4 14//4 7//4
f 7//4 14//4 22//4
f 7//4 22//4 24//4
f 29//5 8//5 30//5
f 8//5 29//5 7//5
f 21//2 7//2 24//2
f 7//2 21//2 5//2
f 4//5 17//5 13//5
f 17//5 4//5 20//5
f 31//1 35//1 36//1
f 35//1 31//1 32//1
f 2//5 22//5 14//5
f 22//5 2//5 23//5
f 33//2 10//2 34//2
f 10//2 33//2 9//2
f 33//6 6//6 9//6
f 6//6 33//6 28//6
f 17//6 3//6 13//6
f 3//6 17//6 19//6
f 16//4 31//4 36//4
f 31//4 16//4 10//4
f 10//4 16//4 27//4
f 10//4 27//4 34//4
f 8//6 25//6 30//6
f 25//6 8//6 12//6
