# Blender v2.83.10 OBJ File: 'modularV2.blend'
# www.blender.org
mtllib 0bj48.mtl
g G-__555933
v -0.400416 0.060000 0.315855
v -0.591272 0.060000 -0.315855
v -0.591272 0.060000 0.315855
v -0.400416 0.060000 -0.315855
v -0.500416 0.625000 0.500000
v -0.500416 0.500000 0.375000
v -0.500416 0.000000 0.500000
v -0.500416 0.625000 -0.500000
v -0.500416 0.500000 -0.375000
v -0.500416 0.180000 -0.375000
v -0.500416 0.000000 -0.375000
v -0.500416 0.000000 -0.500000
v -0.500416 0.000000 0.375000
v -0.500416 0.180000 0.375000
v 0.499584 0.000000 -0.500000
v 0.499584 0.000000 0.500000
v -0.650416 0.000000 -0.375000
v -0.650416 0.000000 0.375000
v -0.400416 0.500000 -0.375000
v -0.400416 0.500000 0.375000
v 0.499584 0.625000 0.500000
v 0.499584 0.625000 -0.500000
v -0.650416 0.180000 -0.375000
v -0.650416 0.180000 0.375000
v -0.591272 0.180000 0.315855
v -0.591272 0.180000 -0.315855
v -0.400416 0.180000 0.375000
v -0.400416 0.180000 0.315855
v -0.400416 0.180000 -0.315855
v -0.400416 0.180000 -0.375000
vn 0.0000 1.0000 0.0000
vn -1.0000 0.0000 0.0000
vn 1.0000 0.0000 0.0000
vn 0.0000 -1.0000 0.0000
vn 0.0000 0.0000 -1.0000
vn 0.0000 0.0000 1.0000
g G-__555933_G-__555933_Brick
usemtl Brick
s off
f 1//1 2//1 3//1
f 2//1 1//1 4//1
f 5//2 6//2 7//2
f 6//2 5//2 8//2
f 6//2 8//2 9//2
f 9//2 8//2 10//2
f 10//2 8//2 11//2
f 11//2 8//2 12//2
f 6//2 13//2 7//2
f 13//3 6//3 14//3
f 15//4 11//4 12//4
f 11//4 15//4 13//4
f 13//4 15//4 7//4
f 7//4 15//4 16//4
f 17//4 13//4 18//4
f 13//4 17//4 11//4
f 19//4 6//4 9//4
f 6//4 19//4 20//4
f 15//3 21//3 16//3
f 21//3 15//3 22//3
f 23//2 18//2 24//2
f 18//2 23//2 17//2
f 2//3 25//3 3//3
f 25//3 2//3 26//3
f 23//5 11//5 17//5
f 11//5 23//5 10//5
f 14//6 18//6 13//6
f 18//6 14//6 24//6
g G-__555933_G-__555933_Glass
usemtl Glass
f 19//2 27//2 20//2
f 27//2 19//2 28//2
f 1//2 28//2 19//2
f 1//2 19//2 29//2
f 29//2 19//2 30//2
f 4//2 1//2 29//2
g G-__555933_G-__555933_Brick
usemtl Brick
f 21//6 7//6 16//6
f 7//6 21//6 5//6
f 24//1 25//1 23//1
f 25//1 24//1 14//1
f 25//1 14//1 28//1
f 28//1 14//1 27//1
f 23//1 26//1 10//1
f 26//1 23//1 25//1
f 10//1 26//1 29//1
f 10//1 29//1 30//1
f 25//5 1//5 3//5
f 1//5 25//5 28//5
f 19//6 10//6 30//6
f 10//6 19//6 9//6
f 6//5 27//5 14//5
f 27//5 6//5 20//5
f 29//6 2//6 4//6
f 2//6 29//6 26//6
f 8//5 15//5 12//5
f 15//5 8//5 22//5
f 21//1 8//1 5//1
f 8//1 21//1 22//1
