# Blender v2.83.10 OBJ File: 'modularV2.blend'
# www.blender.org
mtllib 0bj46.mtl
g G-__555852
v -0.397644 0.500000 -0.375000
v -0.397644 0.120000 -0.062500
v -0.397644 0.500000 -0.062500
v -0.397644 0.120000 -0.375000
v -0.497644 0.375000 0.062500
v -0.497644 0.060000 0.062500
v -0.497644 0.120000 0.062500
v -0.497644 0.625000 0.500000
v -0.497644 0.500000 0.375000
v -0.497644 0.000000 0.500000
v -0.497644 0.625000 -0.500000
v -0.497644 0.500000 0.062500
v -0.497644 0.500000 -0.062500
v -0.497644 0.444444 0.062500
v -0.497644 0.444444 -0.062500
v -0.497644 0.500000 -0.375000
v -0.497644 0.444444 -0.375000
v -0.497644 0.375000 -0.375000
v -0.497644 0.120000 -0.375000
v -0.497644 0.060000 -0.375000
v -0.497644 0.060000 0.375000
v -0.497644 0.000000 -0.500000
v -0.497644 0.444444 0.375000
v -0.497644 0.375000 0.375000
v -0.497644 0.120000 0.375000
v -0.497644 0.060000 -0.062500
v -0.497644 0.375000 -0.062500
v -0.497644 0.120000 -0.062500
v -0.397644 0.120000 0.375000
v -0.397644 0.500000 0.375000
v -0.547644 0.060000 -0.062500
v -0.547644 0.060000 -0.375000
v -0.546723 0.490485 0.375000
v -0.561769 0.483253 0.062500
v -0.561769 0.483253 0.375000
v -0.546723 0.490485 0.062500
v -0.621524 0.407352 0.062500
v -0.624797 0.391316 0.375000
v -0.621524 0.407352 0.375000
v -0.624797 0.391316 0.062500
v -0.530838 0.495741 -0.062500
v -0.546723 0.490485 -0.375000
v -0.546723 0.490485 -0.062500
v -0.530838 0.495741 -0.375000
v -0.397644 0.500000 0.062500
v -0.397644 0.120000 0.062500
v 0.502356 0.000000 -0.500000
v 0.502356 0.000000 0.500000
v -0.547644 0.120000 -0.062500
v -0.514384 0.498931 -0.375000
v -0.514384 0.498931 -0.062500
v -0.624797 0.391316 -0.375000
v -0.625894 0.375000 -0.062500
v -0.624797 0.391316 -0.062500
v -0.625894 0.375000 -0.375000
v -0.561769 0.483253 -0.375000
v -0.561769 0.483253 -0.062500
v -0.575718 0.474169 -0.375000
v -0.575718 0.474169 -0.062500
v 0.502356 0.625000 0.500000
v 0.502356 0.625000 -0.500000
v -0.547644 0.120000 0.062500
v -0.547644 0.060000 0.062500
v -0.547644 0.060000 0.375000
v -0.547644 0.120000 0.375000
v -0.616132 0.422835 -0.375000
v -0.621524 0.407352 -0.062500
v -0.616132 0.422835 -0.062500
v -0.621524 0.407352 -0.375000
v -0.547644 0.120000 -0.375000
v -0.608712 0.437500 -0.375000
v -0.599392 0.451095 -0.375000
v -0.588331 0.463388 -0.375000
v -0.575718 0.474169 0.062500
v -0.575718 0.474169 0.375000
v -0.599392 0.451095 -0.062500
v -0.588331 0.463388 -0.062500
v -0.608712 0.437500 -0.062500
v -0.588331 0.463388 0.062500
v -0.588331 0.463388 0.375000
v -0.625894 0.375000 0.062500
v -0.616132 0.422835 0.062500
v -0.608712 0.437500 0.062500
v -0.599392 0.451095 0.062500
v -0.530838 0.495741 0.062500
v -0.514384 0.498931 0.062500
v -0.616132 0.422835 0.375000
v -0.608712 0.437500 0.375000
v -0.625894 0.375000 0.375000
v -0.530838 0.495741 0.375000
v -0.599392 0.451095 0.375000
v -0.514384 0.498931 0.375000
vn -1.0000 0.0000 0.0000
vn 0.0000 0.0000 1.0000
vn 1.0000 0.0000 0.0000
vn 0.0000 0.0000 -1.0000
vn 0.0000 -1.0000 0.0000
vn -0.2699 0.6685 0.6929
vn -0.3536 0.6283 -0.6928
vn -0.3536 0.6284 0.6928
vn -0.2699 0.6685 -0.6929
vn -0.6957 0.1912 -0.6923
vn -0.7151 0.0966 0.6923
vn -0.6957 0.1912 0.6923
vn -0.7151 0.0966 -0.6923
vn -0.1822 0.6975 0.6930
vn -0.1822 0.6975 -0.6930
vn -0.9998 -0.0010 -0.0197
vn -0.0918 0.7150 -0.6930
vn -0.0918 0.7150 0.6930
vn -0.9998 -0.0010 0.0197
vn -0.5982 -0.5593 0.5739
vn -0.5982 -0.5593 -0.5739
vn -0.4320 0.5774 -0.6928
vn -0.4320 0.5774 0.6928
vn -0.6640 0.2821 -0.6924
vn -0.6640 0.2821 0.6924
vn 0.0000 1.0000 0.0000
vn -0.5035 0.5164 -0.6927
vn -0.5668 0.4461 0.6926
vn -0.5035 0.5164 0.6927
vn -0.5668 0.4461 -0.6926
vn -0.6207 0.3676 0.6925
vn -0.6207 0.3676 -0.6925
g G-__555852_G-__555852_Glass
usemtl Glass
s off
f 1//1 2//1 3//1
f 2//1 1//1 4//1
g G-__555852_G-__555852_Brick
usemtl Brick
f 5//2 6//2 7//2
f 8//1 9//1 10//1
f 9//1 8//1 11//1
f 9//1 11//1 12//1
f 12//1 11//1 13//1
f 12//1 13//1 14//1
f 14//1 13//1 5//1
f 5//1 13//1 15//1
f 13//1 11//1 16//1
f 16//1 11//1 17//1
f 17//1 11//1 18//1
f 18//1 11//1 19//1
f 19//1 11//1 20//1
f 10//1 21//1 22//1
f 21//1 10//1 9//1
f 21//3 9//3 23//3
f 21//3 23//3 24//3
f 21//2 24//2 25//2
f 22//1 21//1 6//1
f 22//1 6//1 26//1
f 26//1 6//1 5//1
f 26//1 5//1 27//1
f 27//1 5//1 15//1
f 26//2 27//2 28//2
f 22//1 26//1 20//1
f 22//1 20//1 11//1
f 24//4 29//4 25//4
f 29//4 24//4 30//4
f 30//4 24//4 23//4
f 30//4 23//4 9//4
g G-__555852_G-__555852_[Green]
usemtl [Green]
f 17//3 13//3 15//3
f 13//3 17//3 16//3
g G-__555852_G-__555852_Brick
usemtl Brick
f 20//5 31//5 32//5
f 31//5 20//5 26//5
g G-__555852_G-__555852_[Green]
usemtl [Green]
s 37
f 33//6 34//7 35//8
f 34//7 33//6 36//9
f 37//10 38//11 39//12
f 38//11 37//10 40//13
s 38
f 41//14 42//9 43//6
f 42//9 41//14 44//15
g G-__555852_G-__555852_Glass
usemtl Glass
s off
f 45//1 29//1 30//1
f 29//1 45//1 46//1
g G-__555852_G-__555852_Brick
usemtl Brick
f 47//5 10//5 22//5
f 10//5 47//5 48//5
f 28//2 31//2 26//2
f 31//2 28//2 49//2
g G-__555852_G-__555852_[Green]
usemtl [Green]
s 38
f 13//16 50//17 51//18
f 50//17 13//16 16//19
s off
f 18//3 15//3 27//3
f 15//3 18//3 17//3
f 5//3 23//3 24//3
f 23//3 5//3 14//3
s 38
f 52//13 53//20 54//11
f 53//20 52//13 55//21
f 43//6 56//7 57//8
f 56//7 43//6 42//9
f 57//8 58//22 59//23
f 58//22 57//8 56//7
g G-__555852_G-__555852_Brick
usemtl Brick
s off
f 47//3 60//3 48//3
f 60//3 47//3 61//3
f 45//2 7//2 46//2
f 7//2 45//2 5//2
f 5//2 45//2 14//2
f 14//2 45//2 12//2
g G-__555852_G-__555852_[Green]
usemtl [Green]
f 18//5 53//5 55//5
f 53//5 18//5 27//5
g G-__555852_G-__555852_Brick
usemtl Brick
f 11//4 47//4 22//4
f 47//4 11//4 61//4
f 62//4 6//4 63//4
f 6//4 62//4 7//4
f 25//2 64//2 21//2
f 64//2 25//2 65//2
g G-__555852_G-__555852_[Green]
usemtl [Green]
s 38
f 66//24 67//12 68//25
f 67//12 66//24 69//10
g G-__555852_G-__555852_Brick
usemtl Brick
s off
f 45//5 9//5 12//5
f 9//5 45//5 30//5
f 60//2 10//2 48//2
f 10//2 60//2 8//2
f 70//4 20//4 32//4
f 20//4 70//4 19//4
g G-__555852_G-__555852_[Green]
usemtl [Green]
f 55//4 17//4 18//4
f 17//4 55//4 52//4
f 17//4 52//4 69//4
f 17//4 69//4 66//4
f 17//4 66//4 71//4
f 17//4 71//4 72//4
f 17//4 72//4 16//4
f 16//4 72//4 73//4
f 16//4 73//4 58//4
f 16//4 58//4 56//4
f 16//4 56//4 42//4
f 16//4 42//4 44//4
f 16//4 44//4 50//4
g G-__555852_G-__555852_Brick
usemtl Brick
f 62//1 64//1 65//1
f 64//1 62//1 63//1
f 70//1 31//1 49//1
f 31//1 70//1 32//1
f 1//5 13//5 16//5
f 13//5 1//5 3//5
f 6//5 64//5 63//5
f 64//5 6//5 21//5
f 28//26 70//26 49//26
f 70//26 28//26 19//26
f 19//26 28//26 2//26
f 19//26 2//26 4//26
f 60//26 11//26 8//26
f 11//26 60//26 61//26
f 27//4 2//4 28//4
f 2//4 27//4 3//4
f 3//4 27//4 15//4
f 3//4 15//4 13//4
f 1//2 19//2 4//2
f 19//2 1//2 18//2
f 18//2 1//2 17//2
f 17//2 1//2 16//2
g G-__555852_G-__555852_[Green]
usemtl [Green]
s 37
f 35//8 74//22 75//23
f 74//22 35//8 34//7
s 38
f 73//27 76//28 77//29
f 76//28 73//27 72//30
f 72//30 78//31 76//28
f 78//31 72//30 71//32
s off
f 14//3 9//3 23//3
f 9//3 14//3 12//3
s 38
f 51//18 44//15 41//14
f 44//15 51//18 50//17
f 59//23 73//27 77//29
f 73//27 59//23 58//22
s 37
f 75//23 79//27 80//29
f 79//27 75//23 74//22
s off
f 81//4 14//4 5//4
f 14//4 81//4 40//4
f 14//4 40//4 37//4
f 14//4 37//4 82//4
f 14//4 82//4 83//4
f 14//4 83//4 84//4
f 14//4 84//4 12//4
f 12//4 84//4 79//4
f 12//4 79//4 74//4
f 12//4 74//4 34//4
f 12//4 34//4 36//4
f 12//4 36//4 85//4
f 12//4 85//4 86//4
f 15//2 53//2 27//2
f 53//2 15//2 54//2
f 54//2 15//2 67//2
f 67//2 15//2 68//2
f 68//2 15//2 78//2
f 78//2 15//2 76//2
f 76//2 15//2 13//2
f 76//2 13//2 77//2
f 77//2 13//2 59//2
f 59//2 13//2 57//2
f 57//2 13//2 43//2
f 43//2 13//2 41//2
f 41//2 13//2 51//2
s 38
f 69//10 54//11 67//12
f 54//11 69//10 52//13
s 37
f 83//32 87//25 88//31
f 87//25 83//32 82//24
f 82//24 39//12 87//25
f 39//12 82//24 37//10
g G-__555852_G-__555852_Brick
usemtl Brick
s off
f 25//26 62//26 65//26
f 62//26 25//26 7//26
f 7//26 25//26 29//26
f 7//26 29//26 46//26
g G-__555852_G-__555852_[Green]
usemtl [Green]
s 37
f 40//13 89//20 38//11
f 89//20 40//13 81//21
f 90//14 36//9 33//6
f 36//9 90//14 85//15
s off
f 5//5 89//5 81//5
f 89//5 5//5 24//5
f 23//2 89//2 24//2
f 89//2 23//2 38//2
f 38//2 23//2 39//2
f 39//2 23//2 87//2
f 87//2 23//2 88//2
f 88//2 23//2 91//2
f 91//2 23//2 9//2
f 91//2 9//2 80//2
f 80//2 9//2 75//2
f 75//2 9//2 35//2
f 35//2 9//2 33//2
f 33//2 9//2 90//2
f 90//2 9//2 92//2
s 37
f 9//16 86//17 92//18
f 86//17 9//16 12//19
s 38
f 71//32 68//25 78//31
f 68//25 71//32 66//24
s 37
f 84//30 88//31 91//28
f 88//31 84//30 83//32
f 79//27 91//28 80//29
f 91//28 79//27 84//30
f 92//18 85//15 90//14
f 85//15 92//18 86//17
