# Blender v2.83.10 OBJ File: 'modularV2.blend'
# www.blender.org
mtllib 0bj49.mtl
g G-__555879
v -0.499628 0.625000 0.499628
v -0.499628 0.000000 -0.000372
v 0.000372 0.000000 0.499628
v -0.499628 0.625000 -0.500372
v -0.499628 0.000000 -0.500372
v 0.500372 0.000000 -0.500372
v 0.500372 0.000000 0.499628
v 0.500372 0.625000 0.499628
v 0.500372 0.625000 -0.500372
vn -0.6155 -0.4924 0.6155
vn -1.0000 0.0000 0.0000
vn 0.0000 -1.0000 0.0000
vn 1.0000 0.0000 0.0000
vn 0.0000 0.0000 1.0000
vn 0.0000 0.0000 -1.0000
vn 0.0000 1.0000 0.0000
g G-__555879_G-__555879_Brick
usemtl Brick
s off
f 1//1 2//1 3//1
f 1//2 4//2 2//2
f 2//2 4//2 5//2
f 5//3 3//3 2//3
f 3//3 5//3 6//3
f 3//3 6//3 7//3
f 6//4 8//4 7//4
f 8//4 6//4 9//4
f 8//5 3//5 7//5
f 1//5 3//5 8//5
f 4//6 6//6 5//6
f 6//6 4//6 9//6
f 1//7 9//7 4//7
f 9//7 1//7 8//7
