# Blender v2.83.10 OBJ File: 'modularV2.blend'
# www.blender.org
mtllib 0bj45.mtl
g G-__555780
v -0.499737 0.827500 -0.500000
v 0.500263 0.202500 -0.500000
v -0.499737 0.202500 -0.500000
v 0.500263 0.827500 -0.500000
v -0.399737 0.699306 -0.288236
v -0.499737 0.689940 -0.265625
v -0.499737 0.699306 -0.288236
v -0.399737 0.689940 -0.265625
v 0.500263 0.827500 0.500000
v -0.499737 0.202500 0.500000
v 0.500263 0.202500 0.500000
v -0.499737 0.827500 0.500000
v -0.399737 0.608750 0.218750
v -0.499737 0.280625 0.218750
v -0.399737 0.280625 0.218750
v -0.499737 0.608750 0.218750
v -0.599737 0.096250 0.125000
v -0.699737 0.096250 -0.125000
v -0.699737 0.096250 0.125000
v -0.599737 0.096250 -0.125000
v -0.399737 0.689940 -0.359375
v -0.499737 0.699306 -0.336764
v -0.499737 0.689940 -0.359375
v -0.399737 0.699306 -0.336764
v -0.399737 0.655625 0.231310
v -0.499737 0.633014 0.221944
v -0.399737 0.633014 0.221944
v -0.499737 0.655625 0.231310
v -0.499737 0.202500 0.125000
v -0.599737 0.202500 -0.125000
v -0.599737 0.202500 0.125000
v -0.499737 0.202500 -0.125000
v -0.399737 0.202500 0.125000
v -0.399737 0.202500 -0.125000
v -0.399737 0.280625 0.406250
v -0.499737 0.280625 0.406250
v -0.499737 0.633014 -0.221944
v -0.399737 0.608750 -0.218750
v -0.499737 0.608750 -0.218750
v -0.399737 0.633014 -0.221944
v -0.499737 0.675041 0.378791
v -0.399737 0.655625 0.393690
v -0.499737 0.655625 0.393690
v -0.399737 0.675041 0.378791
v 0.500263 -0.010000 -0.500000
v 0.500263 -0.010000 0.500000
v -0.399737 0.689940 0.265625
v -0.499737 0.699306 0.288236
v -0.499737 0.689940 0.265625
v -0.399737 0.699306 0.288236
v -0.399737 0.675041 0.246209
v -0.499737 0.675041 0.246209
v -0.499737 -0.010000 -0.500000
v -0.399737 0.280625 -0.218750
v -0.499737 0.280625 -0.218750
v -0.499737 0.608750 0.406250
v -0.499737 0.702500 0.125000
v -0.499737 0.633014 0.403056
v -0.499737 0.689940 0.359375
v -0.499737 0.699306 0.336764
v -0.499737 0.702500 0.312500
v -0.499737 0.702500 -0.125000
v -0.499737 0.675041 -0.246209
v -0.499737 0.655625 -0.231310
v -0.499737 0.702500 -0.312500
v -0.499737 0.675041 -0.378791
v -0.499737 0.655625 -0.393690
v -0.499737 0.633014 -0.403056
v -0.499737 0.608750 -0.406250
v -0.499737 0.280625 -0.406250
v -0.399737 0.702500 -0.312500
v -0.399737 0.608750 0.406250
v -0.399737 0.655625 -0.393690
v -0.399737 0.633014 -0.403056
v -0.699737 -0.010000 0.125000
v -0.699737 -0.010000 -0.125000
v -0.399737 0.608750 -0.406250
v -0.399737 0.280625 -0.406250
v -0.399737 0.655625 -0.231310
v -0.399737 0.675041 -0.246209
v -0.399737 0.675041 -0.378791
v -0.399737 0.633014 0.403056
v -0.399737 0.702500 0.125000
v -0.399737 0.702500 -0.125000
v -0.499737 -0.010000 0.125000
v -0.399737 0.702500 0.312500
v -0.499737 -0.010000 -0.125000
v -0.499737 -0.010000 0.500000
v -0.399737 0.689940 0.359375
v -0.399737 0.699306 0.336764
vn 0.0000 0.0000 -1.0000
vn -0.6789 -0.7092 -0.1900
vn -0.7377 -0.5847 -0.3375
vn -0.7377 -0.6521 -0.1747
vn -0.6789 -0.6359 -0.3671
vn 0.0000 0.0000 1.0000
vn 0.0000 1.0000 0.0000
vn -0.6789 -0.6359 0.3671
vn -0.7377 -0.6521 0.1747
vn -0.7377 -0.5847 0.3375
vn -0.6789 -0.7092 0.1900
vn -0.6789 -0.3671 0.6359
vn -0.7377 -0.1747 0.6521
vn -0.6789 -0.1900 0.7092
vn -0.7377 -0.3375 0.5847
vn -0.7221 -0.0452 0.6903
vn -0.6926 -0.0472 0.7197
vn -0.7377 -0.1747 -0.6521
vn -0.6926 -0.0472 -0.7197
vn -0.7221 -0.0452 -0.6903
vn -0.6789 -0.1900 -0.7092
vn -0.7377 -0.4774 -0.4774
vn -0.6789 -0.3671 -0.6359
vn -0.7377 -0.3375 -0.5847
vn -0.6789 -0.5192 -0.5192
vn 1.0000 0.0000 0.0000
vn -0.6789 -0.5192 0.5192
vn -0.7377 -0.4774 0.4774
vn -1.0000 -0.0000 0.0000
vn -1.0000 -0.0001 0.0000
vn -0.6789 -0.7342 0.0000
vn -0.7377 -0.6751 0.0000
vn 0.0000 -1.0000 0.0000
vn -0.7376 -0.6752 0.0000
g G-__555780_G-__555780_Brick
usemtl Brick
s off
f 1//1 2//1 3//1
f 2//1 1//1 4//1
s 3
f 5//2 6//3 7//4
f 6//3 5//2 8//5
s off
f 9//6 10//6 11//6
f 10//6 9//6 12//6
f 13//6 14//6 15//6
f 14//6 13//6 16//6
g G-__555780_G-__555780_Dark_brick
usemtl Dark_brick
f 17//7 18//7 19//7
f 18//7 17//7 20//7
g G-__555780_G-__555780_Brick
usemtl Brick
s 3
f 21//8 22//9 23//10
f 22//9 21//8 24//11
s 10
f 25//12 26//13 27//14
f 26//13 25//12 28//15
s off
f 9//7 1//7 12//7
f 1//7 9//7 4//7
s 10
f 27//14 16//16 13//17
f 16//16 27//14 26//13
g G-__555780_G-__555780_Dark_brick
usemtl Dark_brick
s off
f 29//7 30//7 31//7
f 30//7 29//7 32//7
f 32//7 29//7 33//7
f 32//7 33//7 34//7
g G-__555780_G-__555780_Brick
usemtl Brick
f 35//7 14//7 36//7
f 14//7 35//7 15//7
s 3
f 37//18 38//19 39//20
f 38//19 37//18 40//21
s 10
f 41//22 42//23 43//24
f 42//23 41//22 44//25
g G-__555780_G-__555780_Dark_brick
usemtl Dark_brick
s off
f 45//26 11//26 46//26
f 11//26 45//26 2//26
g G-__555780_G-__555780_Brick
usemtl Brick
s 10
f 47//8 48//9 49//10
f 48//9 47//8 50//11
f 51//27 49//10 52//28
f 49//10 51//27 47//8
g G-__555780_G-__555780_Dark_brick
usemtl Dark_brick
s off
f 3//1 45//1 53//1
f 45//1 3//1 2//1
g G-__555780_G-__555780_Brick
usemtl Brick
f 39//1 54//1 55//1
f 54//1 39//1 38//1
f 10//29 36//29 29//29
f 36//29 10//29 56//29
f 29//29 36//29 14//29
f 29//29 14//29 57//29
f 12//29 58//29 10//29
f 58//29 12//29 43//29
f 43//29 12//29 41//29
f 41//29 12//29 59//29
f 59//29 12//29 60//29
f 1//29 60//29 12//29
f 10//29 58//29 56//29
f 60//30 1//30 61//30
f 61//29 1//29 48//29
f 48//29 1//29 49//29
f 49//29 1//29 57//29
f 49//29 57//29 52//29
f 52//29 57//29 28//29
f 28//29 57//29 26//29
f 26//29 57//29 16//29
f 16//29 57//29 14//29
f 57//29 1//29 62//29
f 62//29 1//29 6//29
f 62//29 6//29 63//29
f 62//29 63//29 64//29
f 62//29 64//29 37//29
f 62//29 37//29 32//29
f 32//29 37//29 39//29
f 6//29 1//29 7//29
f 7//29 1//29 65//29
f 65//29 1//29 22//29
f 22//29 1//29 23//29
f 23//29 1//29 66//29
f 66//29 1//29 67//29
f 67//29 1//29 68//29
f 68//29 1//29 69//29
f 69//29 1//29 70//29
f 32//29 55//29 3//29
f 55//29 32//29 39//29
f 3//29 55//29 70//29
f 1//29 3//29 70//29
s 3
f 71//31 7//4 65//32
f 7//4 71//31 5//2
s off
f 56//1 35//1 36//1
f 35//1 56//1 72//1
s 3
f 73//12 68//13 74//14
f 68//13 73//12 67//15
g G-__555780_G-__555780_Dark_brick
usemtl Dark_brick
s off
f 18//29 75//29 19//29
f 75//29 18//29 76//29
g G-__555780_G-__555780_Brick
usemtl Brick
f 77//6 70//6 78//6
f 70//6 77//6 69//6
s 3
f 63//22 79//23 64//24
f 79//23 63//22 80//25
f 81//27 23//10 66//28
f 23//10 81//27 21//8
f 74//14 69//16 77//17
f 69//16 74//14 68//13
f 24//11 65//32 22//9
f 65//32 24//11 71//31
s 10
f 58//18 72//19 56//20
f 72//19 58//18 82//21
s off
f 57//1 33//1 29//1
f 33//1 57//1 83//1
f 84//33 57//33 62//33
f 57//33 84//33 83//33
g G-__555780_G-__555780_Dark_brick
usemtl Dark_brick
f 29//6 75//6 85//6
f 75//6 29//6 17//6
f 17//6 29//6 31//6
f 19//6 75//6 17//6
g G-__555780_G-__555780_Brick
usemtl Brick
s 10
f 50//11 61//34 48//9
f 61//34 50//11 86//31
s off
f 84//6 32//6 34//6
f 32//6 84//6 62//6
g G-__555780_G-__555780_Glass
usemtl Glass
f 84//29 33//29 83//29
f 33//29 84//29 34//29
g G-__555780_G-__555780_Dark_brick
usemtl Dark_brick
f 45//33 87//33 53//33
f 87//33 45//33 85//33
f 85//33 45//33 88//33
f 88//33 45//33 46//33
f 87//33 75//33 76//33
f 75//33 87//33 85//33
f 11//6 88//6 46//6
f 88//6 11//6 10//6
g G-__555780_G-__555780_Brick
usemtl Brick
s 10
f 43//24 82//21 58//18
f 82//21 43//24 42//23
s 3
f 81//27 67//15 73//12
f 67//15 81//27 66//28
s 10
f 89//5 41//22 59//3
f 41//22 89//5 44//25
f 51//27 28//15 25//12
f 28//15 51//27 52//28
g G-__555780_G-__555780_Dark_brick
usemtl Dark_brick
s off
f 18//1 87//1 76//1
f 87//1 18//1 20//1
f 87//1 20//1 32//1
f 32//1 20//1 30//1
g G-__555780_G-__555780_Brick
usemtl Brick
s 10
f 90//2 59//3 60//4
f 59//3 90//2 89//5
s off
f 54//7 70//7 55//7
f 70//7 54//7 78//7
g G-__555780_G-__555780_Dark_brick
usemtl Dark_brick
f 29//29 88//29 10//29
f 88//29 29//29 85//29
g G-__555780_G-__555780_Brick
usemtl Brick
s 10
f 86//31 60//4 61//34
f 60//4 86//31 90//2
s off
f 2//26 9//26 11//26
f 9//26 2//26 4//26
g G-__555780_G-__555780_Dark_brick
usemtl Dark_brick
f 30//29 17//29 31//29
f 17//29 30//29 20//29
g G-__555780_G-__555780_Glass
usemtl Glass
f 40//29 54//29 38//29
f 54//29 40//29 78//29
f 78//29 40//29 79//29
f 78//29 79//29 80//29
f 78//29 80//29 8//29
f 78//29 8//29 5//29
f 78//29 5//29 71//29
f 78//29 71//29 24//29
f 78//29 24//29 21//29
f 78//29 21//29 81//29
f 78//29 81//29 73//29
f 78//29 73//29 74//29
f 78//29 74//29 77//29
f 82//29 35//29 72//29
f 35//29 82//29 15//29
f 15//29 82//29 42//29
f 15//29 42//29 44//29
f 15//29 44//29 89//29
f 15//29 89//29 90//29
f 15//29 90//29 86//29
f 15//29 86//29 50//29
f 15//29 50//29 47//29
f 15//29 47//29 51//29
f 15//29 51//29 25//29
f 15//29 25//29 27//29
f 15//29 27//29 13//29
g G-__555780_G-__555780_Dark_brick
usemtl Dark_brick
f 3//29 87//29 32//29
f 87//29 3//29 53//29
g G-__555780_G-__555780_Brick
usemtl Brick
s 3
f 8//5 63//22 6//3
f 63//22 8//5 80//25
f 64//24 40//21 37//18
f 40//21 64//24 79//23
