# Blender v2.83.10 OBJ File: 'modularV2.blend'
# www.blender.org
mtllib 0bj43.mtl
g G-__555690
v 0.499899 0.212500 0.500101
v -0.000101 0.000000 0.500101
v 0.499899 0.000000 0.500101
v -0.000101 0.212500 0.500101
v -0.500101 0.212500 -0.499899
v 0.499899 0.000000 -0.499899
v -0.500101 0.000000 -0.499899
v 0.499899 0.212500 -0.499899
v -0.500101 0.000000 0.000101
v -0.500101 0.212500 0.000101
v 0.374899 0.212500 -0.374899
v -0.375101 0.106250 -0.374899
v 0.374899 0.106250 -0.374899
v -0.375101 0.212500 -0.374899
v -0.375101 0.212500 0.000101
v -0.000101 0.212500 0.375101
v 0.374899 0.212500 0.375101
v 0.374899 0.106250 0.375101
v -0.000101 0.106250 0.375101
v -0.375101 0.106250 0.000101
vn 0.0000 0.0000 1.0000
vn 0.0000 0.0000 -1.0000
vn 1.0000 0.0000 0.0000
vn -1.0000 0.0000 0.0000
vn -0.7071 0.0000 0.7071
vn 0.0000 -1.0000 0.0000
vn 0.0000 1.0000 0.0000
vn 0.7071 0.0000 -0.7071
g G-__555690_G-__555690_Brick
usemtl Brick
s off
f 1//1 2//1 3//1
f 2//1 1//1 4//1
f 5//2 6//2 7//2
f 6//2 5//2 8//2
f 6//3 1//3 3//3
f 1//3 6//3 8//3
f 5//4 9//4 10//4
f 9//4 5//4 7//4
f 11//1 12//1 13//1
f 12//1 11//1 14//1
f 4//5 9//5 2//5
f 9//5 4//5 10//5
f 6//6 9//6 7//6
f 9//6 6//6 2//6
f 2//6 6//6 3//6
f 10//7 15//7 5//7
f 15//7 10//7 4//7
f 15//7 4//7 16//7
f 1//7 16//7 4//7
f 16//7 1//7 17//7
f 17//7 1//7 11//7
f 5//7 14//7 8//7
f 14//7 5//7 15//7
f 8//7 14//7 11//7
f 1//7 8//7 11//7
f 11//4 18//4 17//4
f 18//4 11//4 13//4
f 15//8 19//8 20//8
f 19//8 15//8 16//8
f 12//3 15//3 20//3
f 15//3 12//3 14//3
f 16//2 18//2 19//2
f 18//2 16//2 17//2
f 19//7 12//7 20//7
f 12//7 19//7 13//7
f 13//7 19//7 18//7
