# Blender v2.83.10 OBJ File: 'modularV2.blend'
# www.blender.org
mtllib 0bj41.mtl
g G-__555708
v 0.499668 0.000000 -0.499668
v -0.500332 0.000000 0.000332
v -0.500332 0.000000 -0.499668
v -0.000332 0.000000 0.500332
v 0.499668 0.000000 0.500332
v -0.500332 0.106250 -0.499668
v -0.500332 0.106250 0.000332
v 0.499668 0.106250 0.500332
v -0.000332 0.106250 0.500332
v 0.499668 0.106250 -0.499668
vn 0.0000 -1.0000 0.0000
vn -1.0000 0.0000 0.0000
vn 0.0000 0.0000 1.0000
vn 1.0000 0.0000 0.0000
vn 0.0000 0.0000 -1.0000
vn -0.7071 0.0000 0.7071
vn 0.0000 1.0000 0.0000
g G-__555708_G-__555708_Brick
usemtl Brick
s off
f 1//1 2//1 3//1
f 2//1 1//1 4//1
f 4//1 1//1 5//1
f 6//2 2//2 7//2
f 2//2 6//2 3//2
f 8//3 4//3 5//3
f 4//3 8//3 9//3
f 1//4 8//4 5//4
f 8//4 1//4 10//4
f 6//5 1//5 3//5
f 1//5 6//5 10//5
f 7//6 4//6 9//6
f 4//6 7//6 2//6
f 9//7 6//7 7//7
f 6//7 9//7 10//7
f 10//7 9//7 8//7
