# Blender v2.83.10 OBJ File: 'modularV2.blend'
# www.blender.org
mtllib 0bj57.mtl
g G-__556059
v -0.502593 0.625000 -0.497407
v -0.502593 0.000000 0.002593
v -0.502593 0.625000 0.002593
v -0.502593 0.000000 -0.497407
v -0.002593 0.000000 0.502593
v -0.002593 0.625000 0.502593
v 0.497407 0.000000 -0.497407
v 0.497407 0.000000 0.502593
v 0.497407 0.625000 -0.497407
v 0.497407 0.625000 0.502593
vn -1.0000 0.0000 0.0000
vn -0.7071 0.0000 0.7071
vn 0.0000 -1.0000 0.0000
vn 0.0000 1.0000 0.0000
vn 1.0000 0.0000 0.0000
vn 0.0000 0.0000 -1.0000
vn 0.0000 0.0000 1.0000
g G-__556059_G-__556059_Brick
usemtl Brick
s off
f 1//1 2//1 3//1
f 2//1 1//1 4//1
f 3//2 5//2 6//2
f 5//2 3//2 2//2
f 4//3 5//3 2//3
f 5//3 4//3 7//3
f 5//3 7//3 8//3
f 6//4 1//4 3//4
f 1//4 6//4 9//4
f 9//4 6//4 10//4
f 7//5 10//5 8//5
f 10//5 7//5 9//5
f 1//6 7//6 4//6
f 7//6 1//6 9//6
f 10//7 5//7 8//7
f 5//7 10//7 6//7
