# Blender v2.83.10 OBJ File: 'modularV2.blend'
# www.blender.org
mtllib 0bj5.mtl
g G-__555717
v 0.500000 0.000000 -0.500000
v -0.500000 0.000000 0.500000
v -0.500000 0.000000 -0.500000
v 0.500000 0.000000 0.500000
v -0.500000 0.625000 -0.500000
v -0.500000 0.625000 0.500000
v 0.500000 0.625000 0.500000
v 0.500000 0.625000 -0.500000
vn 0.0000 -1.0000 0.0000
vn -1.0000 0.0000 0.0000
vn 0.0000 0.0000 1.0000
vn 0.0000 0.0000 -1.0000
vn 0.0000 1.0000 0.0000
vn 1.0000 0.0000 0.0000
g G-__555717_G-__555717_Brick
usemtl Brick
s off
f 1//1 2//1 3//1
f 2//1 1//1 4//1
f 5//2 2//2 6//2
f 2//2 5//2 3//2
f 7//3 2//3 4//3
f 2//3 7//3 6//3
f 5//4 1//4 3//4
f 1//4 5//4 8//4
f 7//5 5//5 6//5
f 5//5 7//5 8//5
f 1//6 7//6 4//6
f 7//6 1//6 8//6
