# Blender v2.83.10 OBJ File: 'modularV2.blend'
# www.blender.org
mtllib 0bj51.mtl
g G-__556158
v 0.500390 0.000000 -0.500959
v 0.500390 0.625000 0.499041
v 0.500390 0.000000 0.499041
v 0.500390 0.625000 -0.500959
v -0.399610 0.500000 0.061541
v -0.499610 0.500000 0.374041
v -0.499610 0.500000 0.061541
v -0.399610 0.500000 0.374041
v -0.499610 0.120000 0.061541
v -0.399610 0.120000 0.061541
v -0.399610 0.120000 0.374041
v -0.499610 0.000000 0.499041
v -0.499610 0.625000 0.499041
v -0.499610 0.625000 -0.500959
v -0.499610 0.000000 -0.500959
v -0.499610 0.060000 0.061541
v -0.499610 0.060000 0.374041
v -0.499610 0.120000 0.374041
v -0.549610 0.120000 0.061541
v -0.549610 0.120000 0.374041
v -0.399610 0.060000 0.061541
v -0.399610 0.060000 0.374041
v -0.549610 0.060000 0.374041
v -0.549610 0.060000 0.061541
vn 1.0000 0.0000 0.0000
vn 0.0000 -1.0000 0.0000
vn 0.0000 0.0000 1.0000
vn -1.0000 0.0000 0.0000
vn 0.0000 0.0000 -1.0000
vn 0.0000 1.0000 0.0000
g G-__556158_G-__556158_Brick
usemtl Brick
s off
f 1//1 2//1 3//1
f 2//1 1//1 4//1
f 5//2 6//2 7//2
f 6//2 5//2 8//2
f 5//3 9//3 10//3
f 9//3 5//3 7//3
g G-__556158_G-__556158_Glass
usemtl Glass
f 5//4 11//4 8//4
f 11//4 5//4 10//4
g G-__556158_G-__556158_Brick
usemtl Brick
f 2//3 12//3 3//3
f 12//3 2//3 13//3
f 14//5 1//5 15//5
f 1//5 14//5 4//5
f 2//6 14//6 13//6
f 14//6 2//6 4//6
f 13//4 6//4 12//4
f 6//4 13//4 14//4
f 6//4 14//4 7//4
f 7//4 14//4 9//4
f 9//4 14//4 16//4
f 12//4 17//4 15//4
f 17//4 12//4 6//4
f 17//1 6//1 18//1
f 15//4 17//4 16//4
f 15//4 16//4 14//4
f 6//5 11//5 18//5
f 11//5 6//5 8//5
f 18//6 19//6 20//6
f 19//6 18//6 9//6
f 9//6 18//6 11//6
f 9//6 11//6 10//6
g G-__556158_G-__556158_Material
usemtl Material
f 21//2 17//2 16//2
f 17//2 21//2 22//2
f 21//1 11//1 22//1
f 11//1 21//1 10//1
g G-__556158_G-__556158_Brick
usemtl Brick
f 19//4 23//4 20//4
f 23//4 19//4 24//4
g G-__556158_G-__556158_Material
usemtl Material
f 9//5 21//5 16//5
f 21//5 9//5 10//5
g G-__556158_G-__556158_Brick
usemtl Brick
f 1//2 12//2 15//2
f 12//2 1//2 3//2
f 19//5 16//5 24//5
f 16//5 19//5 9//5
f 18//3 23//3 17//3
f 23//3 18//3 20//3
g G-__556158_G-__556158_Material
usemtl Material
f 11//3 17//3 22//3
f 17//3 11//3 18//3
g G-__556158_G-__556158_Brick
usemtl Brick
f 16//2 23//2 24//2
f 23//2 16//2 17//2
