# Blender v2.83.10 OBJ File: 'modularV2.blend'
# www.blender.org
mtllib 0bj53.mtl
g G-__556005
v -0.506746 0.625000 -0.498257
v -0.506746 0.000000 0.001743
v -0.506746 0.625000 0.001743
v -0.506746 0.000000 -0.498257
v 0.493254 0.000000 -0.498257
v 0.493254 0.625000 0.501743
v 0.493254 0.000000 0.501743
v 0.493254 0.625000 -0.498257
v -0.006746 0.625000 0.501743
v -0.006746 0.000000 0.501743
v -0.075550 0.502500 0.291518
v -0.296521 0.122500 0.070547
v -0.075550 0.122500 0.291518
v -0.296521 0.502500 0.070547
v -0.146261 0.502500 0.362229
v -0.367232 0.502500 0.141258
v -0.367232 0.122500 0.141258
v -0.146261 0.122500 0.362229
vn -1.0000 0.0000 0.0000
vn 1.0000 0.0000 0.0000
vn 0.0000 1.0000 0.0000
vn 0.0000 0.0000 1.0000
vn 0.0000 0.0000 -1.0000
vn -0.7071 0.0000 0.7071
vn 0.0000 -1.0000 -0.0000
vn 0.7071 0.0000 0.7071
vn -0.7071 0.0000 -0.7071
g G-__556005_G-__556005_Brick
usemtl Brick
s off
f 1//1 2//1 3//1
f 2//1 1//1 4//1
f 5//2 6//2 7//2
f 6//2 5//2 8//2
f 9//3 1//3 3//3
f 1//3 9//3 8//3
f 8//3 9//3 6//3
f 6//4 10//4 7//4
f 10//4 6//4 9//4
f 1//5 5//5 4//5
f 5//5 1//5 8//5
g G-__556005_G-__556005_Glass
usemtl Glass
f 11//6 12//6 13//6
f 12//6 11//6 14//6
g G-__556005_G-__556005_Brick
usemtl Brick
f 14//7 15//7 16//7
f 15//7 14//7 11//7
f 9//6 15//6 10//6
f 15//6 9//6 3//6
f 15//6 3//6 16//6
f 16//6 3//6 17//6
f 10//6 18//6 2//6
f 18//6 10//6 15//6
f 2//6 18//6 17//6
f 2//6 17//6 3//6
f 4//7 10//7 2//7
f 10//7 4//7 5//7
f 10//7 5//7 7//7
f 12//8 16//8 17//8
f 16//8 12//8 14//8
f 11//9 18//9 15//9
f 18//9 11//9 13//9
f 18//3 12//3 17//3
f 12//3 18//3 13//3
