# Blender v2.83.10 OBJ File: 'modularV2.blend'
# www.blender.org
mtllib 0bj58.mtl
g G-__556086
v -0.094626 0.500000 0.269735
v -0.165336 0.000000 0.340445
v -0.165336 0.500000 0.340445
v -0.094626 0.000000 0.269735
v -0.271402 0.000000 0.092958
v -0.342113 0.500000 0.163669
v -0.342113 0.000000 0.163669
v -0.271402 0.500000 0.092958
v -0.503725 0.625000 -0.497943
v -0.503725 0.000000 0.002057
v -0.503725 0.625000 0.002057
v -0.503725 0.000000 -0.497943
v -0.003725 0.625000 0.502057
v 0.496275 0.625000 -0.497943
v 0.496275 0.625000 0.502057
v 0.496275 0.000000 -0.497943
v -0.003725 0.000000 0.502057
v 0.496275 0.000000 0.502057
vn -0.7071 0.0000 -0.7071
vn 0.7071 0.0000 0.7071
vn -1.0000 0.0000 0.0000
vn 0.0000 1.0000 0.0000
vn 0.0000 -1.0000 0.0000
vn -0.7071 0.0000 0.7071
vn 0.0000 0.0000 1.0000
vn 1.0000 0.0000 0.0000
vn 0.0000 0.0000 -1.0000
g G-__556086_G-__556086_Brick
usemtl Brick
s off
f 1//1 2//1 3//1
f 2//1 1//1 4//1
f 5//2 6//2 7//2
f 6//2 5//2 8//2
f 9//3 10//3 11//3
f 10//3 9//3 12//3
f 13//4 9//4 11//4
f 9//4 13//4 14//4
f 14//4 13//4 15//4
f 12//5 7//5 10//5
f 7//5 12//5 5//5
f 5//5 12//5 16//5
f 5//5 16//5 4//5
f 4//5 16//5 17//5
f 17//5 16//5 18//5
f 17//5 2//5 4//5
g G-__556086_G-__556086_Glass
usemtl Glass
f 1//6 5//6 4//6
f 5//6 1//6 8//6
g G-__556086_G-__556086_Brick
usemtl Brick
f 15//7 17//7 18//7
f 17//7 15//7 13//7
f 8//5 3//5 6//5
f 1//5 3//5 8//5
f 13//6 2//6 17//6
f 2//6 13//6 3//6
f 3//6 13//6 6//6
f 6//6 10//6 7//6
f 10//6 6//6 11//6
f 11//6 6//6 13//6
f 16//8 15//8 18//8
f 15//8 16//8 14//8
f 9//9 16//9 12//9
f 16//9 9//9 14//9
