# Blender v2.83.10 OBJ File: 'modularV2.blend'
# www.blender.org
mtllib 0bj56.mtl
g G-__555996
v -0.005636 0.625000 0.503968
v -0.074439 0.625000 0.293743
v -0.145150 0.625000 0.364453
v -0.366121 0.625000 0.143482
v -0.505636 0.625000 -0.496032
v -0.505636 0.625000 0.003968
v -0.295410 0.625000 0.072772
v 0.494364 0.625000 -0.496032
v 0.494364 0.625000 0.503968
v 0.494364 0.000000 -0.496032
v 0.494364 0.000000 0.503968
v -0.005636 0.000000 0.503968
v -0.145150 0.000000 0.364453
v -0.366121 0.000000 0.143482
v -0.505636 0.000000 0.003968
v -0.505636 0.000000 -0.496032
v -0.295410 0.000000 0.072772
v -0.074439 0.000000 0.293743
vn 0.0000 1.0000 0.0000
vn 1.0000 0.0000 0.0000
vn -0.7071 0.0000 0.7071
vn -1.0000 0.0000 0.0000
vn 0.0000 -1.0000 0.0000
vn 0.0000 0.0000 -1.0000
vn 0.0000 0.0000 1.0000
vn 0.7071 0.0000 0.7071
vn -0.7071 0.0000 -0.7071
g G-__555996_G-__555996_Brick
usemtl Brick
s off
f 1//1 2//1 3//1
f 4//1 5//1 6//1
f 5//1 4//1 7//1
f 5//1 7//1 8//1
f 8//1 7//1 2//1
f 1//1 8//1 2//1
f 8//1 1//1 9//1
f 10//2 9//2 11//2
f 9//2 10//2 8//2
f 1//3 3//3 12//3
f 12//3 3//3 13//3
f 6//3 14//3 4//3
f 14//3 6//3 15//3
f 5//4 15//4 6//4
f 15//4 5//4 16//4
f 10//5 15//5 16//5
f 15//5 10//5 17//5
f 15//5 17//5 14//5
f 17//5 10//5 18//5
f 18//5 10//5 12//5
f 12//5 10//5 11//5
f 12//5 13//5 18//5
g G-__555996_G-__555996_Glass
usemtl Glass
f 2//3 17//3 18//3
f 17//3 2//3 7//3
g G-__555996_G-__555996_Brick
usemtl Brick
f 5//6 10//6 16//6
f 10//6 5//6 8//6
f 9//7 12//7 11//7
f 1//7 12//7 9//7
f 17//8 4//8 14//8
f 4//8 17//8 7//8
f 2//9 13//9 3//9
f 13//9 2//9 18//9
