# Blender v2.83.10 OBJ File: 'modularV2.blend'
# www.blender.org
mtllib 0bj55.mtl
g G-__555888
v 0.497037 0.000000 -0.498704
v 0.497037 0.625000 0.501296
v 0.497037 0.000000 0.501296
v 0.497037 0.625000 -0.498704
v -0.502963 0.625000 0.001296
v -0.502963 0.000000 -0.498704
v -0.502963 0.000000 0.501296
v -0.502963 0.625000 -0.498704
v -0.002963 0.625000 0.501296
vn 1.0000 0.0000 0.0000
vn -1.0000 0.0000 0.0000
vn 0.0000 -1.0000 0.0000
vn -0.6155 0.4924 0.6155
vn 0.0000 1.0000 0.0000
vn 0.0000 0.0000 -1.0000
vn 0.0000 0.0000 1.0000
g G-__555888_G-__555888_Brick
usemtl Brick
s off
f 1//1 2//1 3//1
f 2//1 1//1 4//1
f 5//2 6//2 7//2
f 6//2 5//2 8//2
f 1//3 7//3 6//3
f 7//3 1//3 3//3
f 5//4 7//4 9//4
f 9//5 8//5 5//5
f 8//5 9//5 4//5
f 4//5 9//5 2//5
f 8//6 1//6 6//6
f 1//6 8//6 4//6
f 2//7 7//7 3//7
f 7//7 2//7 9//7
