# Blender v2.83.10 OBJ File: 'modularV2.blend'
# www.blender.org
mtllib 0bj50.mtl
g G-__556113
v -0.499610 0.625000 -0.499041
v 0.500390 0.000000 -0.499041
v -0.499610 0.000000 -0.499041
v 0.500390 0.625000 -0.499041
v -0.399610 0.060000 -0.374041
v -0.499610 0.060000 -0.061541
v -0.499610 0.060000 -0.374041
v -0.399610 0.060000 -0.061541
v -0.499610 0.500000 -0.061541
v -0.399610 0.120000 -0.061541
v -0.499610 0.120000 -0.061541
v -0.399610 0.500000 -0.061541
v -0.399610 0.500000 -0.374041
v -0.399610 0.120000 -0.374041
v -0.499610 0.120000 -0.374041
v -0.499610 0.500000 -0.374041
v -0.549610 0.120000 -0.374041
v -0.549610 0.060000 -0.374041
v -0.499610 0.000000 0.500959
v 0.500390 0.000000 0.500959
v -0.549610 0.060000 -0.061541
v -0.549610 0.120000 -0.061541
v 0.500390 0.625000 0.500959
v -0.499610 0.625000 0.500959
vn 0.0000 0.0000 -1.0000
vn 0.0000 -1.0000 0.0000
vn -1.0000 0.0000 0.0000
vn 1.0000 0.0000 0.0000
vn 0.0000 0.0000 1.0000
vn 0.0000 1.0000 0.0000
g G-__556113_G-__556113_Brick
usemtl Brick
s off
f 1//1 2//1 3//1
f 2//1 1//1 4//1
g G-__556113_G-__556113_Material
usemtl Material
f 5//2 6//2 7//2
f 6//2 5//2 8//2
g G-__556113_G-__556113_Brick
usemtl Brick
f 9//1 10//1 11//1
f 10//1 9//1 12//1
g G-__556113_G-__556113_Glass
usemtl Glass
f 13//3 10//3 12//3
f 10//3 13//3 14//3
g G-__556113_G-__556113_Material
usemtl Material
f 5//4 10//4 8//4
f 10//4 5//4 14//4
f 10//5 6//5 8//5
f 6//5 10//5 11//5
g G-__556113_G-__556113_Brick
usemtl Brick
f 13//5 15//5 14//5
f 15//5 13//5 16//5
f 17//1 7//1 18//1
f 7//1 17//1 15//1
f 2//2 19//2 3//2
f 19//2 2//2 20//2
f 17//3 21//3 22//3
f 21//3 17//3 18//3
f 2//4 23//4 20//4
f 23//4 2//4 4//4
f 13//2 9//2 16//2
f 9//2 13//2 12//2
f 11//5 21//5 6//5
f 21//5 11//5 22//5
f 7//2 21//2 18//2
f 21//2 7//2 6//2
f 11//6 17//6 22//6
f 17//6 11//6 15//6
f 15//6 11//6 10//6
f 15//6 10//6 14//6
f 23//6 1//6 24//6
f 1//6 23//6 4//6
f 24//3 9//3 19//3
f 1//3 9//3 24//3
f 9//3 1//3 16//3
f 16//3 1//3 15//3
f 15//3 1//3 7//3
f 19//3 6//3 3//3
f 6//3 19//3 9//3
f 6//4 9//4 11//4
f 3//3 6//3 7//3
f 1//3 3//3 7//3
g G-__556113_G-__556113_Material
usemtl Material
f 15//1 5//1 7//1
f 5//1 15//1 14//1
g G-__556113_G-__556113_Brick
usemtl Brick
f 23//5 19//5 20//5
f 19//5 23//5 24//5
