# Blender v2.83.10 OBJ File: ''
# www.blender.org
mtllib 0bj68.mtl
o G-__556851
v -0.276656 0.560417 0.326654
v -0.326656 0.059432 -0.792114
v -0.326656 0.560417 0.276654
v 0.792113 0.059432 0.326654
v -0.326656 0.041667 0.326654
v -0.326656 0.560417 0.326654
v -0.326656 0.041667 -0.673346
v -0.326656 -0.000776 -0.763891
v 0.763890 -0.000776 0.326654
v 0.673344 0.041667 0.326654
vn 0.3907 0.8335 -0.3907
vn 0.0000 1.0000 0.0000
vn 0.6712 -0.3146 -0.6712
vn -0.3907 -0.8335 0.3907
vn -1.0000 0.0000 0.0000
vn 0.0000 -1.0000 0.0000
vn -0.0000 0.0000 1.0000
usemtl Roof
s off
f 1//1 2//1 3//1
f 2//1 1//1 4//1
f 1//2 3//2 6//2
f 9//3 2//3 4//3
f 2//3 9//3 8//3
f 8//4 10//4 7//4
f 10//4 8//4 9//4
usemtl Brick
f 3//5 5//5 6//5
f 5//5 3//5 7//5
f 7//5 3//5 2//5
f 7//5 2//5 8//5
f 10//6 5//6 7//6
f 4//7 10//7 9//7
f 10//7 4//7 5//7
f 5//7 4//7 6//7
f 1//7 6//7 4//7
