# Blender v2.83.10 OBJ File: 'modularV3.blend'
# www.blender.org
mtllib 0bj65.mtl
o G-__556923
v -0.571197 0.052710 -0.571196
v -0.525554 0.000000 0.474447
v -0.571197 0.052710 0.474447
v -0.525554 0.000000 -0.525553
v 0.474446 0.091694 0.474447
v -0.025554 0.518750 -0.025553
v -0.025554 0.518750 0.474447
v 0.474446 0.000000 -0.525553
v 0.474446 0.000000 0.474447
v 0.474446 0.518750 -0.025553
v 0.474446 0.052710 -0.571196
vn -0.7560 -0.6546 0.0000
vn 0.6495 0.7604 0.0000
vn 0.0000 -0.6546 -0.7560
vn 0.0000 0.7604 0.6495
vn 0.0000 0.7604 -0.6495
vn -0.6495 0.7604 0.0000
vn 1.0000 0.0000 0.0000
vn 0.0000 0.0000 1.0000
vn 0.0000 -1.0000 0.0000
usemtl Roof
s off
f 1//1 2//1 3//1
f 2//1 1//1 4//1
f 5//2 6//2 7//2
f 1//3 8//3 4//3
f 8//3 1//3 11//3
f 5//4 10//4 6//4
f 1//5 6//5 11//5
f 11//5 6//5 10//5
f 1//6 3//6 6//6
f 6//6 3//6 7//6
usemtl Brick
f 8//7 5//7 9//7
f 5//7 8//7 10//7
f 10//7 8//7 11//7
f 5//8 2//8 9//8
f 2//8 5//8 3//8
f 3//8 5//8 7//8
f 8//9 2//9 4//9
f 2//9 8//9 9//9
