# Blender v2.83.10 OBJ File: 'modularV3.blend'
# www.blender.org
mtllib 0bj60.mtl
o G-__557049
v 0.499999 0.000000 -0.500002
v 0.499999 0.427056 -0.000002
v 0.499999 0.000000 0.499998
v -0.500001 0.052710 0.545641
v 0.499999 0.518750 -0.000002
v -0.500001 0.518750 -0.000002
v 0.499999 0.052710 0.545641
v -0.500001 0.000000 0.499998
v -0.500001 0.427056 -0.000002
v -0.500001 0.000000 -0.500002
v 0.499999 0.052710 -0.545645
v -0.500001 0.052710 -0.545645
vn 1.0000 0.0000 0.0000
vn 0.0000 0.7604 0.6495
vn 0.0000 -1.0000 0.0000
vn -1.0000 0.0000 0.0000
vn 0.0000 0.7604 -0.6495
vn 0.0000 -0.6546 -0.7560
vn 0.0000 -0.6546 0.7560
usemtl Brick
s off
f 1//1 2//1 3//1
f 8//2 2//2 9//2
f 2//2 8//2 3//2
f 1//3 8//3 10//3
f 8//3 1//3 3//3
f 10//4 8//4 9//4
f 9//5 1//5 10//5
f 1//5 9//5 2//5
usemtl Roof
f 4//2 5//2 6//2
f 5//2 4//2 7//2
f 3//1 5//1 7//1
f 5//1 3//1 2//1
f 1//1 5//1 2//1
f 5//1 1//1 11//1
f 12//6 1//6 10//6
f 1//6 12//6 11//6
f 6//4 8//4 4//4
f 8//4 6//4 9//4
f 9//4 6//4 10//4
f 10//4 6//4 12//4
f 7//7 8//7 3//7
f 8//7 7//7 4//7
f 6//5 11//5 12//5
f 11//5 6//5 5//5
