# Blender v2.83.10 OBJ File: ''
# www.blender.org
mtllib 0bj64.mtl
o G-__556932
v -0.619623 0.059663 -0.500001
v -0.500854 0.041898 -0.500001
v -0.591400 -0.000545 -0.500001
v 0.499146 0.510648 -0.500001
v 0.449146 0.560649 -0.500001
v 0.499146 0.560649 -0.500001
v -0.619623 0.059663 0.499999
v -0.591400 -0.000545 0.499999
v -0.500854 0.041898 0.499999
v 0.449146 0.560649 0.499999
v 0.499146 0.510648 0.499999
v 0.499146 0.560649 0.499999
v 0.499146 0.041898 -0.500001
v 0.499146 0.041898 0.499999
vn 0.0000 0.0000 -1.0000
vn -0.9055 -0.4244 -0.0000
vn 0.4244 -0.9055 -0.0000
vn -0.4244 0.9055 0.0000
vn -0.0000 -0.0000 1.0000
vn 0.0000 1.0000 0.0000
vn 0.0000 -1.0000 -0.0000
vn 1.0000 -0.0000 0.0000
vn -1.0000 0.0000 0.0000
usemtl Roof
s 1
f 1//1 2//1 3//1
f 2//1 1//1 4//1
f 4//1 1//1 5//1
f 4//1 5//1 6//1
f 7//2 3//2 8//2
f 1//2 3//2 7//2
f 2//3 8//3 3//3
f 8//3 2//3 9//3
f 1//4 7//4 5//4
f 5//4 7//4 10//4
f 9//5 7//5 8//5
f 7//5 9//5 11//5
f 7//5 11//5 10//5
f 10//5 11//5 12//5
f 12//6 5//6 10//6
f 5//6 12//6 6//6
usemtl Brick
f 13//7 9//7 2//7
f 9//7 13//7 14//7
f 13//8 11//8 14//8
f 11//8 13//8 12//8
f 12//8 13//8 6//8
f 6//9 13//9 4//9
f 4//1 13//1 2//1
f 11//5 9//5 14//5
