# Blender v2.83.10 OBJ File: 'modularV2.blend'
# www.blender.org
mtllib 0bj6.mtl
g G-__556185
v -0.521591 0.625000 -0.500000
v -0.421591 0.500000 -0.500000
v -0.521591 0.500000 -0.500000
v 0.478409 0.000000 -0.500000
v -0.421591 0.000000 -0.500000
v 0.478409 0.625000 -0.500000
v 0.478409 0.625000 0.500000
v 0.478409 0.000000 0.500000
v -0.521591 0.500000 0.500000
v -0.521591 0.625000 0.500000
v -0.421591 0.000000 0.500000
v -0.421591 0.500000 0.500000
vn 0.0000 0.0000 -1.0000
vn 1.0000 0.0000 0.0000
vn -1.0000 0.0000 0.0000
vn 0.0000 -1.0000 0.0000
vn 0.0000 1.0000 0.0000
vn 0.0000 0.0000 1.0000
g G-__556185_G-__556185_Brick
usemtl Brick
s off
f 1//1 2//1 3//1
f 2//1 4//1 5//1
f 4//1 2//1 6//1
f 1//1 6//1 2//1
f 4//2 7//2 8//2
f 7//2 4//2 6//2
f 1//3 9//3 10//3
f 9//3 1//3 3//3
f 4//4 11//4 5//4
f 11//4 4//4 8//4
f 2//4 9//4 3//4
f 9//4 2//4 12//4
f 7//5 1//5 10//5
f 1//5 7//5 6//5
f 7//6 11//6 8//6
f 11//6 7//6 12//6
f 12//6 7//6 9//6
f 9//6 7//6 10//6
g G-__556185_G-__556185_Glass
usemtl Glass
f 2//3 11//3 12//3
f 11//3 2//3 5//3
