# Blender v2.83.10 OBJ File: 'modularV2.blend'
# www.blender.org
mtllib 0bj73.mtl
g G-__556356
v 0.000147 0.500000 0.187500
v -0.049853 0.500000 -0.187500
v -0.049853 0.500000 0.187500
v 0.000147 0.500000 -0.187500
v -0.049853 0.000000 0.187500
v 0.000147 0.000000 0.187500
v 0.000147 0.047742 0.139758
v 0.000147 0.000000 -0.187500
v 0.000147 0.047742 -0.139758
v 0.000147 0.166129 -0.139758
v 0.000147 0.213871 -0.139758
v 0.000147 0.452258 -0.139758
v 0.000147 0.452258 0.139758
v 0.000147 0.166129 0.139758
v 0.000147 0.213871 0.139758
v -0.049853 0.000000 -0.187500
v -0.049853 0.452258 0.139758
v -0.049853 0.452258 -0.139758
v -0.049853 0.047742 -0.139758
v -0.049853 0.047742 0.139758
vn 0.0000 1.0000 0.0000
vn 0.0000 0.0000 1.0000
vn 1.0000 0.0000 0.0000
vn 0.0000 0.0000 -1.0000
vn 0.0000 -1.0000 0.0000
vn -1.0000 0.0000 0.0000
g G-__556356_G-__556356_Wood
usemtl Wood
s off
f 1//1 2//1 3//1
f 2//1 1//1 4//1
f 1//2 5//2 6//2
f 5//2 1//2 3//2
f 1//3 6//3 7//3
f 7//3 6//3 8//3
f 7//3 8//3 9//3
f 9//3 8//3 10//3
f 10//3 8//3 11//3
f 11//3 8//3 12//3
f 1//3 13//3 4//3
f 13//3 1//3 7//3
f 13//3 7//3 14//3
f 13//3 14//3 15//3
f 4//3 13//3 12//3
f 4//3 12//3 8//3
f 2//4 8//4 16//4
f 8//4 2//4 4//4
f 12//5 17//5 18//5
f 17//5 12//5 13//5
f 3//6 17//6 5//6
f 17//6 3//6 2//6
f 17//6 2//6 18//6
f 18//6 2//6 19//6
f 5//6 20//6 16//6
f 20//6 5//6 17//6
f 16//6 20//6 19//6
f 16//6 19//6 2//6
f 10//2 19//2 9//2
f 19//2 10//2 18//2
f 18//2 10//2 11//2
f 18//2 11//2 12//2
f 17//4 7//4 20//4
f 7//4 17//4 14//4
f 14//4 17//4 15//4
f 15//4 17//4 13//4
f 7//1 19//1 20//1
f 19//1 7//1 9//1
f 8//5 5//5 16//5
f 5//5 8//5 6//5
