# Blender v2.83.10 OBJ File: 'modularV2.blend'
# www.blender.org
mtllib 0bj74.mtl
g G-__556347
v 0.000053 0.452258 -0.139758
v -0.049947 0.452258 0.139758
v -0.049947 0.452258 -0.139758
v 0.000053 0.452258 0.139758
v 0.000053 0.166129 -0.139758
v -0.049947 0.047742 -0.139758
v 0.000053 0.047742 -0.139758
v 0.000053 0.213871 -0.139758
v -0.049947 0.500000 0.187500
v -0.049947 0.000000 0.187500
v -0.049947 0.500000 -0.187500
v -0.049947 0.047742 0.139758
v -0.049947 0.000000 -0.187500
v 0.000053 0.000000 -0.187500
v 0.000053 0.500000 -0.187500
v 0.000053 0.500000 0.187500
v 0.000053 0.047742 0.139758
v 0.000053 0.166129 0.139758
v 0.000053 0.213871 0.139758
v 0.000053 0.000000 0.187500
vn 0.0000 -1.0000 0.0000
vn 0.0000 0.0000 1.0000
vn -1.0000 0.0000 0.0000
vn 0.0000 0.0000 -1.0000
vn 0.0000 1.0000 0.0000
vn 1.0000 0.0000 0.0000
g G-__556347_G-__556347_Metal
usemtl Metal
s off
f 1//1 2//1 3//1
f 2//1 1//1 4//1
f 5//2 6//2 7//2
f 6//2 5//2 3//2
f 3//2 5//2 8//2
f 1//2 3//2 8//2
f 9//3 2//3 10//3
f 2//3 9//3 11//3
f 2//3 11//3 3//3
f 3//3 11//3 6//3
f 10//3 12//3 13//3
f 12//3 10//3 2//3
f 13//3 12//3 6//3
f 13//3 6//3 11//3
f 11//4 14//4 13//4
f 14//4 11//4 15//4
f 16//5 11//5 9//5
f 11//5 16//5 15//5
f 17//5 6//5 12//5
f 6//5 17//5 7//5
f 2//4 17//4 12//4
f 17//4 2//4 18//4
f 18//4 2//4 19//4
f 19//4 2//4 4//4
f 20//6 17//6 16//6
f 17//6 20//6 14//6
f 17//6 14//6 7//6
f 7//6 14//6 5//6
f 5//6 14//6 8//6
f 1//6 8//6 14//6
f 16//6 4//6 15//6
f 4//6 16//6 17//6
f 4//2 17//2 18//2
f 4//6 18//6 19//6
f 1//6 15//6 4//6
f 15//6 1//6 14//6
f 14//1 10//1 13//1
f 10//1 14//1 20//1
f 16//2 10//2 20//2
f 10//2 16//2 9//2
