# Blender v2.83.10 OBJ File: 'modularV2.blend'
# www.blender.org
mtllib 0bj72.mtl
g G-__556239
v 0.000343 0.500000 0.125000
v -0.049657 0.500000 -0.125000
v -0.049657 0.500000 0.125000
v 0.000343 0.500000 -0.125000
v -0.024657 0.445764 -0.070764
v -0.024657 0.054236 0.070764
v -0.024657 0.445764 0.070764
v -0.024657 0.054236 -0.070764
v -0.049657 0.445764 0.070764
v -0.049657 0.445764 -0.070764
v 0.000343 0.000000 -0.125000
v -0.049657 0.000000 0.125000
v -0.049657 0.000000 -0.125000
v 0.000343 0.000000 0.125000
v -0.049657 0.054236 -0.070764
v -0.049657 0.054236 0.070764
vn 0.0000 1.0000 0.0000
vn -1.0000 0.0000 0.0000
vn 0.0000 -1.0000 0.0000
vn 0.0000 0.0000 -1.0000
vn 0.0000 0.0000 1.0000
vn 1.0000 0.0000 0.0000
g G-__556239_G-__556239_Wood
usemtl Wood
s off
f 1//1 2//1 3//1
f 2//1 1//1 4//1
g G-__556239_G-__556239_Glass
usemtl Glass
f 5//2 6//2 7//2
f 6//2 5//2 8//2
g G-__556239_G-__556239_Wood
usemtl Wood
f 5//3 9//3 10//3
f 9//3 5//3 7//3
f 11//3 12//3 13//3
f 12//3 11//3 14//3
f 6//1 15//1 16//1
f 15//1 6//1 8//1
f 2//4 11//4 13//4
f 11//4 2//4 4//4
f 3//2 9//2 12//2
f 9//2 3//2 2//2
f 9//2 2//2 10//2
f 10//2 2//2 15//2
f 12//2 16//2 13//2
f 16//2 12//2 9//2
f 13//2 16//2 15//2
f 13//2 15//2 2//2
f 5//5 15//5 8//5
f 15//5 5//5 10//5
f 1//5 12//5 14//5
f 12//5 1//5 3//5
f 9//4 6//4 16//4
f 6//4 9//4 7//4
f 11//6 1//6 14//6
f 1//6 11//6 4//6
