# Blender v2.83.10 OBJ File: 'modularV2.blend'
# www.blender.org
mtllib 0bj77.mtl
g G-__556257
v -0.049657 0.500000 -0.125000
v 0.000343 0.000000 -0.125000
v -0.049657 0.000000 -0.125000
v 0.000343 0.500000 -0.125000
v -0.024657 0.054236 0.070764
v -0.049657 0.054236 -0.070764
v -0.049657 0.054236 0.070764
v -0.024657 0.054236 -0.070764
v -0.049657 0.000000 0.125000
v 0.000343 0.000000 0.125000
v 0.000343 0.500000 0.125000
v -0.049657 0.500000 0.125000
v -0.024657 0.445764 -0.070764
v -0.049657 0.445764 -0.070764
v -0.049657 0.445764 0.070764
v -0.024657 0.445764 0.070764
vn 0.0000 0.0000 -1.0000
vn 0.0000 1.0000 0.0000
vn 0.0000 -1.0000 0.0000
vn 0.0000 0.0000 1.0000
vn -1.0000 0.0000 0.0000
vn 1.0000 0.0000 0.0000
g G-__556257_G-__556257_Metal
usemtl Metal
s off
f 1//1 2//1 3//1
f 2//1 1//1 4//1
f 5//2 6//2 7//2
f 6//2 5//2 8//2
f 2//3 9//3 3//3
f 9//3 2//3 10//3
f 11//4 9//4 10//4
f 9//4 11//4 12//4
f 11//2 1//2 12//2
f 1//2 11//2 4//2
f 13//4 6//4 8//4
f 6//4 13//4 14//4
f 13//3 15//3 14//3
f 15//3 13//3 16//3
f 15//1 5//1 7//1
f 5//1 15//1 16//1
f 12//5 15//5 9//5
f 1//5 15//5 12//5
f 15//5 1//5 14//5
f 14//5 1//5 6//5
f 9//5 7//5 3//5
f 7//5 9//5 15//5
f 3//5 7//5 6//5
f 1//5 3//5 6//5
f 13//5 5//5 16//5
f 5//5 13//5 8//5
f 2//6 11//6 10//6
f 11//6 2//6 4//6
